<?xml version="1.0" encoding="UTF-8"?>
<svg width="1024px" height="1024px" viewBox="0 0 1024 1024" version="1.1" xmlns="http://www.w3.org/2000/svg" xmlns:xlink="http://www.w3.org/1999/xlink">
    <!-- Generator: Sketch 63.1 (92452) - https://sketch.com -->
    <title>App Icon / Apple / FaceTime /@SVG</title>
    <desc>Created with Sketch.</desc>
    <defs>
        <linearGradient x1="50%" y1="0%" x2="50%" y2="100%" id="linearGradient-1">
            <stop stop-color="#67FF81" offset="0%"></stop>
            <stop stop-color="#01B41F" offset="100%"></stop>
        </linearGradient>
    </defs>
    <g id="App-Icon-/-Apple-/-FaceTime-/" stroke="none" stroke-width="1" fill="none" fill-rule="evenodd">
        <rect id="Origin-Color" fill="url(#linearGradient-1)" x="0" y="0" width="1024" height="1024"></rect>
        <path d="M525.80574,288 C570.381677,288 586.545989,292.641281 602.842285,301.356635 C619.138581,310.07199 631.92801,322.861419 640.643365,339.157715 C649.358719,355.454011 654,371.618323 654,416.19426 L654,607.80574 C654,652.381677 649.358719,668.545989 640.643365,684.842285 C631.92801,701.138581 619.138581,713.92801 602.842285,722.643365 C586.545989,731.358719 570.381677,736 525.80574,736 L284.19426,736 C239.618323,736 223.454011,731.358719 207.157715,722.643365 C190.861419,713.92801 178.07199,701.138581 169.356635,684.842285 C160.641281,668.545989 156,652.381677 156,607.80574 L156,416.19426 C156,371.618323 160.641281,355.454011 169.356635,339.157715 C178.07199,322.861419 190.861419,310.07199 207.157715,301.356635 C223.454011,292.641281 239.618323,288 284.19426,288 L525.80574,288 Z M858.414947,324.792946 C864.601176,332.03536 868,341.247571 868,350.77238 L868,673.22762 C868,695.31901 850.09139,713.22762 828,713.22762 C818.475191,713.22762 809.26298,709.828795 802.020566,703.642567 L696.489015,613.501034 C688.092977,606.329417 685.454685,603.460539 682.926973,599.855037 C680.39926,596.249536 678.667517,592.492849 677.567702,588.22912 C676.486528,584.037658 676.016042,580.227287 676.000404,569.609331 L676,454.945982 C676,443.903992 676.467887,440.034608 677.567702,435.77088 C678.667517,431.507151 680.39926,427.750464 682.926973,424.144963 L683.184629,423.780645 C685.640169,420.340017 688.377588,417.427477 696.489015,410.498966 L802.020566,320.357433 C818.818277,306.009388 844.066902,307.995235 858.414947,324.792946 Z" id="Combined-Shape" fill="#FFFFFF"></path>
    </g>
</svg>