<?xml version="1.0" encoding="UTF-8"?>
<svg width="1024px" height="1024px" viewBox="0 0 1024 1024" version="1.1" xmlns="http://www.w3.org/2000/svg" xmlns:xlink="http://www.w3.org/1999/xlink">
    <title>App Icon / Apple / LogicRemote /@SVG</title>
    <defs>
        <rect id="path-1" x="0" y="0" width="1024" height="1024"></rect>
        <rect id="path-3" x="0" y="0" width="1024" height="1024"></rect>
        <linearGradient x1="50%" y1="0%" x2="50%" y2="100%" id="linearGradient-5">
            <stop stop-color="#CCDBE6" offset="0%"></stop>
            <stop stop-color="#738593" offset="100%"></stop>
        </linearGradient>
    </defs>
    <g id="App-Icon-/-Apple-/-LogicRemote-/" stroke="none" stroke-width="1" fill="none" fill-rule="evenodd">
        <mask id="mask-2" fill="white">
            <use xlink:href="#path-1"></use>
        </mask>
        <use id="Origin-Color" fill="#1A1A1B" xlink:href="#path-1"></use>
        <g id="Group-2" mask="url(#mask-2)">
            <g transform="translate(512.000000, 512.000000) rotate(-9.000000) translate(-512.000000, -512.000000) ">
                <mask id="mask-4" fill="white">
                    <use xlink:href="#path-3"></use>
                </mask>
                <g id="s" stroke="none" fill="none"></g>
                <g id="Group" stroke="none" stroke-width="1" fill="none" fill-rule="evenodd" mask="url(#mask-4)">
                    <g transform="translate(249.000000, 173.000000)" fill="url(#linearGradient-5)" fill-rule="nonzero" id="Combined-Shape">
                        <path d="M519.409679,466.314592 C621.960899,482.557109 691.927925,578.85846 675.685408,681.409679 C659.442891,783.960899 563.14154,853.927925 460.590321,837.685408 C358.039101,821.442891 288.072075,725.14154 304.314592,622.590321 C320.557109,520.039101 416.85846,450.072075 519.409679,466.314592 Z M435.296554,562.718248 L435.243572,563.03166 L410.430814,719.693252 C410.026613,722.245272 410.288488,724.858432 411.191059,727.279496 C414.046803,734.939765 422.497122,738.884147 430.179014,736.205533 L430.485865,736.094849 L581.649654,679.741068 C584.209161,678.786885 586.459526,677.1519 588.157939,675.012522 C593.236293,668.615659 592.254012,659.354081 586.007395,654.158151 L585.736462,653.937977 L459.385432,553.630167 C457.361773,552.023621 454.957434,550.967053 452.405414,550.562852 C444.328037,549.283521 436.736615,554.707372 435.296554,562.718248 Z M506,0 C528.09139,0 546,17.90861 546,40 L546.003137,446.438846 C537.852936,444.223646 529.50844,442.480214 521.00079,441.23969 L521,40 C521,31.8205929 514.453214,25.1702698 506.313828,25 L40,25 C31.8205929,25 25.1702698,31.5467864 25,39.6861718 L25,642 C25,650.179407 31.5467864,656.82973 39.6861718,657 L277.057585,657.002281 C277.252658,665.466933 277.941535,673.809542 279.096531,682.002423 L40,682 C17.90861,682 0,664.09139 0,642 L0,40 C0,17.90861 17.90861,0 40,0 L506,0 Z M286.782569,588.000174 L197,588 C191.477153,588 187,583.522847 187,578 L187,512 C187,506.477153 191.477153,502 197,502 L338.778035,501.996927 C315.144944,525.820852 297.102648,555.199075 286.782569,588.000174 Z M273.5,85 C376.501106,85 460,168.498894 460,271.5 C460,374.501106 376.501106,458 273.5,458 C170.498894,458 87,374.501106 87,271.5 C87,168.498894 170.498894,85 273.5,85 Z M273.5,118 C188.724291,118 120,186.724291 120,271.5 C120,356.275709 188.724291,425 273.5,425 C358.275709,425 427,356.275709 427,271.5 C427,186.724291 358.275709,118 273.5,118 Z M273.5,127 C353.305146,127 418,191.694854 418,271.5 C418,351.305146 353.305146,416 273.5,416 C193.694854,416 129,351.305146 129,271.5 C129,191.694854 193.694854,127 273.5,127 Z M273.5,152 C207.501972,152 154,205.501972 154,271.5 C154,337.498028 207.501972,391 273.5,391 C339.498028,391 393,337.498028 393,271.5 C393,205.501972 339.498028,152 273.5,152 Z M273.5,161 C334.527465,161 384,210.472535 384,271.5 C384,332.527465 334.527465,382 273.5,382 C212.472535,382 163,332.527465 163,271.5 C163,210.472535 212.472535,161 273.5,161 Z M273.5,186 C226.279654,186 188,224.279654 188,271.5 C188,318.720346 226.279654,357 273.5,357 C320.720346,357 359,318.720346 359,271.5 C359,224.279654 320.720346,186 273.5,186 Z M273.5,196 C315.197499,196 349,229.802501 349,271.5 C349,313.197499 315.197499,347 273.5,347 C231.802501,347 198,313.197499 198,271.5 C198,229.802501 231.802501,196 273.5,196 Z M273.5,221 C245.60962,221 223,243.60962 223,271.5 C223,299.39038 245.60962,322 273.5,322 C301.39038,322 324,299.39038 324,271.5 C324,243.60962 301.39038,221 273.5,221 Z M273.5,263 C278.19442,263 282,266.80558 282,271.5 C282,276.19442 278.19442,280 273.5,280 C268.80558,280 265,276.19442 265,271.5 C265,266.80558 268.80558,263 273.5,263 Z"></path>
                    </g>
                </g>
            </g>
        </g>
    </g>
</svg>