<?xml version="1.0" encoding="UTF-8"?>
<svg width="1024px" height="1024px" viewBox="0 0 1024 1024" version="1.1" xmlns="http://www.w3.org/2000/svg" xmlns:xlink="http://www.w3.org/1999/xlink">
    <!-- Generator: Sketch 64 (93537) - https://sketch.com -->
    <title>App Icon / Apple / Classroom /@SVG</title>
    <desc>Created with Sketch.</desc>
    <defs>
        <linearGradient x1="50%" y1="0%" x2="50%" y2="100%" id="linearGradient-1">
            <stop stop-color="#FFA700" offset="0%"></stop>
            <stop stop-color="#F9661E" offset="100%"></stop>
        </linearGradient>
    </defs>
    <g id="App-Icon-/-Apple-/-Classroom-/" stroke="none" stroke-width="1" fill="none" fill-rule="evenodd">
        <rect id="Origin-Color" fill="url(#linearGradient-1)" x="0" y="0" width="1024" height="1024"></rect>
        <path d="M813,240 C854.421356,240 888,273.578644 888,315 L888,707 C888,735.787037 871.781584,760.786059 847.983639,773.35818 C839.547931,746.547804 833.553751,727.762744 830,717 C827.951579,710.796236 827,705 824,700 C821.206897,695.344828 816.582649,689.792006 812.013656,684.234674 L812.013656,684.234674 L811,683 C795.939008,664.620485 776.75486,640.896767 760.5,620.5 C744.916428,600.945572 732.049109,584.41797 727,580 C715,569.5 698,558 672.5,558 L672.5,558 L499.5,558 C497.895088,557.71678 494.34089,557.112878 490,555.5 C471.350496,548.570688 432.468483,531.111868 413,523 C369.670647,477.546035 337.170647,443.379369 315.5,420.5 C313.712332,418.612622 309.38001,413.981295 302.503033,406.60602 C294.067237,397.558913 280.048649,396.636406 270.5,404.5 C261.022911,412.304661 259.448722,426.221404 266.94302,435.945778 C334.928142,524.161245 369.780468,569.179319 371.5,571 C375.687501,575.433824 388.173483,583.666972 403.5,594 C419.284019,604.641472 438.060861,617.464965 452.5,627.5 C465.943767,636.843263 473.5,639.5 475,652.5 C478.307841,681.167952 482.307841,724.334619 487,782 L487,782 L211,782 C169.578644,782 136,748.421356 136,707 L136,315 C136,273.578644 169.578644,240 211,240 L813,240 Z M730,696.5 C734.089166,696.127542 738.639038,701.282574 740.5,703 C746.946302,708.949099 748.891661,711.234023 753,715 C759,720.5 765.163056,726.887824 766,728 C774.171536,742.901036 786.175122,772.859833 790.514605,782.000927 L717.5,782 C720.63828,745.673977 722.63828,722.340644 723.5,712 C724.5,700 725.910834,696.872458 730,696.5 Z M605,358.5 C556.951227,358.5 518,397.451227 518,445.5 C518,493.548773 556.951227,532.5 605,532.5 C653.048773,532.5 692,493.548773 692,445.5 C692,397.451227 653.048773,358.5 605,358.5 Z" id="Combined-Shape" fill="#FFFFFF"></path>
    </g>
</svg>