<?xml version="1.0" encoding="UTF-8"?>
<svg width="1024px" height="1024px" viewBox="0 0 1024 1024" version="1.1" xmlns="http://www.w3.org/2000/svg" xmlns:xlink="http://www.w3.org/1999/xlink">
    <!-- Generator: Sketch 63.1 (92452) - https://sketch.com -->
    <title>App Icon / Apple / IndoorSurvey /@SVG</title>
    <desc>Created with Sketch.</desc>
    <defs>
        <circle id="path-1" cx="606" cy="606" r="214"></circle>
        <filter x="-15.3%" y="-14.8%" width="130.6%" height="130.6%" filterUnits="objectBoundingBox" id="filter-2">
            <feOffset dx="0" dy="2" in="SourceAlpha" result="shadowOffsetOuter1"></feOffset>
            <feGaussianBlur stdDeviation="21.5" in="shadowOffsetOuter1" result="shadowBlurOuter1"></feGaussianBlur>
            <feColorMatrix values="0 0 0 0 0   0 0 0 0 0   0 0 0 0 0  0 0 0 0.75 0" type="matrix" in="shadowBlurOuter1"></feColorMatrix>
        </filter>
    </defs>
    <g id="App-Icon-/-Apple-/-IndoorSurvey-/" stroke="none" stroke-width="1" fill="none" fill-rule="evenodd">
        <rect id="Origin-Color" fill="#FFFFFF" x="0" y="0" width="1024" height="1024"></rect>
        <path d="M244,967.389694 C254.08631,967.795458 265.226917,968 277.621898,968 L746.378102,968 C823.698963,968 851.793593,960.09068 880.076026,944.965069 C908.050123,930.004358 930.004358,908.050123 944.965069,880.076026 C960.09068,851.793593 968,823.698963 968,746.378102 L968,277.621898 C968,265.226624 967.795448,254.08577 967.389663,243.99925 L775.538725,243.996516 C767.348312,243.872711 759.953282,240.46733 754.611136,235.036084 C749.285574,229.621699 746,222.194556 746,214 C746,205.715729 749.357864,198.215729 754.786797,192.786797 C760.215729,187.357864 767.715729,184 776,184 L960.371785,183.998571 C956.592667,168.0551 951.429339,156.011107 944.965069,143.923974 C930.004358,115.949877 908.050123,93.9956415 880.076026,79.0349307 C851.793593,63.9093196 823.698963,56 746.378102,56 L277.621898,56 C200.301037,56 172.206407,63.9093196 143.923974,79.0349307 C115.949877,93.9956415 93.9956415,115.949877 79.0349307,143.923974 C72.5706573,156.011114 67.4073267,168.055113 63.6282086,183.998597 L436.461273,184.003484 C444.685355,184.127802 452.107539,187.558973 457.457311,193.088682 C462.733127,198.541946 465.998512,206.041516 465.995991,214.494803 C465.863412,222.671868 462.459918,230.054008 457.036084,235.388864 C451.621699,240.714426 444.194556,244 436,244 L243.999929,244 L243.996516,436.461283 C243.872195,444.685361 240.441024,452.107541 234.911318,457.457311 C229.458054,462.733127 221.958484,465.998512 213.505197,465.995991 C205.328132,465.863412 197.945992,462.459918 192.611136,457.036084 C187.285574,451.621699 184,444.194556 184,436 L184,244 L57.9749027,244 L57.260399,243.991034 C57.0436561,243.985772 56.8274823,243.978205 56.6119001,243.968352 C56.2049757,254.062601 56,265.213716 56,277.621898 L56,746.378102 C56,823.698963 63.9093196,851.793593 79.0349307,880.076026 C93.9956415,908.050123 115.949877,930.004358 143.923974,944.965069 C156.01113,951.429351 168.055146,956.592687 183.998662,960.371807 L184.003484,775.538701 C184.127296,767.348297 187.532675,759.953277 192.963916,754.611136 C198.378301,749.285574 205.805444,746 214,746 C222.284271,746 229.784271,749.357864 235.213203,754.786797 C240.642136,760.215729 244,767.715729 244,776 L244,967.389694 Z" id="Combined-Shape" stroke="#BBCFE7" stroke-width="8" fill="#C8D6EB"></path>
        <g id="Oval-Copy">
            <use fill="black" fill-opacity="1" filter="url(#filter-2)" xlink:href="#path-1"></use>
            <use fill="#FFFFFF" fill-rule="evenodd" xlink:href="#path-1"></use>
        </g>
        <path d="M606,444 C695.470129,444 768,516.529871 768,606 C768,695.470129 695.470129,768 606,768 C516.529871,768 444,695.470129 444,606 C444,516.529871 516.529871,444 606,444 Z M606,338 L685.208869,435.451233 C661.13697,424.252439 634.298653,418 606,418 C577.70174,418 550.863775,424.252265 526.792134,435.451233 L606,338 Z" id="Combined-Shape" fill="#0090FF"></path>
    </g>
</svg>