<?xml version="1.0" encoding="UTF-8"?>
<svg width="1024px" height="1024px" viewBox="0 0 1024 1024" version="1.1" xmlns="http://www.w3.org/2000/svg" xmlns:xlink="http://www.w3.org/1999/xlink">
    <!-- Generator: Sketch 64 (93537) - https://sketch.com -->
    <title>App Icon / Apple / Schoolwork /@SVG</title>
    <desc>Created with Sketch.</desc>
    <defs>
        <linearGradient x1="50%" y1="0%" x2="50%" y2="100%" id="linearGradient-1">
            <stop stop-color="#FFA528" offset="0%"></stop>
            <stop stop-color="#FF6F32" offset="100%"></stop>
        </linearGradient>
    </defs>
    <g id="App-Icon-/-Apple-/-Schoolwork-/" stroke="none" stroke-width="1" fill="none" fill-rule="evenodd">
        <rect id="Origin-Color" fill="url(#linearGradient-1)" x="0" y="0" width="1024" height="1024"></rect>
        <g id="Group" transform="translate(119.942435, 233.000000)" fill="#FFFFFF">
            <path d="M607.057565,541.999022 L729.557565,542 C736.461124,542 742.057565,547.596441 742.057565,554.5 C742.057565,561.403559 736.461124,567 729.557565,567 L459.557565,567 C452.654005,567 447.057565,561.403559 447.057565,554.5 C447.057565,547.596441 452.654005,542 459.557565,542 L582.057565,541.999022 L582.057771,484.701348 C445.92609,478.181971 337.557565,365.746398 337.557565,228 C337.557565,159.831437 364.098178,97.8617656 407.409828,51.8605612 C409.157636,50.0042184 411.429094,47.7153988 414.224201,44.9941024 C418.968245,40.3753142 426.54558,40.4338716 431.217684,45.1254166 C435.839637,49.7666016 435.868665,57.2620832 431.282798,61.9389279 L422.203979,71.1978601 C383.582226,113.590815 361.557565,168.998946 361.557565,228 C361.557565,351.573658 457.75681,452.678777 579.351703,460.511761 L583.057565,460.721 L598.350319,461.217361 C603.204667,461.37492 607.058357,465.35572 607.058357,470.212624 L607.057565,541.999022 Z" id="Combined-Shape" fill-rule="nonzero"></path>
            <path d="M594.557565,20.5 C708.880508,20.5 801.557565,113.177057 801.557565,227.5 C801.557565,341.822943 708.880508,434.5 594.557565,434.5 C480.234622,434.5 387.557565,341.822943 387.557565,227.5 C387.557565,113.177057 480.234622,20.5 594.557565,20.5 Z M539.796466,51.0850306 C474.958177,70.9472032 425.272521,125.47503 412.357662,193.056726 C413.728415,200.037818 419.795049,207.018909 430.557565,214 C454.745323,229.689357 471.269895,233.392304 485.557565,238 C502.684729,243.523418 513.557565,247 515.557565,252.5 C517.676529,258.32715 513.557565,272.5 520.057565,283.5 C526.557565,294.5 544.557565,302 545.557565,310 C546.557565,318 539.458338,350.529309 547.057565,370.5 C552.388264,384.509024 558.465503,389.554327 567.057565,389 C571.399157,388.719897 569.526278,382.784366 570.057565,375.5 C570.577701,368.368522 571.057565,360.5 572.557565,354.5 C573.557565,350.5 575.557565,346.666667 578.557565,343 C594.224232,328.814128 602.057565,320.147461 602.057565,317 C602.057565,310.5 616.907744,293.075742 623.557565,283.5 C636.057565,265.5 619.493923,254.688628 616.057565,254.5 C605.491533,253.920012 591.535313,256.671704 584.557565,253.5 C573.557565,248.5 572.557565,240.5 551.557565,237 C533.557565,234 525.053522,241.575865 515.557565,240 C513.251645,239.61733 510.384435,238.642195 509.057565,237 C507.237615,234.747547 507.672966,231.240688 507.057565,228.5 C506.245709,224.884402 504.57228,222.283612 503.057565,222.5 C495.582958,223.567801 488.178224,223.836154 486.557565,221 C482.557565,214 485.057565,208 492.557565,201.5 C495.338082,199.090218 502.557565,197.5 505.057565,198.5 C507.557565,199.5 510.267781,202.203615 511.557565,204.5 C514.36773,209.503335 515.445077,216 519.557565,216 C523.647696,216 524.557565,209 526.057565,196.5 C526.733709,190.865463 531.936116,182.313017 534.557565,178.5 C540.057565,170.5 542.523423,167.25987 550.057565,165 C552.605978,164.235602 555.943251,164.45825 559.057565,163.5 C565.557565,161.5 574.046785,156.079714 578.557565,149.5 C582.96601,143.069557 583.29896,136.477053 582.557565,134.5 C581.057565,130.5 571.781079,128.343543 568.057565,125.5 C561.012677,120.120017 556.674439,113.443983 554.057565,110.5 C550.057565,106 540.057565,97.5 533.557565,102 C527.057565,106.5 528.557565,129.5 516.557565,129.5 C508.057565,129.5 509.557565,108.5 499.057565,104 C494.916145,102.225106 487.057565,105.5 485.557565,99 C484.057565,92.5 498.513923,83.6233196 510.057565,80.5 C515.112727,79.132244 519.205531,81.5706863 523.057565,82 C528.001787,82.5510394 532.258677,81.2241657 534.557565,79.5 C541.057661,74.6249282 542.804491,65.1550334 539.796466,51.0850306 Z M712.057565,163 C703.414592,161.941677 693.762,165.132786 686.057565,165.5 C683.17252,165.637509 675.300601,165.097621 672.057565,167 C666.640161,170.177873 666.900395,176.397435 663.557565,180.5 C658.213607,187.058494 652.116886,188.57548 649.557565,192.5 C645.210312,199.166175 645.609611,205.162164 645.057565,209 C643.927873,216.853645 646.076505,225.161986 650.557565,231.5 C655.167943,238.020923 662.16383,242.474114 664.557565,243.5 C673.176181,247.193693 679.340236,241.849937 689.057565,240.5 C699.07116,239.108905 708.057565,242 711.057565,245 C714.057565,248 713.209684,251.691145 713.057565,255 C712.912174,258.162505 713.715572,263.747762 714.557565,267 C715.749967,271.605714 720.469036,276.057357 722.057565,284 C723.057565,289 718.557565,297.5 720.057565,306.5 C721.557565,315.5 729.445917,321.718464 730.557565,329.5 C731.956248,339.290779 730.491509,343.864722 737.824052,344.440752 C763.608455,312.644712 779.057565,272.126522 779.057565,228 C779.057565,210.75089 776.696883,194.053147 772.280974,178.212226 L772.280974,178.212226 L771.62414,178.21348 C766.667828,178.204986 762.645636,177.967159 759.557565,177.5 C750.568536,176.140151 746.298028,171.955682 742.057565,171.5 C734.997689,170.741343 731.294068,174.752854 727.057565,174 C719.023086,172.572222 718.269353,163.760627 712.057565,163 Z M710.692971,84.3915823 L710.646461,84.415776 C700.379165,89.4184 697.597565,102.08 704.057565,105.5 C707.761189,107.460742 712.479013,106.790473 715.057565,108 C718.396916,109.566397 719.231526,112.804157 719.057565,113.5 C718.057565,117.5 712.944937,114.948914 708.057565,115 C705.858926,115.022982 702.057565,115.5 700.557565,117 C697.070022,120.487542 699.557565,122.5 696.057565,125 C692.557565,127.5 685.057565,124.5 684.557565,128.5 C684.487052,129.064101 684.595565,131.554073 685.557565,133 C685.953039,133.594415 688.053738,134.431777 688.557565,136 C688.854577,136.924488 689.290979,140.756184 687.557565,141.5 C685.159284,142.529114 680.089173,140.29023 678.057565,140 C674.557565,139.5 670.057565,139 668.557565,141.5 C667.057565,144 666.557565,152.5 670.557565,155.5 C674.557565,158.5 677.557565,158.5 682.557565,157.5 C685.890898,156.833333 688.224232,155 689.557565,152 C692.088057,146.694162 694.421391,143.027496 696.557565,141 C698.583044,139.077568 701.733764,141.08095 704.057565,140.5 C710.057565,139 710.557565,136 713.057565,137.5 C714.14472,138.152293 714.810454,140.228168 714.557565,142.5 C714.228916,145.452425 712.774996,148.804587 713.057565,150.5 C713.557565,153.5 719.557565,151.5 720.557565,146 C721.557565,140.5 716.057565,135 718.557565,134 C721.057565,133 724.557565,137.5 727.057565,143 C729.557565,148.5 733.458322,155.193019 739.557565,156.5 C745.656807,157.806981 742.557565,146 747.557565,146 C752.557565,146 748.8674,154.445232 754.557565,157 C757.419951,158.285153 761.770379,158.564117 765.483774,158.314026 C753.660212,129.25756 734.663764,103.883898 710.692971,84.3915823 L710.692971,84.3915823 Z M687.057565,111 C686.557565,106.5 685.057565,102 681.557565,103.5 C679.051294,104.574116 680.557565,107.5 680.057565,109.5 C679.557565,111.5 678.057565,112.036642 678.057565,114 C678.057565,116.084025 678.261641,117.447408 680.057565,118 C681.853489,118.552592 683.696966,115.778802 684.057565,116.5 C684.557565,117.5 682.557565,121.5 684.057565,122.5 C685.557565,123.5 689.012411,122.501488 690.557565,121 C692.039338,119.560101 690.557565,116.5 689.557565,115 C688.921009,114.045167 687.234735,112.594527 687.057565,111 Z M594.057565,43 C584.862024,43 575.82318,43.6709013 566.987312,44.9664256 L566.987312,44.9664256 L564.809345,45.3035866 C571.680173,47.6027437 586.465368,51.5444123 595.057565,58.5 C605.557565,67 606.55849,80.2524283 608.557565,85.5 C612.557565,96 623.172534,101.952695 635.557565,101 C648.557565,100 638.755464,84.39748 641.557565,77.5 C646.624898,65.0265641 657.052811,60.6911078 667.177232,58.0117143 C644.748928,48.3514186 620.028192,43 594.057565,43 Z" id="Combined-Shape" fill-rule="nonzero"></path>
            <rect id="Rectangle" transform="translate(72.000000, 336.195004) rotate(7.000000) translate(-72.000000, -336.195004) " x="28" y="107.195004" width="88" height="458" rx="16"></rect>
            <path d="M300.057565,0 C307.237267,-1.31888981e-15 313.057565,5.82029825 313.057565,13 L313.057565,554 C313.057565,561.179702 307.237267,567 300.057565,567 L175.057565,567 C167.877863,567 162.057565,561.179702 162.057565,554 L162.057565,13 C162.057565,5.82029825 167.877863,1.31888981e-15 175.057565,0 L300.057565,0 Z M273.057565,200 L202.057565,200 C200.952995,200 200.057565,200.895431 200.057565,202 L200.057565,202 L200.057565,223 C200.057565,224.104569 200.952995,225 202.057565,225 L202.057565,225 L273.057565,225 C274.162134,225 275.057565,224.104569 275.057565,223 L275.057565,223 L275.057565,202 C275.057565,200.895431 274.162134,200 273.057565,200 L273.057565,200 Z M273.057565,150 L202.057565,150 C200.952995,150 200.057565,150.895431 200.057565,152 L200.057565,152 L200.057565,173 C200.057565,174.104569 200.952995,175 202.057565,175 L202.057565,175 L273.057565,175 C274.162134,175 275.057565,174.104569 275.057565,173 L275.057565,173 L275.057565,152 C275.057565,150.895431 274.162134,150 273.057565,150 L273.057565,150 Z M262.537466,47.8457173 C261.70825,47.1160079 260.444492,47.1966733 259.714783,48.0258886 L259.714783,48.0258886 L228.698461,83.2717084 C228.341404,83.6774553 227.726564,83.7260685 227.31018,83.3814748 L227.31018,83.3814748 L215.129785,73.3011479 L215.098414,73.2757148 C214.233414,72.5888028 212.97534,72.7331719 212.288428,73.5981722 L212.288428,73.5981722 L201.294392,87.442514 C200.610195,88.3040953 200.750368,89.5565138 201.608109,90.245519 L201.608109,90.245519 L229.086529,112.318348 C229.912445,112.981789 231.112423,112.886114 231.822781,112.100187 L231.822781,112.100187 L276.220341,62.9794817 C276.959491,62.1616984 276.897591,60.9000239 276.081939,60.1585222 L276.081939,60.1585222 L262.561556,47.8672642 Z" id="Combined-Shape"></path>
        </g>
    </g>
</svg>