<?xml version="1.0" encoding="UTF-8"?>
<svg width="1024px" height="1024px" viewBox="0 0 1024 1024" version="1.1" xmlns="http://www.w3.org/2000/svg" xmlns:xlink="http://www.w3.org/1999/xlink">
    <!-- Generator: Sketch 63.1 (92452) - https://sketch.com -->
    <title>App Icon / Apple / VoiceMemos /@SVG</title>
    <desc>Created with Sketch.</desc>
    <g id="App-Icon-/-Apple-/-VoiceMemos-/" stroke="none" stroke-width="1" fill="none" fill-rule="evenodd">
        <rect id="Origin-Color" fill="#171717" x="0" y="0" width="1024" height="1024"></rect>
        <g id="Template"></g>
        <path d="M526,96 C543.673112,96 558,110.326888 558,128 C558,142.548069 548.29185,154.828677 535.000542,158.716834 L535.000542,865.283166 C548.29185,869.171323 558,881.451931 558,896 C558,913.673112 543.673112,928 526,928 C508.326888,928 494,913.673112 494,896 C494,881.451567 503.708636,869.170708 517.000457,865.282874 L517.000457,158.717126 C503.708636,154.829292 494,142.548433 494,128 C494,110.326888 508.326888,96 526,96 Z" id="Combined-Shape" fill="#00AFFF"></path>
        <path d="M553.5,388 C558.19442,388 562,391.80558 562,396.5 L562,627.5 C562,632.19442 558.19442,636 553.5,636 C548.80558,636 545,632.19442 545,627.5 L545,396.5 C545,391.80558 548.80558,388 553.5,388 Z M636.5,443 C641.19442,443 645,446.80558 645,451.5 L645,572.5 C645,577.19442 641.19442,581 636.5,581 C631.80558,581 628,577.19442 628,572.5 L628,451.5 C628,446.80558 631.80558,443 636.5,443 Z M609.5,451 C614.19442,451 618,454.80558 618,459.5 L618,564.5 C618,569.19442 614.19442,573 609.5,573 C604.80558,573 601,569.19442 601,564.5 L601,459.5 C601,454.80558 604.80558,451 609.5,451 Z M581.5,457 C586.19442,457 590,460.80558 590,465.5 L590,558.5 C590,563.19442 586.19442,567 581.5,567 C576.80558,567 573,563.19442 573,558.5 L573,465.5 C573,460.80558 576.80558,457 581.5,457 Z M664.5,469 C669.19442,469 673,472.80558 673,477.5 L673,546.5 C673,551.19442 669.19442,555 664.5,555 C659.80558,555 656,551.19442 656,546.5 L656,477.5 C656,472.80558 659.80558,469 664.5,469 Z M719.5,475 C724.19442,475 728,478.80558 728,483.5 L728,540.5 C728,545.19442 724.19442,549 719.5,549 C714.80558,549 711,545.19442 711,540.5 L711,483.5 C711,478.80558 714.80558,475 719.5,475 Z M692.5,484 C697.19442,484 701,487.80558 701,492.5 L701,531.5 C701,536.19442 697.19442,540 692.5,540 C687.80558,540 684,536.19442 684,531.5 L684,492.5 C684,487.80558 687.80558,484 692.5,484 Z M747.5,486 C752.19442,486 756,489.80558 756,494.5 L756,529.5 C756,534.19442 752.19442,538 747.5,538 C742.80558,538 739,534.19442 739,529.5 L739,494.5 C739,489.80558 742.80558,486 747.5,486 Z M858.5,486 C863.19442,486 867,489.80558 867,494.5 L867,529.5 C867,534.19442 863.19442,538 858.5,538 C853.80558,538 850,534.19442 850,529.5 L850,494.5 C850,489.80558 853.80558,486 858.5,486 Z M803.5,491 C808.19442,491 812,494.80558 812,499.5 L812,524.5 C812,529.19442 808.19442,533 803.5,533 C798.80558,533 795,529.19442 795,524.5 L795,499.5 C795,494.80558 798.80558,491 803.5,491 Z M775.5,493 C780.19442,493 784,496.80558 784,501.5 L784,522.5 C784,527.19442 780.19442,531 775.5,531 C770.80558,531 767,527.19442 767,522.5 L767,501.5 C767,496.80558 770.80558,493 775.5,493 Z M941.5,494 C946.19442,494 950,497.80558 950,502.5 L950,521.5 C950,526.19442 946.19442,530 941.5,530 C936.80558,530 933,526.19442 933,521.5 L933,502.5 C933,497.80558 936.80558,494 941.5,494 Z M831.5,497 C836.19442,497 840,500.80558 840,505.5 L840,518.5 C840,523.19442 836.19442,527 831.5,527 C826.80558,527 823,523.19442 823,518.5 L823,505.5 C823,500.80558 826.80558,497 831.5,497 Z M886.5,497 C891.19442,497 895,500.80558 895,505.5 L895,518.5 C895,523.19442 891.19442,527 886.5,527 C881.80558,527 878,523.19442 878,518.5 L878,505.5 C878,500.80558 881.80558,497 886.5,497 Z M914.5,500 C919.19442,500 923,503.80558 923,508.5 L923,515.5 C923,520.19442 919.19442,524 914.5,524 C909.80558,524 906,520.19442 906,515.5 L906,508.5 C906,503.80558 909.80558,500 914.5,500 Z M969.5,502 C974.19442,502 978,505.80558 978,510.5 L978,513.5 C978,518.19442 974.19442,522 969.5,522 C964.80558,522 961,518.19442 961,513.5 L961,510.5 C961,505.80558 964.80558,502 969.5,502 Z M997.5,502 C1002.19442,502 1006,505.80558 1006,510.5 L1006,513.5 C1006,518.19442 1002.19442,522 997.5,522 C992.80558,522 989,518.19442 989,513.5 L989,510.5 C989,505.80558 992.80558,502 997.5,502 Z" id="Combined-Shape" fill="#FFFFFF"></path>
        <path d="M331.5,176 C336.19442,176 340,179.80558 340,184.5 L340,839.5 C340,844.19442 336.19442,848 331.5,848 C326.80558,848 323,844.19442 323,839.5 L323,184.5 C323,179.80558 326.80558,176 331.5,176 Z M387.5,242 C392.19442,242 396,245.80558 396,250.5 L396,773.5 C396,778.19442 392.19442,782 387.5,782 C382.80558,782 379,778.19442 379,773.5 L379,250.5 C379,245.80558 382.80558,242 387.5,242 Z M359.5,253 C364.19442,253 368,256.80558 368,261.5 L368,762.5 C368,767.19442 364.19442,771 359.5,771 C354.80558,771 351,767.19442 351,762.5 L351,261.5 C351,256.80558 354.80558,253 359.5,253 Z M275.5,319 C280.19442,319 284,322.80558 284,327.5 L284,696.5 C284,701.19442 280.19442,705 275.5,705 C270.80558,705 267,701.19442 267,696.5 L267,327.5 C267,322.80558 270.80558,319 275.5,319 Z M414.5,345 C419.19442,345 423,348.80558 423,353.5 L423,670.5 C423,675.19442 419.19442,679 414.5,679 C409.80558,679 406,675.19442 406,670.5 L406,353.5 C406,348.80558 409.80558,345 414.5,345 Z M303.5,347 C308.19442,347 312,350.80558 312,355.5 L312,668.5 C312,673.19442 308.19442,677 303.5,677 C298.80558,677 295,673.19442 295,668.5 L295,355.5 C295,350.80558 298.80558,347 303.5,347 Z M220.5,382 C225.19442,382 229,385.80558 229,390.5 L229,633.5 C229,638.19442 225.19442,642 220.5,642 C215.80558,642 212,638.19442 212,633.5 L212,390.5 C212,385.80558 215.80558,382 220.5,382 Z M498.5,404 C503.19442,404 507,407.80558 507,412.5 L507,611.5 C507,616.19442 503.19442,620 498.5,620 C493.80558,620 490,616.19442 490,611.5 L490,412.5 C490,407.80558 493.80558,404 498.5,404 Z M442.5,408 C447.19442,408 451,411.80558 451,416.5 L451,607.5 C451,612.19442 447.19442,616 442.5,616 C437.80558,616 434,612.19442 434,607.5 L434,416.5 C434,411.80558 437.80558,408 442.5,408 Z M248.5,419 C253.19442,419 257,422.80558 257,427.5 L257,596.5 C257,601.19442 253.19442,605 248.5,605 C243.80558,605 240,601.19442 240,596.5 L240,427.5 C240,422.80558 243.80558,419 248.5,419 Z M470.5,451 C475.19442,451 479,454.80558 479,459.5 L479,564.5 C479,569.19442 475.19442,573 470.5,573 C465.80558,573 462,569.19442 462,564.5 L462,459.5 C462,454.80558 465.80558,451 470.5,451 Z M192.5,468 C197.19442,468 201,471.80558 201,476.5 L201,547.5 C201,552.19442 197.19442,556 192.5,556 C187.80558,556 184,552.19442 184,547.5 L184,476.5 C184,471.80558 187.80558,468 192.5,468 Z M164.5,487 C169.19442,487 173,490.80558 173,495.5 L173,528.5 C173,533.109067 169.331547,536.861321 164.75516,536.996243 L164.5,537 L164.5,537 C159.80558,537 156,533.19442 156,528.5 L156,495.5 C156,490.80558 159.80558,487 164.5,487 Z M54.5,494 C59.1944204,494 63,497.80558 63,502.5 L63,521.5 C63,526.19442 59.1944204,530 54.5,530 C49.8055796,530 46,526.19442 46,521.5 L46,502.5 C46,497.80558 49.8055796,494 54.5,494 Z M109.5,498 C114.19442,498 118,501.80558 118,506.5 L118,517.5 C118,522.19442 114.19442,526 109.5,526 C104.80558,526 101,522.19442 101,517.5 L101,506.5 C101,501.80558 104.80558,498 109.5,498 Z M81.5,500 C86.1944204,500 90,503.80558 90,508.5 L90,515.5 C90,520.19442 86.1944204,524 81.5,524 C76.8055796,524 73,520.19442 73,515.5 L73,508.5 C73,503.80558 76.8055796,500 81.5,500 Z M137.5,502 C142.19442,502 146,505.80558 146,510.5 L146,513.5 C146,518.19442 142.19442,522 137.5,522 C132.80558,522 129,518.19442 129,513.5 L129,510.5 C129,505.80558 132.80558,502 137.5,502 Z M26.5,502 C31.1944204,502 35,505.80558 35,510.5 L35,513.5 C35,518.19442 31.1944204,522 26.5,522 C21.8055796,522 18,518.19442 18,513.5 L18,510.5 C18,505.80558 21.8055796,502 26.5,502 Z" id="Combined-Shape" fill="#FF3B30"></path>
    </g>
</svg>