<?xml version="1.0" encoding="UTF-8"?>
<svg width="1024px" height="1024px" viewBox="0 0 1024 1024" version="1.1" xmlns="http://www.w3.org/2000/svg" xmlns:xlink="http://www.w3.org/1999/xlink">
    <!-- Generator: Sketch 63.1 (92452) - https://sketch.com -->
    <title>App Icon / Apple / Support /@SVG</title>
    <desc>Created with Sketch.</desc>
    <defs>
        <linearGradient x1="50%" y1="0%" x2="50%" y2="100%" id="linearGradient-1">
            <stop stop-color="#3977FC" offset="0%"></stop>
            <stop stop-color="#2C3E90" offset="100%"></stop>
        </linearGradient>
    </defs>
    <g id="App-Icon-/-Apple-/-Support-/" stroke="none" stroke-width="1" fill="none" fill-rule="evenodd">
        <rect id="Origin-Color" fill="url(#linearGradient-1)" x="0" y="0" width="1024" height="1024"></rect>
        <path d="M819.929435,285.728208 C818.346911,286.701633 780.67512,307.244683 780.67512,352.793366 C782.450635,404.738839 828.215171,422.955784 829,422.955784 C828.215171,423.929209 822.090932,447.771789 803.949803,472.76478 C789.552694,494.293897 773.573061,516 749.307693,516 C726.226001,516 717.940265,501.651469 691.307544,501.651469 C662.706317,501.651469 654.613572,516 632.715557,516 C608.450189,516 591.286879,493.130844 576.104942,471.803998 C556.381289,443.890733 539.616827,400.086629 539.024988,358.027103 C538.626141,335.739474 542.974866,313.831101 554.013936,295.222258 C569.594721,269.2432 597.411119,251.607782 627.78786,251.026255 C651.062543,250.255101 671.776882,266.727467 685.981,266.727467 C699.59328,266.727467 725.042324,251.026255 753.836542,251.026255 C766.265145,251.038897 799.408087,254.717683 819.929435,285.728208 Z M671.017949,245.650082 C666.166869,221.329704 679.560069,197.009326 692.034275,181.495645 C707.973539,162.73421 733.147933,150 754.857271,150 C756.243293,174.320378 747.460126,198.172475 731.76191,215.544173 C717.675699,234.305608 693.420298,248.429554 671.017949,245.650082 Z" id="Shape" fill="#FFFFFF" fill-rule="nonzero"></path>
    </g>
</svg>