<?xml version="1.0" encoding="UTF-8"?>
<svg width="1024px" height="1024px" viewBox="0 0 1024 1024" version="1.1" xmlns="http://www.w3.org/2000/svg" xmlns:xlink="http://www.w3.org/1999/xlink">
    <!-- Generator: Sketch 63.1 (92452) - https://sketch.com -->
    <title>App Icon / Apple / Tips /@SVG</title>
    <desc>Created with Sketch.</desc>
    <defs>
        <linearGradient x1="50%" y1="0%" x2="50%" y2="100%" id="linearGradient-1">
            <stop stop-color="#FFB907" offset="0%"></stop>
            <stop stop-color="#FFD855" offset="100%"></stop>
        </linearGradient>
    </defs>
    <g id="App-Icon-/-Apple-/-Tips-/" stroke="none" stroke-width="1" fill="none" fill-rule="evenodd">
        <rect id="Origin-Color" fill="url(#linearGradient-1)" x="0" y="0" width="1024" height="1024"></rect>
        <g id="Template"></g>
        <path d="M548,869 C556.284271,869 563,875.715729 563,884 C563,892.284271 556.284271,899 548,899 L476,899 C467.715729,899 461,892.284271 461,884 C461,875.715729 467.715729,869 476,869 L548,869 Z M568,823 C576.284271,823 583,829.715729 583,838 C583,846.284271 576.284271,853 568,853 L456,853 C447.715729,853 441,846.284271 441,838 C441,829.715729 447.715729,823 456,823 L568,823 Z M578,777 C586.284271,777 593,783.715729 593,792 C593,800.284271 586.284271,807 578,807 L446,807 C437.715729,807 431,800.284271 431,792 C431,783.715729 437.715729,777 446,777 L578,777 Z M512,140 C647.309764,140 757,249.690236 757,385 C757,429.42079 745.169011,471.080459 724.5,507.004493 C693.946156,560.108982 606.766973,606.072179 594.353156,701.105136 L594,704 L594,718 C594,740.09139 576.09139,758 554,758 L470,758 C447.90861,758 430,740.09139 430,718 L430,704 L429.677266,701.106906 C418.281081,606.190191 333.451563,566.009559 299.5,507 C278.830778,471.075832 267,429.421033 267,385 C267,249.690236 376.690236,140 512,140 Z M610,429 L414,429 C405.715729,429 399,435.715729 399,444 C399,452.284271 405.715729,459 414,459 L414,459 L490,459 C493.865993,459 497,462.134007 497,466 L497,466 L497,694 C497,702.284271 503.715729,709 512,709 C520.284271,709 527,702.284271 527,694 L527,694 L527,466 C527,462.134007 530.134007,459 534,459 L534,459 L610,459 C618.284271,459 625,452.284271 625,444 C625,435.715729 618.284271,429 610,429 L610,429 Z" id="Combined-Shape" fill="#FFFFFF"></path>
    </g>
</svg>