<?xml version="1.0" encoding="UTF-8"?>
<svg width="1024px" height="1024px" viewBox="0 0 1024 1024" version="1.1" xmlns="http://www.w3.org/2000/svg" xmlns:xlink="http://www.w3.org/1999/xlink">
    <!-- Generator: Sketch 63.1 (92452) - https://sketch.com -->
    <title>App Icon / Apple / Remote /@SVG</title>
    <desc>Created with Sketch.</desc>
    <g id="App-Icon-/-Apple-/-Remote-/" stroke="none" stroke-width="1" fill="none" fill-rule="evenodd">
        <rect id="Origin-Color" fill="#D4D4D2" x="0" y="0" width="1024" height="1024"></rect>
        <g id="Group" transform="translate(395.000000, 129.000000)">
            <rect id="Rectangle" fill="#19191A" x="0" y="0" width="234" height="766" rx="42"></rect>
            <path d="M66,451 C85.882251,451 102,467.117749 102,487 C102,506.882251 85.882251,523 66,523 C46.117749,523 30,506.882251 30,487 C30,467.117749 46.117749,451 66,451 Z M168,349 C187.882251,349 204,365.117749 204,385 L204,487 C204,506.882251 187.882251,523 168,523 C148.117749,523 132,506.882251 132,487 L132,385 C132,365.117749 148.117749,349 168,349 Z M66,349 C85.882251,349 102,365.117749 102,385 C102,404.882251 85.882251,421 66,421 C46.117749,421 30,404.882251 30,385 C30,365.117749 46.117749,349 66,349 Z M66,247 C85.882251,247 102,263.117749 102,283 C102,302.882251 85.882251,319 66,319 C46.117749,319 30,302.882251 30,283 C30,263.117749 46.117749,247 66,247 Z M168,247 C187.882251,247 204,263.117749 204,283 C204,302.882251 187.882251,319 168,319 C148.117749,319 132,302.882251 132,283 C132,263.117749 148.117749,247 168,247 Z" id="Combined-Shape" fill="#8B8B8B"></path>
        </g>
    </g>
</svg>