<?xml version="1.0" encoding="UTF-8"?>
<svg width="1024px" height="1024px" viewBox="0 0 1024 1024" version="1.1" xmlns="http://www.w3.org/2000/svg" xmlns:xlink="http://www.w3.org/1999/xlink">
    <!-- Generator: Sketch 63.1 (92452) - https://sketch.com -->
    <title>App Icon / Apple / Settings /@SVG</title>
    <desc>Created with Sketch.</desc>
    <defs>
        <linearGradient x1="50%" y1="0%" x2="50%" y2="100%" id="linearGradient-1">
            <stop stop-color="#D3D7DD" offset="0%"></stop>
            <stop stop-color="#888C90" offset="100%"></stop>
        </linearGradient>
        <linearGradient x1="65.7823367%" y1="4.15232181%" x2="31.7146776%" y2="91.6814406%" id="linearGradient-2">
            <stop stop-color="#AFB0B3" offset="0%"></stop>
            <stop stop-color="#B5B7BA" offset="100%"></stop>
        </linearGradient>
        <path d="M433.679054,173.930495 L440.913806,205.70917 C442.096333,205.691929 443.280941,205.683279 444.467569,205.683279 C447.095602,205.683279 449.713726,205.725708 452.321291,205.809917 L459.73748,174.189991 C462.022107,164.449172 464.692128,164.570045 465.716249,174.608068 L469.013736,206.928737 C472.190246,207.252898 475.348341,207.639284 478.486782,208.086656 L480.367479,208.362388 L491.563205,177.932735 C495.017911,168.542948 497.653299,168.988315 497.446459,179.076324 L496.783129,211.428176 C500.532967,212.265779 504.249548,213.191518 507.930586,214.203106 L522.722872,185.420008 C527.296154,176.521234 529.857622,177.284454 528.422905,187.272061 L523.838946,219.182712 C526.958452,220.281015 530.048302,221.442236 533.106973,222.664852 L534.938422,223.405776 L552.543985,196.501306 C558.022389,188.129319 560.490047,189.156104 558.0192,198.939029 L550.11161,230.247865 C553.57161,231.956255 556.984286,233.745947 560.347143,235.614445 L581.077746,211.082846 C587.535604,203.440911 589.859735,204.760775 586.215066,214.169659 L574.586879,244.188369 C577.28798,245.945537 579.951348,247.755826 582.575501,249.617756 L584.145276,250.741099 L607.684777,228.943022 C615.025816,222.145064 617.171772,223.73833 612.407616,232.632908 L597.259561,260.914001 C600.239035,263.394853 603.157205,265.946822 606.011466,268.567301 L631.99022,249.830598 C640.105003,243.977958 642.040793,245.820875 636.228171,254.06855 L617.822056,280.185448 C620.05381,282.537542 622.238201,284.935015 624.373701,287.376342 L625.649122,288.846389 L653.651601,273.451678 C662.419155,268.631607 664.115921,270.6967 657.341487,278.174517 L635.993313,301.739254 C638.400486,304.960831 640.728286,308.245173 642.973814,311.589384 L672.195336,299.305582 C681.418695,295.428375 682.890306,297.659515 675.371338,304.388247 L651.686366,325.584018 C653.318458,328.419136 654.894038,331.290903 656.41157,334.197784 L657.315111,335.946113 L687.716073,327.343312 C697.343195,324.619049 698.531928,327.012904 690.24898,332.775149 L664.292541,350.832411 C665.841146,354.457582 667.302699,358.128825 668.674571,361.843514 L699.807393,357.023709 C709.69476,355.493003 710.582896,358.013884 701.659446,362.723741 L673.821209,377.41695 C674.746276,380.579432 675.60771,383.76908 676.404031,386.984416 L676.873998,388.916688 L708.29873,387.928938 C718.298945,387.614609 718.873242,390.224936 709.442319,393.812192 L680.125611,404.963436 C680.778172,408.870317 681.33593,412.809298 681.796441,416.777932 L713.070205,419.62388 C723.034186,420.530613 723.286084,423.191473 713.488281,425.602649 L683.127007,433.074363 C683.308915,436.898916 683.400902,440.747022 683.400902,444.616612 L683.400613,444.992402 L683.400613,444.992402 L683.399751,445.368057 L714.008863,451.428635 C723.823482,453.371921 723.795864,456.044534 713.799698,457.418352 L682.801097,461.67863 C682.517898,465.692476 682.135557,469.67895 681.656507,473.635619 L711.220256,483.35549 C720.72489,486.480392 720.371769,489.129718 710.282686,489.27507 L679.149305,489.723604 C678.517954,493.028159 677.818536,496.308556 677.052567,499.563281 L676.585012,501.513023 L704.669742,514.728489 C713.7227,518.988423 713.049339,521.574967 703.017745,520.489685 L672.191188,517.154673 C670.963964,521.010739 669.64151,524.824338 668.22659,528.592705 L694.44925,545.105777 C702.915574,550.437235 701.932011,552.922437 692.107454,550.622702 L662.008088,543.577032 C660.570669,546.731779 659.066644,549.849781 657.497809,552.92924 L656.548746,554.772276 L680.767967,573.83069 C688.630623,580.017914 687.392674,582.386692 677.862324,579.072609 L648.579772,568.889895 C646.469308,572.348815 644.273393,575.749892 641.994962,579.090195 L663.715464,600.96265 C670.76548,608.061972 669.248077,610.262225 660.192651,605.811387 L632.4173,592.159508 C630.330164,594.814543 628.187982,597.424264 625.992474,599.98695 L624.668784,601.518904 L643.568783,625.884336 C649.701059,633.789921 647.926824,635.788849 639.481315,630.267608 L613.623563,613.363133 C610.760335,616.233264 607.824531,619.030962 604.819138,621.753239 L620.611374,648.244602 C625.734492,656.838597 623.729873,658.6064 616.020187,652.097065 L592.464305,632.208692 C589.811671,634.304293 587.113528,636.344831 584.371602,638.328581 L582.721207,639.512003 L595.166296,667.728344 C599.203883,676.882631 596.998766,678.392956 590.139834,670.992566 L569.228475,648.43049 C565.677118,650.609032 562.064448,652.697357 558.393655,654.692275 L567.773967,683.907928 C570.832552,693.43411 568.481642,694.705663 562.433836,686.62886 L543.935896,661.924989 C540.862098,663.334254 537.753237,664.680221 534.610981,665.96122 L532.721633,666.72201 L538.475236,696.882477 C540.350074,706.710401 537.861724,707.685973 532.843312,698.93233 L517.506483,672.180218 C513.648157,673.417593 509.747112,674.559564 505.806124,675.603354 L507.844837,706.294897 C508.507977,716.27805 505.919283,716.943096 502.005078,707.643112 L490.037801,679.209368 C486.732345,679.84769 483.402615,680.417886 480.050129,680.918437 L478.035919,681.210398 L476.314007,712.012333 C475.755564,722.001889 473.105117,722.346496 470.353471,712.638811 L461.930105,682.921546 C457.915934,683.211494 453.874282,683.402275 449.807586,683.49145 L444.326703,713.953958 C442.555002,723.800997 439.882313,723.820027 438.334247,713.84936 L433.592153,683.306845 C430.120559,683.151326 426.668243,682.921726 423.23675,682.619586 L421.180365,682.42961 L412.57004,712.067199 C409.778748,721.675102 407.118712,721.414655 406.621345,711.336792 L405.090621,680.320625 C401.093674,679.657849 397.130236,678.895866 393.202923,678.037291 L381.022455,706.456833 C377.08106,715.652946 374.472592,715.070265 375.207115,705.006906 L377.468205,674.028746 C374.235595,673.086254 371.031316,672.077292 367.856949,671.003437 L365.95593,670.35135 L350.360143,697.147963 C345.327403,705.795195 342.809389,704.898964 344.764851,695.000132 L350.792343,664.488104 C347.089999,662.908716 343.435659,661.238548 339.832118,659.480397 L321.014981,684.271365 C314.965922,692.240805 312.5759,691.044386 315.723151,681.457649 L325.445847,651.841667 C322.552254,650.176116 319.696835,648.451701 316.881224,646.670057 L315.196618,645.594197 L293.400333,668.008076 C286.425132,675.180918 284.198732,673.702146 288.490853,664.570421 L301.784526,636.287396 C298.498884,633.837525 295.278367,631.305162 292.126043,628.693374 L268.115385,648.698541 C260.428629,655.102982 258.368999,653.399589 263.592133,644.766537 L279.888677,617.830809 C277.490901,615.551846 275.140396,613.223616 272.838783,610.847742 L271.463696,609.416513 L245.083847,626.417387 C236.673881,631.837311 234.837195,629.895609 241.0735,621.963446 L260.566384,597.169806 C258.039716,594.127316 255.587115,591.021116 253.211346,587.853972 L224.852477,601.563393 C215.844676,605.918 214.258314,603.766936 221.414822,596.653912 L243.814766,574.390079 C242.02842,571.633743 240.297325,568.838273 238.62305,566.005239 L237.625315,564.300923 L207.706423,574.486344 C198.235071,577.710718 196.922682,575.382358 204.892707,569.194514 L229.872295,549.80062 C228.141171,546.275462 226.494349,542.701414 224.93446,539.081106 L193.8874,545.567368 C184.093694,547.613441 183.074843,545.142496 191.739569,539.972076 L218.945681,523.737631 C217.835905,520.57424 216.790805,517.380427 215.811968,514.157776 L215.23263,512.220738 L183.702061,515.423687 C173.748133,516.43483 172.993147,513.870922 182.150863,509.634537 L211.123756,496.231595 C210.287655,492.434578 209.541869,488.603684 208.888766,484.74128 L177.045719,484.074453 C167.042759,483.86498 166.605862,481.228174 176.211603,478.139411 L206.696844,468.336765 C206.381015,465.132121 206.1285,461.908882 205.940568,458.668315 L205.835578,456.721906 L174.148971,452.155989 C164.2461,450.729024 164.133806,448.058628 174.044372,446.163533 L205.57544,440.134175 C205.646952,436.247288 205.81128,432.383084 206.0663,428.543685 L175.052929,420.117737 C165.397776,417.494552 165.611758,414.830375 175.679407,414.157201 L207.740084,412.01346 C208.18971,408.718091 208.706527,405.444105 209.28911,402.192928 L209.64654,400.24497 L179.749375,388.648829 C170.421311,385.030775 170.912604,382.40356 180.995467,382.786429 L213.28753,384.012632 C214.264021,380.277441 215.32864,376.577886 216.479032,372.916321 L188.135121,357.718615 C179.317517,352.990725 180.125324,350.442967 190.086371,352.051774 L222.02684,357.210474 C223.199735,354.227918 224.430882,351.274654 225.718881,348.352083 L226.498492,346.602235 L200.125562,327.998415 C191.949868,322.23117 193.062147,319.800849 202.752882,322.611611 L233.878906,331.639598 C235.692251,328.266613 237.584267,324.942206 239.552496,321.668832 L215.552152,299.906864 C208.140248,293.186241 209.540419,290.909588 218.816374,294.880402 L248.659902,307.6557 C250.483996,305.052696 252.358674,302.487735 254.282509,299.962243 L255.442698,298.451695 L234.197937,273.839699 C227.660319,266.265887 229.327507,264.176842 238.0504,269.248512 L266.145457,285.58356 C268.756026,282.65841 271.437496,279.797897 274.18717,277.004722 L255.671016,250.363805 C249.96089,242.148115 251.83731,240.244783 259.982284,246.200461 L286.350545,265.48117 C288.72074,263.38748 291.132804,261.3401 293.58532,259.340446 L295.061673,258.146392 L279.903227,229.396256 C275.236905,220.545916 277.331296,218.885449 284.689744,225.789357 L308.492496,248.121784 C311.609207,245.960934 314.779803,243.87233 318.001862,241.858394 L306.449257,211.446494 C302.896302,202.093441 305.177442,200.700593 311.639667,208.44981 L332.513739,233.481082 C335.304388,231.998271 338.127928,230.569168 340.982981,229.195151 L342.699784,228.377362 L334.935471,196.767553 C332.548849,187.05122 334.982731,185.946755 340.452396,194.425757 L358.093518,221.772793 C361.628209,220.401796 365.20363,219.112472 368.817466,217.90714 L364.960874,185.566424 C363.776165,175.631659 366.326506,174.832042 370.72207,183.914428 L384.882083,213.172721 C388.034467,212.363516 391.211994,211.617019 394.413256,210.934638 L396.336851,210.532915 L395.883698,178.094167 C395.743944,168.08999 398.363897,167.561336 401.786014,177.053429 L412.855021,207.756077 C416.605446,207.260335 420.383311,206.851581 424.186522,206.53191 L427.693899,174.244164 C428.77439,164.297525 431.439241,164.092104 433.679054,173.930495 Z M444,247.733333 C335.604913,247.733333 247.733333,335.604913 247.733333,444 C247.733333,552.395087 335.604913,640.266667 444,640.266667 C552.395087,640.266667 640.266667,552.395087 640.266667,444 C640.266667,335.604913 552.395087,247.733333 444,247.733333 Z" id="path-3"></path>
        <filter x="-4.6%" y="-4.6%" width="109.2%" height="109.2%" filterUnits="objectBoundingBox" id="filter-4">
            <feOffset dx="0" dy="0" in="SourceAlpha" result="shadowOffsetOuter1"></feOffset>
            <feGaussianBlur stdDeviation="8.5" in="shadowOffsetOuter1" result="shadowBlurOuter1"></feGaussianBlur>
            <feColorMatrix values="0 0 0 0 0   0 0 0 0 0   0 0 0 0 0  0 0 0 0.2 0" type="matrix" in="shadowBlurOuter1"></feColorMatrix>
        </filter>
        <filter x="-3.1%" y="-3.1%" width="106.1%" height="106.1%" filterUnits="objectBoundingBox" id="filter-5">
            <feOffset dx="0" dy="0" in="SourceAlpha" result="shadowOffsetInner1"></feOffset>
            <feComposite in="shadowOffsetInner1" in2="SourceAlpha" operator="arithmetic" k2="-1" k3="1" result="shadowInnerInner1"></feComposite>
            <feColorMatrix values="0 0 0 0 0   0 0 0 0 0   0 0 0 0 0  0 0 0 0.2 0" type="matrix" in="shadowInnerInner1"></feColorMatrix>
        </filter>
        <linearGradient x1="50%" y1="0%" x2="50%" y2="100%" id="linearGradient-6">
            <stop stop-color="#D9DADB" offset="0%"></stop>
            <stop stop-color="#7D8082" offset="100%"></stop>
        </linearGradient>
        <path d="M438.026774,85.6487711 C440.013958,85.616299 442.005076,85.6 444,85.6 C448.511923,85.6 453.004374,85.6833741 457.475895,85.8486657 L467.18088,44.4753961 C470.56637,30.0427313 474.523171,30.2218759 476.041037,45.0949586 L480.36067,87.4216863 L480.36067,87.4216863 C486.850179,88.0755363 493.288597,88.9025079 499.671235,89.8979125 L499.671235,89.8979125 L514.344161,50.0208108 C519.463315,36.1083124 523.368791,36.7683344 523.062769,51.7155366 L522.193884,94.1550423 C528.560025,95.5716772 534.862376,97.1576385 541.095964,98.9079557 L560.520395,61.1143889 C567.296899,47.9294602 571.092828,49.0605202 568.967481,63.8590135 L562.942677,105.808898 C569.224265,108.018088 575.425746,110.397337 581.541596,112.941119 L581.541596,112.941119 L604.713048,77.5331499 C612.830631,65.1287872 616.487536,66.6504337 612.826969,81.1457002 L602.404621,122.41655 C608.24028,125.29654 613.986232,128.330697 619.637156,131.513704 L646.997892,99.1381091 C656.566678,87.815491 660.010884,89.7714601 654.611073,103.71257 L639.239973,143.397333 L639.239973,143.397333 C644.685705,146.941558 650.029139,150.629754 655.264877,154.456524 L655.264877,154.456524 L686.427469,125.600937 C697.304811,115.528858 700.484972,117.88999 693.426417,131.069114 L673.340003,168.572729 C678.324763,172.727917 683.194969,177.015879 687.945187,181.431183 L722.446272,156.549385 C734.470014,147.877996 737.33872,150.609093 728.726648,162.82976 L704.241519,197.574543 L704.241519,197.574543 C708.701699,202.28319 713.035457,207.112801 717.237359,212.057942 L717.237359,212.057942 L754.546781,191.547997 C767.537676,184.406569 770.052162,187.466916 760.014958,198.546944 L731.523449,229.998604 C735.484343,235.311645 739.301443,240.738191 742.968984,246.272479 L782.027209,229.854937 C795.693421,224.110549 797.874239,227.416967 786.733841,237.387124 L755.014266,265.774724 L755.014266,265.774724 C758.244894,271.400229 761.327286,277.121704 764.256114,282.933821 L764.256114,282.933821 L805.027751,271.397592 C819.292162,267.361514 821.053774,270.909061 808.781358,279.447229 L773.903313,303.712592 C776.444181,309.680173 778.827862,315.730774 781.049157,321.859193 L822.946163,315.37415 C837.596123,313.106551 838.912267,316.842341 825.690787,323.821236 L788.156784,343.633381 L788.156784,343.633381 C789.967675,349.853453 791.614516,356.143399 793.092309,362.498221 L793.092309,362.498221 L835.529678,361.16552 C850.346791,360.700204 851.197846,364.568546 837.224404,369.884129 L797.562202,384.971871 C798.61898,391.349081 799.507395,397.783147 800.222725,404.269351 L842.600645,408.126996 C857.364021,409.470901 857.7373,413.414126 843.220207,416.987153 L802.009975,427.130041 L802.009975,427.130041 C802.269036,432.72086 802.4,438.345136 802.4,444 C802.4,445.005106 802.395863,446.009245 802.387604,447.012401 L802.387604,447.012401 L843.991671,455.251192 C858.533696,458.130927 858.49275,462.09157 843.681701,464.127574 L801.476406,469.929332 C801.011072,476.438115 800.371929,482.898811 799.563596,489.306805 L839.859173,502.556311 C853.941852,507.186809 853.418531,511.112939 838.469754,511.328754 L795.968637,511.94234 L795.968637,511.94234 C794.73899,518.350465 793.338681,524.697922 791.772625,530.979797 L791.772604,530.979879 L830.151819,549.040811 C843.565212,555.35304 842.567317,559.186129 827.703665,557.578538 L785.518869,553.016003 C783.537389,559.228763 781.391076,565.367933 779.085072,571.428372 L815.005842,594.050005 C827.549986,601.949865 826.092393,605.63277 811.535449,602.225738 L770.254538,592.563999 L770.254538,592.563999 C767.493469,598.617699 764.568864,604.581122 761.486371,610.448619 L761.486371,610.448619 L794.73121,636.610928 C806.380877,645.778732 804.5463,649.289101 790.425232,644.379118 L750.182595,630.386502 C746.797122,635.936035 743.265017,641.386324 739.591662,646.731984 L769.460713,676.811632 C779.906271,687.330838 777.657562,690.591463 764.240127,683.997153 L726.008634,665.207398 L726.008634,665.207398 C721.998793,670.312264 717.853335,675.305556 713.577687,680.181846 L739.604883,713.737449 C748.690612,725.451239 746.061295,728.413512 733.547515,720.233181 L697.91392,696.939289 C693.336342,701.534395 688.634848,706.00597 683.814874,710.348578 L705.58377,746.868091 C713.174224,759.601841 710.203495,762.2216 698.779923,752.577197 L666.294564,725.151286 L666.294564,725.151286 C661.21021,729.176727 656.014098,733.067182 650.711642,736.817237 L650.711642,736.817237 L667.876125,775.736678 C673.858146,789.300555 670.590293,791.538746 660.427227,780.574048 L631.579921,749.451353 C625.936469,752.924431 620.189454,756.245489 614.344581,759.408821 L627.282749,799.709582 C631.814189,813.824447 628.330283,815.708793 619.369014,803.741831 L593.850787,769.664551 L593.850787,769.664551 C587.961712,772.37883 581.986458,774.93807 575.930257,777.337038 L575.930257,777.337038 L583.864283,818.933696 C586.641777,833.495595 582.954195,834.941314 575.518129,821.971448 L554.369428,785.084229 C548.205394,787.077354 541.9683,788.908029 535.663193,790.571207 L538.472386,832.879909 C539.454529,847.671757 535.618244,848.657296 529.818234,834.877877 L513.327533,795.699967 L513.327543,795.699991 C506.983131,796.943456 500.578741,798.019525 494.11916,798.923412 L494.11916,798.923412 L491.74612,841.351372 C490.918269,856.152656 486.990472,856.663325 482.912983,842.279772 L471.317046,801.374507 C464.88583,801.859207 458.407247,802.174181 451.885763,802.314961 L444.343393,844.228326 C441.71789,858.818394 437.757136,858.846578 435.462954,844.073317 L428.943159,802.089447 L428.943159,802.089447 C422.283773,801.814233 415.671294,801.357306 409.110548,800.723494 L409.110548,800.723494 L397.282401,841.432857 C393.146203,855.66856 389.2042,855.282578 388.466812,840.350439 L386.365079,797.790246 C379.928078,796.749666 373.548506,795.537643 367.2312,794.159014 L350.531303,833.120239 C344.69104,846.745755 340.82546,845.882241 341.913338,830.971539 L345.008102,788.554017 L345.008102,788.554017 C338.742882,786.757299 332.547948,784.794316 326.42838,782.670149 L326.42838,782.670149 L305.092112,819.32765 C297.634849,832.139854 293.903318,830.811681 296.800245,816.1447 L305.033062,774.462404 C299.033261,771.936301 293.116651,769.251572 287.288481,766.413468 L261.604835,800.248857 C252.641742,812.056749 249.099889,810.283717 253.762678,796.079108 L267.010658,755.720777 L267.010658,755.720777 C261.36219,752.506769 255.809607,749.143663 250.358262,745.636816 L250.35821,745.636783 L220.682044,776.152093 C210.34674,786.779645 207.047366,784.588185 213.406506,771.057707 L231.473161,732.616895 C226.137387,728.681259 220.914663,724.601197 215.810759,720.38248 L183.211646,747.541777 C171.822078,757.030776 168.769848,754.506443 176.508472,741.714797 L198.595867,705.205185 L198.595867,705.205185 C193.872999,700.766297 189.270538,696.200766 184.793909,691.514017 L184.793909,691.514017 L149.080673,714.528501 C136.619583,722.558732 133.897743,719.681241 143.137594,707.928043 L169.478423,674.4222 C165.310087,669.461303 161.273747,664.385792 157.374811,659.201075 L119.099334,677.703111 C105.752489,684.154861 103.401615,680.96711 114.004947,670.427573 L144.178708,640.435355 L144.178708,640.435355 C140.622111,635.017889 137.208391,629.49823 133.942904,623.881736 L133.942904,623.881736 L93.6901932,637.583875 C79.6565628,642.360964 77.7117009,638.910474 89.5204444,629.741719 L123.059477,603.700744 C120.167868,597.900887 117.428849,592.011622 114.847676,586.038206 L73.2114568,594.735497 C58.7002504,597.766709 57.1903941,594.104919 70.0285072,586.44363 L106.437824,564.715958 L106.437824,564.715958 C104.209708,558.486053 102.149159,552.176458 100.261607,545.792603 L100.261607,545.792603 L58.1175436,550.072492 C43.3689831,551.570265 42.2501592,547.770712 55.8187667,541.49334 L94.473253,523.610253 C93.0433971,517.306011 91.7797245,510.938662 90.687084,504.513055 L48.2533523,503.623249 C33.4321929,503.312459 32.7847576,499.404878 47.0172458,494.827894 L87.568291,481.787203 L87.5682897,481.787203 C86.896207,475.373231 86.393295,468.908898 86.0640964,462.398746 L86.0640964,462.398746 L43.9605896,456.33058 C29.2877806,454.215862 29.1213855,450.258505 43.8055809,447.450141 L85.628271,439.451519 C85.7093473,432.932627 85.9644652,426.455655 86.3891925,420.025034 L45.3001799,408.860413 C30.994459,404.973292 31.3115848,401.025154 46.22858,400.027276 L88.6291375,397.190877 L88.6291375,397.190877 C89.4906457,390.586139 90.5319744,384.03792 91.7480497,377.551291 L91.748057,377.551253 L52.2599573,362.233816 C38.4389194,356.872634 39.1670008,352.979273 54.1065857,353.546112 L96.6959285,355.162043 C98.3061212,348.848204 100.083955,342.601382 102.024411,336.426598 L64.6869855,316.405374 C51.6223312,309.399793 52.819467,305.624183 67.5786141,308.007475 L109.597304,314.79261 L109.597304,314.79261 C111.945003,308.720612 114.453317,302.72856 117.117035,296.821665 L117.117035,296.821665 L82.4558938,272.369763 C70.342387,263.824219 71.9907307,260.222646 86.3494151,264.386861 L127.207952,276.236395 C130.255008,270.494504 133.453602,264.845334 136.798403,259.294216 L105.31691,230.747263 C94.3351356,220.789152 96.4101142,217.415307 110.154281,223.298366 L149.258376,240.036498 L149.258376,240.036498 C152.956219,234.702934 156.79511,229.474571 160.769652,224.356805 L160.769668,224.356784 L132.948526,192.124228 C123.262196,180.902002 125.732876,177.806181 138.657632,185.320381 L175.415214,206.69052 C179.803325,201.727849 184.32685,196.887703 188.980002,192.17587 L164.770015,157.340606 C156.30979,145.167359 159.090537,142.346754 171.159041,151.170795 L205.618904,176.366564 L205.618904,176.366564 C210.456055,172.055058 215.410846,167.872724 220.477863,163.824979 L220.477863,163.824979 L200.680288,126.27351 C193.76667,113.159958 196.870435,110.699265 207.773603,120.928314 L238.850737,150.084018 C244.16205,146.369889 249.578701,142.796058 255.095317,139.367902 L240.019463,99.6777734 C234.755518,85.8194099 238.136031,83.7553124 247.711321,95.2368774 L274.947499,127.89531 L274.947544,127.895286 C280.66135,124.833146 286.467815,121.921399 292.36165,119.165335 L292.36165,119.165335 L282.23384,77.928313 C278.698041,63.5317341 282.304907,61.895003 290.409573,74.4579204 L313.422707,110.130223 C319.457068,107.768381 325.571091,105.565411 331.75963,103.526459 L326.729178,61.3318229 C324.974236,46.6116485 328.753684,45.4266837 335.266904,58.8836693 L353.744611,97.0605172 C360.143642,95.4005314 366.612119,93.9129047 373.144791,92.602888 L373.144791,92.602888 L372.554482,50.2603072 C372.347831,35.43733 376.230437,34.6539164 381.30134,48.7180002 L395.759931,88.818718 C402.158089,87.9579374 408.609762,87.2659793 415.110319,86.7474734 L419.694757,44.5557653 C421.296113,29.818092 425.245252,29.5136885 428.564377,44.0909282 L438.026774,85.648771 L438.026774,85.6487711 L438.026774,85.6487711 Z M487.514948,423.434896 C468.694005,422.804296 445.562912,406.117843 436.243754,389.831247 L327.673164,201.781468 C315.966015,181.32151 329.363658,158.402139 347.37338,148.004221 C359.439898,141.037613 399.45311,128.335098 452.459165,128.37779 C601.510862,132.298163 724.831935,239.516259 753.461707,381.071399 C756.037488,404.756263 735.913569,423.715492 714.639571,423.39793 L487.514948,423.434896 Z M292.655854,220.721151 L404.927083,413.747909 C414.094249,430.187796 413.609367,459.867546 404.16434,476.081472 L295.59375,664.131251 C283.72848,684.499918 254.281588,686.798971 236.271866,676.401053 C224.290812,669.483788 193.636328,641.533078 167.295022,596.180507 C142.420304,551.047801 128.266667,499.17678 128.266667,444 C128.266667,350.926498 168.346927,267.709124 232.416667,209.922917 C253.117806,198.356322 281.869271,201.377091 292.655854,220.721151 Z M750.050009,504.493752 C750.050009,483.697916 734.097427,463.431765 710.525009,463.340473 L493.383829,463.340473 C474.619644,463.267803 451.440733,476.307755 441.786956,492.466697 L330.756494,686.209813 C318.629286,706.5089 328.277082,732.220835 351.812499,743.429168 C387.26141,762.602163 479.354993,761.866214 550.15835,741.442895 C604.498152,722.047112 651.96514,688.183038 687.920584,644.489402 C735.299157,584.49645 750.050009,522.325595 750.050009,504.493752 Z M444,461.066667 C453.42566,461.066667 461.066667,453.42566 461.066667,444 C461.066667,434.57434 453.42566,426.933333 444,426.933333 C434.57434,426.933333 426.933333,434.57434 426.933333,444 C426.933333,453.42566 434.57434,461.066667 444,461.066667 L444,461.066667 Z" id="path-7"></path>
        <filter x="-7.2%" y="-5.2%" width="114.5%" height="114.5%" filterUnits="objectBoundingBox" id="filter-8">
            <feOffset dx="0" dy="17" in="SourceAlpha" result="shadowOffsetOuter1"></feOffset>
            <feGaussianBlur stdDeviation="17" in="shadowOffsetOuter1" result="shadowBlurOuter1"></feGaussianBlur>
            <feColorMatrix values="0 0 0 0 0   0 0 0 0 0   0 0 0 0 0  0 0 0 0.2 0" type="matrix" in="shadowBlurOuter1" result="shadowMatrixOuter1"></feColorMatrix>
            <feOffset dx="0" dy="17" in="SourceAlpha" result="shadowOffsetOuter2"></feOffset>
            <feColorMatrix values="0 0 0 0 0   0 0 0 0 0   0 0 0 0 0  0 0 0 0.2 0" type="matrix" in="shadowOffsetOuter2" result="shadowMatrixOuter2"></feColorMatrix>
            <feMerge>
                <feMergeNode in="shadowMatrixOuter1"></feMergeNode>
                <feMergeNode in="shadowMatrixOuter2"></feMergeNode>
            </feMerge>
        </filter>
        <filter x="-4.1%" y="-2.1%" width="108.3%" height="108.3%" filterUnits="objectBoundingBox" id="filter-9">
            <feOffset dx="0" dy="0" in="SourceAlpha" result="shadowOffsetInner1"></feOffset>
            <feComposite in="shadowOffsetInner1" in2="SourceAlpha" operator="arithmetic" k2="-1" k3="1" result="shadowInnerInner1"></feComposite>
            <feColorMatrix values="0 0 0 0 0   0 0 0 0 0   0 0 0 0 0  0 0 0 0.2 0" type="matrix" in="shadowInnerInner1"></feColorMatrix>
        </filter>
    </defs>
    <g id="App-Icon-/-Apple-/-Settings-/" stroke="none" stroke-width="1" fill="none" fill-rule="evenodd">
        <rect id="Origin-Color" fill="url(#linearGradient-1)" x="0" y="0" width="1024" height="1024"></rect>
        <g id="Settings-Icon" transform="translate(68.000000, 68.000000)">
            <circle id="Oval" fill="#2E2E30" cx="444" cy="444" r="443.733333"></circle>
            <g id="Shape" transform="translate(444.000000, 444.000000) rotate(8.000000) translate(-444.000000, -444.000000) ">
                <use fill="black" fill-opacity="1" filter="url(#filter-4)" xlink:href="#path-3"></use>
                <use fill="url(#linearGradient-2)" fill-rule="evenodd" xlink:href="#path-3"></use>
                <use fill="black" fill-opacity="1" filter="url(#filter-5)" xlink:href="#path-3"></use>
            </g>
            <g id="Shape">
                <use fill="black" fill-opacity="1" filter="url(#filter-8)" xlink:href="#path-7"></use>
                <use fill="url(#linearGradient-6)" fill-rule="evenodd" xlink:href="#path-7"></use>
                <use fill="black" fill-opacity="1" filter="url(#filter-9)" xlink:href="#path-7"></use>
            </g>
        </g>
    </g>
</svg>