<svg xmlns="http://www.w3.org/2000/svg" xmlns:xlink="http://www.w3.org/1999/xlink" viewBox="0 0 1024 1024"><defs><path d="M0 602.905c0 44.051 35.134 79.762 89.684 79.762h5.354c65.76 0 100.894-47.042 100.894-102.424V230.691c0-6.296 4.93-12.413 10.988-13.66l283.384-60.047c6.068-1.249 10.988 2.866 10.988 9.085v234.09c-.615 19.567-4.059 30.528-10.597 39.197-6.44 8.54-16.896 14.382-29.337 15.422h-32.683c-43.34 0-78.474 35.71-78.474 79.76 0 44.052 35.134 79.762 89.684 79.762h5.354c65.76 0 100.894-47.042 100.894-102.424V18.783c0-12.542-9.776-20.776-21.984-18.363L173.075 71.49c-12.142 2.4-21.985 14.484-21.985 27.246v369.788c-.614 19.567-4.058 30.528-10.596 39.197-6.44 8.541-16.896 14.383-29.337 15.422H78.473C35.133 523.144 0 558.854 0 602.905Z" id="a"/></defs><path fill="#FFF" d="M0 0h1024v1024H0z"/><g transform="translate(204.8 162.133)"><mask id="b" fill="#fff"><use xlink:href="#a"/></mask><use xlink:href="#a"/><path mask="url(#b)" d="M-204.8-162.133h1024v1024h-1024z"/></g></svg>