<?xml version="1.0" encoding="UTF-8"?>
<svg width="1024px" height="1024px" viewBox="0 0 1024 1024" version="1.1" xmlns="http://www.w3.org/2000/svg" xmlns:xlink="http://www.w3.org/1999/xlink">
    <!-- Generator: Sketch 63.1 (92452) - https://sketch.com -->
    <title>App Icon / Apple / Clock /@SVG</title>
    <desc>Created with Sketch.</desc>
    <defs>
        <linearGradient x1="50%" y1="0%" x2="50%" y2="100%" id="linearGradient-1">
            <stop stop-color="#F5F4F9" offset="0%"></stop>
            <stop stop-color="#EEEEEE" offset="100%"></stop>
        </linearGradient>
    </defs>
    <g id="App-Icon-/-Apple-/-Clock-/" stroke="none" stroke-width="1" fill="none" fill-rule="evenodd">
        <rect id="Origin-Color" fill="#1E1E1F" x="0" y="0" width="1024" height="1024"></rect>
        <g id="Clock-Icon" transform="translate(67.000000, 67.000000)">
            <g id="Icon" transform="translate(0.266667, 0.266667)">
                <circle id="Oval" fill="url(#linearGradient-1)" cx="444.733333" cy="444.733333" r="444"></circle>
                <g id="Numbers" transform="translate(77.800000, 64.733333)" fill="#000000" stroke="#000000" stroke-width="5.12">
                    <path d="M346.453333,72.8 L346.453333,0.1984 L339.797333,0.1984 C339.319464,2.92908032 338.432006,5.18185779 337.134933,6.9568 C335.83786,8.73174221 334.250676,10.1311949 332.373333,11.1552 C330.495991,12.1792051 328.396812,12.8789315 326.075733,13.2544 C323.754655,13.6298685 321.365346,13.8176 318.907733,13.8176 L318.907733,20.7808 L337.749333,20.7808 L337.749333,72.8 L346.453333,72.8 Z M371.438933,25.9008 L380.142933,25.9008 C380.074666,23.7162557 380.296531,21.5488108 380.808533,19.3984 C381.320536,17.2479892 382.156794,15.3194752 383.317333,13.6128 C384.477872,11.9061248 385.962658,10.5237386 387.771733,9.4656 C389.580809,8.40746138 391.748254,7.8784 394.274133,7.8784 C396.18561,7.8784 397.994658,8.18559693 399.701333,8.8 C401.408009,9.41440307 402.892794,10.3018609 404.155733,11.4624 C405.418673,12.6229391 406.425596,14.0053253 407.176533,15.6096 C407.92747,17.2138747 408.302933,19.0058568 408.302933,20.9856 C408.302933,23.5114793 407.910404,25.7301238 407.125333,27.6416 C406.340263,29.5530762 405.179741,31.3279918 403.643733,32.9664 C402.107726,34.6048082 400.179212,36.2261253 397.858133,37.8304 C395.537055,39.4346747 392.840549,41.1925238 389.768533,43.104 C387.242654,44.6058742 384.819212,46.2101248 382.498133,47.9168 C380.177055,49.6234752 378.094943,51.6031887 376.251733,53.856 C374.408524,56.1088113 372.889606,58.7541181 371.694933,61.792 C370.500261,64.8298819 369.732268,68.4991785 369.390933,72.8 L416.802133,72.8 L416.802133,65.12 L379.528533,65.12 C379.938135,62.8671887 380.808527,60.8704087 382.139733,59.1296 C383.47094,57.3887913 385.075191,55.7674742 386.952533,54.2656 C388.829876,52.7637258 390.894922,51.3472067 393.147733,50.016 C395.400545,48.6847933 397.653322,47.3365402 399.906133,45.9712 C402.158945,44.5375928 404.343456,43.0357412 406.459733,41.4656 C408.576011,39.8954588 410.453325,38.1376097 412.091733,36.192 C413.730142,34.2463903 415.044262,32.0448123 416.034133,29.5872 C417.024005,27.1295877 417.518933,24.2965494 417.518933,21.088 C417.518933,17.6746496 416.921606,14.6709463 415.726933,12.0768 C414.532261,9.4826537 412.910944,7.3152087 410.862933,5.5744 C408.814923,3.8335913 406.408547,2.50240461 403.643733,1.5808 C400.87892,0.659195392 397.926416,0.1984 394.786133,0.1984 C390.963181,0.1984 387.549882,0.846926848 384.546133,2.144 C381.542385,3.44107315 379.03361,5.23305523 377.019733,7.52 C375.005857,9.80694477 373.521071,12.5205176 372.565333,15.6608 C371.609595,18.8010824 371.234132,22.2143816 371.438933,25.9008 L371.438933,25.9008 Z" id="12"></path>
                    <path d="M175.786667,124 L175.786667,51.3984 L169.130667,51.3984 C168.652798,54.1290803 167.76534,56.3818578 166.468267,58.1568 C165.171194,59.9317422 163.584009,61.3311949 161.706667,62.3552 C159.829324,63.3792051 157.730145,64.0789315 155.409067,64.4544 C153.087988,64.8298685 150.698679,65.0176 148.241067,65.0176 L148.241067,71.9808 L167.082667,71.9808 L167.082667,124 L175.786667,124 Z M232.721067,124 L232.721067,51.3984 L226.065067,51.3984 C225.587198,54.1290803 224.69974,56.3818578 223.402667,58.1568 C222.105594,59.9317422 220.518409,61.3311949 218.641067,62.3552 C216.763724,63.3792051 214.664545,64.0789315 212.343467,64.4544 C210.022388,64.8298685 207.633079,65.0176 205.175467,65.0176 L205.175467,71.9808 L224.017067,71.9808 L224.017067,124 L232.721067,124 Z" id="11"></path>
                    <path d="M39.2533333,252 L39.2533333,179.3984 L32.5973333,179.3984 C32.1194643,182.12908 31.2320065,184.381858 29.9349333,186.1568 C28.6378602,187.931742 27.0506761,189.331195 25.1733333,190.3552 C23.2959906,191.379205 21.1968116,192.078931 18.8757333,192.4544 C16.5546551,192.829869 14.1653456,193.0176 11.7077333,193.0176 L11.7077333,199.9808 L30.5493333,199.9808 L30.5493333,252 L39.2533333,252 Z M73.2501333,216.2624 C73.2501333,214.487458 73.2671998,212.524811 73.3013333,210.3744 C73.3354668,208.223989 73.5061318,206.073611 73.8133333,203.9232 C74.1205349,201.772789 74.5642638,199.67361 75.1445333,197.6256 C75.7248029,195.57759 76.5781277,193.785608 77.7045333,192.2496 C78.830939,190.713592 80.2474581,189.467738 81.9541333,188.512 C83.6608085,187.556262 85.742921,187.0784 88.2005333,187.0784 C90.6581456,187.0784 92.7402581,187.556262 94.4469333,188.512 C96.1536085,189.467738 97.5701277,190.713592 98.6965333,192.2496 C99.822939,193.785608 100.676264,195.57759 101.256533,197.6256 C101.836803,199.67361 102.280532,201.772789 102.587733,203.9232 C102.894935,206.073611 103.0656,208.223989 103.099733,210.3744 C103.133867,212.524811 103.150933,214.487458 103.150933,216.2624 C103.150933,218.99308 103.065601,222.047983 102.894933,225.4272 C102.724266,228.806417 102.178138,231.980785 101.256533,234.9504 C100.334929,237.920015 98.8501436,240.42879 96.8021333,242.4768 C94.7541231,244.52481 91.8869518,245.5488 88.2005333,245.5488 C84.5141149,245.5488 81.6469436,244.52481 79.5989333,242.4768 C77.5509231,240.42879 76.0661379,237.920015 75.1445333,234.9504 C74.2229287,231.980785 73.6768009,228.806417 73.5061333,225.4272 C73.3354658,222.047983 73.2501333,218.99308 73.2501333,216.2624 L73.2501333,216.2624 Z M64.0341333,216.3648 C64.0341333,219.027213 64.1023993,221.791986 64.2389333,224.6592 C64.3754673,227.526414 64.7167973,230.32532 65.2629333,233.056 C65.8090694,235.78668 66.5941282,238.363721 67.6181333,240.7872 C68.6421385,243.210679 70.0415911,245.343991 71.8165333,247.1872 C73.5914755,249.030409 75.8271865,250.481061 78.5237333,251.5392 C81.2202801,252.597339 84.4458479,253.1264 88.2005333,253.1264 C92.0234858,253.1264 95.26612,252.597339 97.9285333,251.5392 C100.590947,250.481061 102.809591,249.030409 104.584533,247.1872 C106.359476,245.343991 107.758928,243.210679 108.782933,240.7872 C109.806938,238.363721 110.591997,235.78668 111.138133,233.056 C111.684269,230.32532 112.025599,227.526414 112.162133,224.6592 C112.298667,221.791986 112.366933,219.027213 112.366933,216.3648 C112.366933,213.702387 112.298667,210.937614 112.162133,208.0704 C112.025599,205.203186 111.684269,202.40428 111.138133,199.6736 C110.591997,196.94292 109.806938,194.348812 108.782933,191.8912 C107.758928,189.433588 106.359476,187.283209 104.584533,185.44 C102.809591,183.596791 100.57388,182.129072 97.8773333,181.0368 C95.1807865,179.944528 91.9552188,179.3984 88.2005333,179.3984 C84.4458479,179.3984 81.2202801,179.944528 78.5237333,181.0368 C75.8271865,182.129072 73.5914755,183.596791 71.8165333,185.44 C70.0415911,187.283209 68.6421385,189.433588 67.6181333,191.8912 C66.5941282,194.348812 65.8090694,196.94292 65.2629333,199.6736 C64.7167973,202.40428 64.3754673,205.203186 64.2389333,208.0704 C64.1023993,210.937614 64.0341333,213.702387 64.0341333,216.3648 L64.0341333,216.3648 Z" id="10"></path>
                    <path d="M10.8544,396.622933 L2.1504,396.622933 C2.69653606,402.903498 4.98344653,407.579718 9.0112,410.651733 C13.0389535,413.723749 18.0906363,415.259733 24.1664,415.259733 C32.972844,415.259733 39.37278,411.897634 43.3664,405.173333 C47.36002,398.449033 49.3568,388.806463 49.3568,376.245333 C49.3568,369.350366 48.6912067,363.667222 47.36,359.195733 C46.0287933,354.724244 44.2368113,351.19148 41.984,348.597333 C39.7311887,346.003187 37.1029484,344.177072 34.0992,343.118933 C31.0954516,342.060795 27.8869504,341.531733 24.4736,341.531733 C20.9919826,341.531733 17.7834813,342.111994 14.848,343.272533 C11.9125187,344.433072 9.38667725,346.05439 7.2704,348.136533 C5.15412275,350.218677 3.51573914,352.710385 2.3552,355.611733 C1.19466086,358.513081 0.6144,361.704516 0.6144,365.186133 C0.6144,368.736018 1.10932838,372.012785 2.0992,375.016533 C3.08907162,378.020282 4.55679027,380.580256 6.5024,382.696533 C8.44800973,384.812811 10.8543857,386.468261 13.7216,387.662933 C16.5888143,388.857606 19.8655816,389.454933 23.552,389.454933 C27.1018844,389.454933 30.3786516,388.550409 33.3824,386.741333 C36.3861484,384.932258 38.7071918,382.491749 40.3456,379.419733 L40.5504,379.624533 C40.277332,389.113647 38.8096133,396.16211 36.1472,400.770133 C33.4847867,405.378156 29.4912266,407.682133 24.1664,407.682133 C20.6847826,407.682133 17.6810793,406.72641 15.1552,404.814933 C12.6293207,402.903457 11.195735,400.172818 10.8544,396.622933 L10.8544,396.622933 Z M39.0144,365.800533 C39.0144,367.916811 38.6730701,369.947724 37.9904,371.893333 C37.3077299,373.838943 36.3178732,375.545593 35.0208,377.013333 C33.7237268,378.481074 32.1536092,379.641596 30.3104,380.494933 C28.4671908,381.348271 26.4192113,381.774933 24.1664,381.774933 C22.0501228,381.774933 20.1216087,381.348271 18.3808,380.494933 C16.6399913,379.641596 15.1381396,378.498141 13.8752,377.064533 C12.6122604,375.630926 11.6224036,373.992543 10.9056,372.149333 C10.1887964,370.306124 9.8304,368.394677 9.8304,366.414933 C9.8304,364.162122 10.0863974,362.011744 10.5984,359.963733 C11.1104026,357.915723 11.9295944,356.089608 13.056,354.485333 C14.1824056,352.881059 15.6501243,351.601071 17.4592,350.645333 C19.2682757,349.689595 21.4698537,349.211733 24.064,349.211733 C26.5216123,349.211733 28.6719908,349.655462 30.5152,350.542933 C32.3584092,351.430404 33.9114604,352.642126 35.1744,354.178133 C36.4373396,355.714141 37.3930634,357.47199 38.0416,359.451733 C38.6901366,361.431477 39.0144,363.547722 39.0144,365.800533 L39.0144,365.800533 Z" id="9"></path>
                    <path d="M47.1381333,539.573333 C47.1381333,537.730124 47.4794633,536.125873 48.1621333,534.760533 C48.8448034,533.395193 49.7493277,532.234671 50.8757333,531.278933 C52.002139,530.323195 53.3503921,529.606402 54.9205333,529.128533 C56.4906745,528.650664 58.1290581,528.411733 59.8357333,528.411733 C63.3856177,528.411733 66.3039886,529.350391 68.5909333,531.227733 C70.8778781,533.105076 72.0213333,535.886915 72.0213333,539.573333 C72.0213333,543.259752 70.8949446,546.126923 68.6421333,548.174933 C66.3893221,550.222944 63.5221507,551.246933 60.0405333,551.246933 C58.2655911,551.246933 56.5930745,551.008002 55.0229333,550.530133 C53.4527921,550.052264 52.0874725,549.335471 50.9269333,548.379733 C49.7663942,547.423995 48.8448034,546.212274 48.1621333,544.744533 C47.4794633,543.276793 47.1381333,541.553077 47.1381333,539.573333 L47.1381333,539.573333 Z M37.9221333,539.266133 C37.9221333,542.54295 38.8437241,545.56372 40.6869333,548.328533 C42.5301425,551.093347 44.987718,553.090127 48.0597333,554.318933 C43.9637129,555.752541 40.8234776,558.056517 38.6389333,561.230933 C36.4543891,564.405349 35.3621333,568.142912 35.3621333,572.443733 C35.3621333,576.130152 35.9935937,579.35572 37.2565333,582.120533 C38.519473,584.885347 40.2602556,587.189324 42.4789333,589.032533 C44.6976111,590.875743 47.308785,592.241062 50.3125333,593.128533 C53.3162817,594.016004 56.5589159,594.459733 60.0405333,594.459733 C63.3856167,594.459733 66.525852,593.981871 69.4613333,593.026133 C72.3968147,592.070395 74.9397226,590.653876 77.0901333,588.776533 C79.2405441,586.899191 80.9471937,584.595214 82.2101333,581.864533 C83.473073,579.133853 84.1045333,575.993618 84.1045333,572.443733 C84.1045333,567.938111 83.0464106,564.132282 80.9301333,561.026133 C78.8138561,557.919984 75.5712218,555.684273 71.2021333,554.318933 C74.2741487,552.953593 76.7146576,550.92268 78.5237333,548.226133 C80.332809,545.529587 81.2373333,542.54295 81.2373333,539.266133 C81.2373333,536.945055 80.8277374,534.675211 80.0085333,532.456533 C79.1893292,530.237856 77.909342,528.258142 76.1685333,526.517333 C74.4277246,524.776525 72.1578807,523.377072 69.3589333,522.318933 C66.559986,521.260795 63.1808198,520.731733 59.2213333,520.731733 C56.422386,520.731733 53.7429461,521.141329 51.1829333,521.960533 C48.6229205,522.779737 46.3530766,523.974392 44.3733333,525.544533 C42.3935901,527.114675 40.8234725,529.043189 39.6629333,531.330133 C38.5023942,533.617078 37.9221333,536.262385 37.9221333,539.266133 L37.9221333,539.266133 Z M44.5781333,572.853333 C44.5781333,570.737056 44.9706627,568.825609 45.7557333,567.118933 C46.5408039,565.412258 47.6330597,563.944539 49.0325333,562.715733 C50.432007,561.486927 52.0703906,560.54827 53.9477333,559.899733 C55.8250761,559.251197 57.8218561,558.926933 59.9381333,558.926933 C61.9861436,558.926933 63.9146576,559.28533 65.7237333,560.002133 C67.532809,560.718937 69.1199932,561.691727 70.4853333,562.920533 C71.8506735,564.149339 72.9258627,565.599992 73.7109333,567.272533 C74.4960039,568.945075 74.8885333,570.77119 74.8885333,572.750933 C74.8885333,574.798944 74.5301369,576.676258 73.8133333,578.382933 C73.0965297,580.089609 72.07254,581.574394 70.7413333,582.837333 C69.4101267,584.100273 67.840009,585.09013 66.0309333,585.806933 C64.2218576,586.523737 62.2250776,586.882133 60.0405333,586.882133 C55.5349108,586.882133 51.8314812,585.636279 48.9301333,583.144533 C46.0287855,580.652788 44.5781333,577.222422 44.5781333,572.853333 L44.5781333,572.853333 Z" id="8"></path>
                    <path d="M211.387733,648.9024 L211.387733,641.4272 L164.386133,641.4272 L164.386133,649.6192 L202.478933,649.6192 C198.655981,653.646953 195.089083,658.050109 191.778133,662.8288 C188.467183,667.607491 185.548813,672.67624 183.022933,678.0352 C180.497054,683.39416 178.432008,688.991971 176.827733,694.8288 C175.223459,700.665629 174.216535,706.655969 173.806933,712.8 L183.534933,712.8 C183.876268,707.133838 184.831992,701.297097 186.402133,695.2896 C187.972275,689.282103 190.003188,683.445362 192.494933,677.7792 C194.986679,672.113038 197.836784,666.788292 201.045333,661.8048 C204.253883,656.821308 207.701315,652.520551 211.387733,648.9024 L211.387733,648.9024 Z" id="7"></path>
                    <path d="M380.859733,709.9328 L389.563733,709.9328 C389.017597,703.925303 386.969618,699.334416 383.419733,696.16 C379.869849,692.985584 375.09123,691.3984 369.083733,691.3984 C363.895441,691.3984 359.594684,692.490656 356.181333,694.6752 C352.767983,696.859744 350.037344,699.761049 347.989333,703.3792 C345.941323,706.997351 344.490671,711.14451 343.637333,715.8208 C342.783996,720.49709 342.357333,725.326908 342.357333,730.3104 C342.357333,734.133352 342.647464,738.09278 343.227733,742.1888 C343.808003,746.28482 344.985591,750.03945 346.760533,753.4528 C348.535476,756.86615 351.061317,759.665056 354.338133,761.8496 C357.61495,764.034144 361.94984,765.1264 367.342933,765.1264 C371.916823,765.1264 375.756784,764.358408 378.862933,762.8224 C381.969082,761.286392 384.460791,759.340812 386.338133,756.9856 C388.215476,754.630388 389.563729,752.019214 390.382933,749.152 C391.202137,746.284786 391.611733,743.520013 391.611733,740.8576 C391.611733,737.512517 391.099738,734.406414 390.075733,731.5392 C389.051728,728.671986 387.601076,726.180277 385.723733,724.064 C383.846391,721.947723 381.525347,720.292273 378.760533,719.0976 C375.99572,717.902927 372.872551,717.3056 369.390933,717.3056 C365.431447,717.3056 361.932815,718.056526 358.894933,719.5584 C355.857051,721.060274 353.314144,723.483717 351.266133,726.8288 L351.061333,726.624 C351.1296,723.825053 351.402664,720.821349 351.880533,717.6128 C352.358402,714.404251 353.228794,711.417614 354.491733,708.6528 C355.754673,705.887986 357.512522,703.601076 359.765333,701.792 C362.018145,699.982924 364.987715,699.0784 368.674133,699.0784 C372.155751,699.0784 374.954656,700.068257 377.070933,702.048 C379.187211,704.027743 380.450131,706.655984 380.859733,709.9328 L380.859733,709.9328 Z M367.752533,724.9856 C370.210146,724.9856 372.360524,725.429329 374.203733,726.3168 C376.046943,727.204271 377.582927,728.381859 378.811733,729.8496 C380.040539,731.317341 380.945064,733.058123 381.525333,735.072 C382.105603,737.085877 382.395733,739.219189 382.395733,741.472 C382.395733,743.588277 382.07147,745.61919 381.422933,747.5648 C380.774397,749.51041 379.835739,751.234126 378.606933,752.736 C377.378127,754.237874 375.859209,755.415462 374.050133,756.2688 C372.241058,757.122138 370.141879,757.5488 367.752533,757.5488 C365.363188,757.5488 363.229876,757.122138 361.352533,756.2688 C359.475191,755.415462 357.905073,754.272007 356.642133,752.8384 C355.379194,751.404793 354.406403,749.698143 353.723733,747.7184 C353.041063,745.738657 352.699733,743.622411 352.699733,741.3696 C352.699733,739.116789 353.023997,736.983477 353.672533,734.9696 C354.32107,732.955723 355.29386,731.214941 356.590933,729.7472 C357.888006,728.279459 359.458124,727.118938 361.301333,726.2656 C363.144543,725.412262 365.294921,724.9856 367.752533,724.9856 L367.752533,724.9856 Z" id="6"></path>
                    <path d="M565.794133,649.1072 L565.794133,641.4272 L529.954133,641.4272 L523.195733,679.1104 L530.670933,679.52 C532.377609,677.47199 534.340256,675.81654 536.558933,674.5536 C538.777611,673.29066 541.320519,672.6592 544.187733,672.6592 C546.645346,672.6592 548.881057,673.068796 550.894933,673.888 C552.90881,674.707204 554.632526,675.850659 556.066133,677.3184 C557.499741,678.786141 558.609063,680.526923 559.394133,682.5408 C560.179204,684.554677 560.571733,686.756255 560.571733,689.1456 C560.571733,692.012814 560.162137,694.521589 559.342933,696.672 C558.523729,698.822411 557.414407,700.614393 556.014933,702.048 C554.61546,703.481607 552.977076,704.556796 551.099733,705.2736 C549.222391,705.990404 547.259744,706.3488 545.211733,706.3488 C543.027189,706.3488 541.030409,706.024537 539.221333,705.376 C537.412258,704.727463 535.84214,703.805873 534.510933,702.6112 C533.179727,701.416527 532.121604,700.017075 531.336533,698.4128 C530.551463,696.808525 530.090667,695.084809 529.954133,693.2416 L521.250133,693.2416 C521.3184,696.518416 521.966927,699.453854 523.195733,702.048 C524.424539,704.642146 526.097056,706.809591 528.213333,708.5504 C530.329611,710.291209 532.77012,711.622395 535.534933,712.544 C538.299747,713.465605 541.252251,713.9264 544.392533,713.9264 C548.625088,713.9264 552.328517,713.260807 555.502933,711.9296 C558.677349,710.598393 561.322656,708.806411 563.438933,706.5536 C565.555211,704.300789 567.142395,701.723748 568.200533,698.8224 C569.258672,695.921052 569.787733,692.934415 569.787733,689.8624 C569.787733,685.698113 569.173339,682.062949 567.944533,678.9568 C566.715727,675.850651 565.043211,673.256544 562.926933,671.1744 C560.810656,669.092256 558.318948,667.539205 555.451733,666.5152 C552.584519,665.491195 549.546683,664.9792 546.338133,664.9792 C543.880521,664.9792 541.405879,665.405862 538.914133,666.2592 C536.422388,667.112538 534.391475,668.426658 532.821333,670.2016 L532.616533,669.9968 L536.507733,649.1072 L565.794133,649.1072 Z" id="5"></path>
                    <path d="M680.379733,568.654933 L656.008533,568.654933 L680.174933,533.122133 L680.379733,533.122133 L680.379733,568.654933 Z M688.571733,568.654933 L688.571733,520.731733 L681.608533,520.731733 L648.533333,567.938133 L648.533333,576.334933 L680.379733,576.334933 L680.379733,593.333333 L688.571733,593.333333 L688.571733,576.334933 L698.402133,576.334933 L698.402133,568.654933 L688.571733,568.654933 Z" id="4"></path>
                    <path d="M710.656,372.661333 L710.656,380.034133 C712.294408,379.829332 714.035191,379.726933 715.8784,379.726933 C718.062944,379.726933 720.093857,380.017064 721.9712,380.597333 C723.848543,381.177603 725.46986,382.065061 726.8352,383.259733 C728.20054,384.454406 729.292796,385.922125 730.112,387.662933 C730.931204,389.403742 731.3408,391.400522 731.3408,393.653333 C731.3408,395.837878 730.914138,397.800525 730.0608,399.541333 C729.207462,401.282142 728.064007,402.749861 726.6304,403.944533 C725.196793,405.139206 723.524276,406.060797 721.6128,406.709333 C719.701324,407.35787 717.687477,407.682133 715.5712,407.682133 C710.587708,407.682133 706.798946,406.197348 704.2048,403.227733 C701.610654,400.258118 700.245334,396.418157 700.1088,391.707733 L691.4048,391.707733 C691.336533,395.462419 691.865594,398.807452 692.992,401.742933 C694.118406,404.678415 695.739723,407.153057 697.856,409.166933 C699.972277,411.18081 702.532252,412.699728 705.536,413.723733 C708.539748,414.747738 711.884782,415.259733 715.5712,415.259733 C718.98455,415.259733 722.210118,414.798938 725.248,413.877333 C728.285882,412.955729 730.931189,411.573343 733.184,409.730133 C735.436811,407.886924 737.228793,405.582947 738.56,402.818133 C739.891207,400.05332 740.5568,396.861885 740.5568,393.243733 C740.5568,388.874645 739.481611,385.085883 737.3312,381.877333 C735.180789,378.668784 731.886956,376.586671 727.4496,375.630933 L727.4496,375.426133 C730.316814,374.12906 732.706124,372.217613 734.6176,369.691733 C736.529076,367.165854 737.4848,364.26455 737.4848,360.987733 C737.4848,357.64265 736.921606,354.741346 735.7952,352.283733 C734.668794,349.826121 733.115743,347.812275 731.136,346.242133 C729.156257,344.671992 726.818147,343.494404 724.1216,342.709333 C721.425053,341.924263 718.506682,341.531733 715.3664,341.531733 C711.748249,341.531733 708.556814,342.111994 705.792,343.272533 C703.027186,344.433072 700.723209,346.037323 698.88,348.085333 C697.036791,350.133344 695.620272,352.590919 694.6304,355.458133 C693.640528,358.325348 693.077334,361.499716 692.9408,364.981333 L701.6448,364.981333 C701.6448,362.865056 701.917864,360.85121 702.464,358.939733 C703.010136,357.028257 703.846394,355.355741 704.9728,353.922133 C706.099206,352.488526 707.532791,351.345071 709.2736,350.491733 C711.014409,349.638396 713.045322,349.211733 715.3664,349.211733 C719.052818,349.211733 722.124788,350.184524 724.5824,352.130133 C727.040012,354.075743 728.2688,356.994114 728.2688,360.885333 C728.2688,362.79681 727.893337,364.503459 727.1424,366.005333 C726.391463,367.507208 725.38454,368.753062 724.1216,369.742933 C722.85866,370.732805 721.390942,371.483731 719.7184,371.995733 C718.045858,372.507736 716.288009,372.763733 714.4448,372.763733 L712.6016,372.763733 L711.5776,372.763733 C711.304532,372.763733 710.997335,372.7296 710.656,372.661333 L710.656,372.661333 Z" id="3"></path>
                    <path d="M641.6384,205.1008 L650.3424,205.1008 C650.274133,202.916256 650.495997,200.748811 651.008,198.5984 C651.520003,196.447989 652.356261,194.519475 653.5168,192.8128 C654.677339,191.106125 656.162124,189.723739 657.9712,188.6656 C659.780276,187.607461 661.947721,187.0784 664.4736,187.0784 C666.385076,187.0784 668.194125,187.385597 669.9008,188 C671.607475,188.614403 673.09226,189.501861 674.3552,190.6624 C675.61814,191.822939 676.625063,193.205325 677.376,194.8096 C678.126937,196.413875 678.5024,198.205857 678.5024,200.1856 C678.5024,202.711479 678.109871,204.930124 677.3248,206.8416 C676.539729,208.753076 675.379208,210.527992 673.8432,212.1664 C672.307192,213.804808 670.378678,215.426125 668.0576,217.0304 C665.736522,218.634675 663.040015,220.392524 659.968,222.304 C657.442121,223.805874 655.018678,225.410125 652.6976,227.1168 C650.376522,228.823475 648.294409,230.803189 646.4512,233.056 C644.607991,235.308811 643.089073,237.954118 641.8944,240.992 C640.699727,244.029882 639.931735,247.699178 639.5904,252 L687.0016,252 L687.0016,244.32 L649.728,244.32 C650.137602,242.067189 651.007993,240.070409 652.3392,238.3296 C653.670407,236.588791 655.274657,234.967474 657.152,233.4656 C659.029343,231.963726 661.094389,230.547207 663.3472,229.216 C665.600011,227.884793 667.852789,226.53654 670.1056,225.1712 C672.358411,223.737593 674.542923,222.235741 676.6592,220.6656 C678.775477,219.095459 680.652792,217.33761 682.2912,215.392 C683.929608,213.44639 685.243728,211.244812 686.2336,208.7872 C687.223472,206.329588 687.7184,203.496549 687.7184,200.288 C687.7184,196.87465 687.121073,193.870946 685.9264,191.2768 C684.731727,188.682654 683.11041,186.515209 681.0624,184.7744 C679.01439,183.033591 676.608014,181.702405 673.8432,180.7808 C671.078386,179.859195 668.125882,179.3984 664.9856,179.3984 C661.162648,179.3984 657.749348,180.046927 654.7456,181.344 C651.741852,182.641073 649.233077,184.433055 647.2192,186.72 C645.205323,189.006945 643.720538,191.720518 642.7648,194.8608 C641.809062,198.001082 641.433599,201.414382 641.6384,205.1008 L641.6384,205.1008 Z" id="2"></path>
                    <path d="M545.5872,124 L545.5872,51.3984 L538.9312,51.3984 C538.453331,54.1290803 537.565873,56.3818578 536.2688,58.1568 C534.971727,59.9317422 533.384543,61.3311949 531.5072,62.3552 C529.629857,63.3792051 527.530678,64.0789315 525.2096,64.4544 C522.888522,64.8298685 520.499212,65.0176 518.0416,65.0176 L518.0416,71.9808 L536.8832,71.9808 L536.8832,124 L545.5872,124 Z" id="1"></path>
                </g>
                <g id="Arrows" transform="translate(313.200000, 189.733333)">
                    <path d="M97.7351998,-3.50949024 C101.269822,-3.50949024 104.1352,-0.644112643 104.1352,2.89050976 L104.1352,263.157176 C104.1352,266.691799 101.269822,269.557176 97.7351998,269.557176 C94.2005774,269.557176 91.3351998,266.691799 91.3351998,263.157176 L91.3351998,2.89050976 C91.3351998,-0.644112643 94.2005774,-3.50949024 97.7351998,-3.50949024 Z" id="Arrow" fill="#2B2A2A" transform="translate(97.735200, 133.023843) rotate(-17.000000) translate(-97.735200, -133.023843) "></path>
                    <path d="M219.618379,228.718923 C222.676938,228.718923 225.15639,231.198375 225.15639,234.256934 C225.15639,234.264789 225.156373,234.272645 225.15634,234.2805 L223.526925,617.199778 C223.513838,620.275172 221.017055,622.761354 217.941632,622.761354 C214.883073,622.761354 212.403621,620.281902 212.403621,617.223343 C212.403621,617.215488 212.403638,617.207633 212.403671,617.199778 L214.033087,234.2805 C214.046173,231.205105 216.542957,228.718923 219.618379,228.718923 Z" id="Arrow" fill="#2B2A2A" transform="translate(218.780006, 425.740139) rotate(-27.000000) translate(-218.780006, -425.740139) "></path>
                    <path d="M77.9940322,184.375498 C80.3508519,184.375498 82.2618192,186.285345 82.2632017,188.642164 L82.5243155,633.758956 C82.525697,636.113989 80.6176858,638.02424 78.2626532,638.025621 C78.2618194,638.025622 78.2609856,638.025622 78.2601517,638.025622 C75.9033321,638.025622 73.9923647,636.115775 73.9909822,633.758956 L73.7298684,188.642164 C73.7284869,186.287131 75.6364981,184.37688 77.9915307,184.375499 C77.9923645,184.375498 77.9931984,184.375498 77.9940322,184.375498 Z" id="Arrow" fill="#FF9500" transform="translate(78.127092, 411.200560) rotate(19.000000) translate(-78.127092, -411.200560) "></path>
                    <circle id="Oval" fill="#2B2A2A" cx="131.533333" cy="255" r="21.3333333"></circle>
                    <circle id="Oval" fill="#FF9500" cx="131.533333" cy="255" r="12.8"></circle>
                </g>
            </g>
        </g>
    </g>
</svg>