<?xml version="1.0" encoding="UTF-8"?>
<svg width="1024px" height="1024px" viewBox="0 0 1024 1024" version="1.1" xmlns="http://www.w3.org/2000/svg" xmlns:xlink="http://www.w3.org/1999/xlink">
    <!-- Generator: Sketch 63.1 (92452) - https://sketch.com -->
    <title>App Icon / Apple / TestFlight /@SVG</title>
    <desc>Created with Sketch.</desc>
    <defs>
        <linearGradient x1="50%" y1="0%" x2="50%" y2="100%" id="linearGradient-1">
            <stop stop-color="#00DAFF" offset="0%"></stop>
            <stop stop-color="#1D84F3" offset="100%"></stop>
        </linearGradient>
    </defs>
    <g id="App-Icon-/-Apple-/-TestFlight-/" stroke="none" stroke-width="1" fill="none" fill-rule="evenodd">
        <rect id="Origin-Color" fill="url(#linearGradient-1)" x="0" y="0" width="1024" height="1024"></rect>
        <g id="Group" transform="translate(102.000000, 102.000000)">
            <circle id="Oval" stroke-opacity="0.3" stroke="#FFFFFF" stroke-width="29.997567" cx="410" cy="410" r="395.001216"></circle>
            <g id="Group-2" transform="translate(52.000000, 7.000000)" fill="#FFFFFF">
                <path d="M375.694397,3.80850906e-12 C402.424397,3.80850906e-12 405.631997,33.1261922 405.694397,53.3941441 L405.694397,54.004342 C405.694397,154.073702 400.149652,242.952758 389.060162,320.64151 C422.334824,333.19377 446,365.333236 446,403 C446,406.098403 445.839871,409.159406 445.527438,412.175185 C516.131931,440.841273 593.19086,479.202648 676.700722,527.258108 L680.040148,529.182952 C697.538709,539.285751 725.3074,558.782113 711.8074,582.164799 L693.8074,613.341714 C680.4424,636.490573 650.150476,622.70534 632.566715,612.625404 L632.038268,612.320305 C548.274552,563.959301 476.154428,516.339377 415.677897,469.460532 C400.234278,482.878756 380.065548,491 358,491 C335.797091,491 315.514689,482.77733 300.031875,469.211069 C240.2955,515.545799 169.179002,562.60673 86.6853217,610.391784 L83.348645,612.32139 C65.8500839,622.424189 35.0813931,636.7244 21.5813931,613.341714 L3.58139311,582.164799 C-9.78360689,559.01594 17.3007171,539.674981 34.8220783,529.486965 L35.3505252,529.181866 C120.377052,480.091778 198.743632,441.009871 270.450264,411.936145 C270.151808,408.998204 270,406.01683 270,403 C270,365.551506 293.391702,333.566438 326.360859,320.859039 C315.392457,244.118924 309.838035,156.450519 309.697147,57.856621 L309.694397,54.002171 C309.694397,33.796573 312.694397,3.80850906e-12 339.694397,3.80850906e-12 L375.694397,3.80850906e-12 Z M275.973897,434.93553 L273.885537,435.826355 C200.715822,467.100571 144.429773,494.047922 105.027703,516.668805 L49.9467212,548.467561 L73.9467212,590.036781 L127.640296,559.036781 C167.336154,536.118367 219.657265,500.295135 284.603631,451.567087 C281.166453,446.382068 278.263523,440.812137 275.973897,434.93553 Z M439.937073,435.157917 L439.609304,435.985195 C437.341295,441.591071 434.51244,446.910009 431.192308,451.872438 C495.197476,499.880283 546.921405,535.334582 586.36305,558.234629 L641.442072,590.036781 L665.442072,548.467561 L611.748497,517.467561 C572.006886,494.522732 514.736412,467.086184 439.937073,435.157917 Z M358,343 C355.859968,343 353.746104,343.112038 351.663953,343.330568 C351.45246,343.353545 351.240794,343.376875 351.029463,343.401305 L351.663953,343.330568 C351.169519,343.382461 350.676873,343.440359 350.186089,343.504188 L351.029463,343.401305 C350.702588,343.439091 350.376513,343.479505 350.051262,343.522526 L350.186089,343.504188 C349.912841,343.539725 349.64017,343.5771 349.368089,343.616302 L350.051262,343.522526 C349.650945,343.575475 349.251874,343.632373 348.854091,343.69318 L349.368089,343.616302 C349.070084,343.659238 348.772786,343.704364 348.476214,343.751664 L348.854091,343.69318 C348.580449,343.735009 348.307417,343.778688 348.035007,343.824203 L348.476214,343.751664 C348.191233,343.797115 347.90692,343.844573 347.623292,343.894022 L348.035007,343.824203 C347.720742,343.876711 347.407304,343.931663 347.094715,343.989039 L347.623292,343.894022 C347.37231,343.93778 347.121864,343.983097 346.871965,344.029964 L347.094715,343.989039 C346.825129,344.038522 346.556173,344.089807 346.287861,344.142881 L346.871965,344.029964 C346.552377,344.0899 346.233682,344.152369 345.915902,344.217351 L346.287861,344.142881 C345.910928,344.217442 345.535265,344.295535 345.160908,344.377124 C344.961386,344.420326 344.76185,344.464901 344.562691,344.510467 L345.160908,344.377124 C344.891464,344.435848 344.622696,344.496383 344.354618,344.558715 L344.562691,344.510467 C344.29811,344.571002 344.034196,344.633285 343.770961,344.697305 L344.354618,344.558715 C344.008885,344.639104 343.6643,344.722482 343.320891,344.808822 L343.770961,344.697305 C343.505853,344.761781 343.241433,344.828018 342.977716,344.896002 L343.320891,344.808822 C343.046814,344.87773 342.773486,344.948524 342.500923,345.02119 L342.977716,344.896002 C342.680779,344.972551 342.384732,345.051316 342.089594,345.132278 L342.500923,345.02119 C342.22281,345.095335 341.945493,345.171428 341.668987,345.249455 L342.089594,345.132278 C341.675533,345.245864 341.263261,345.363774 340.85283,345.485958 L341.668987,345.249455 C341.361142,345.336324 341.054303,345.42559 340.748489,345.51723 L340.85283,345.485958 C340.569461,345.570316 340.28697,345.656711 340.005373,345.745126 L340.748489,345.51723 C340.413656,345.617566 340.080053,345.720748 339.747708,345.826749 L340.005373,345.745126 C339.751134,345.824952 339.497624,345.906424 339.244855,345.989531 L339.747708,345.826749 C339.452582,345.920879 339.158449,346.017231 338.865327,346.115786 L339.244855,345.989531 C338.930049,346.093034 338.616394,346.199072 338.303913,346.30762 L338.865327,346.115786 C338.595519,346.206502 338.326568,346.299085 338.05849,346.393518 L338.303913,346.30762 C338.027708,346.403567 337.752422,346.501475 337.478069,346.601328 L338.05849,346.393518 C337.772348,346.494315 337.4872,346.59722 337.203065,346.702216 L337.478069,346.601328 C337.124981,346.729838 336.77344,346.861569 336.423482,346.996486 L337.203065,346.702216 C336.872377,346.824414 336.543062,346.949442 336.215147,347.077272 L336.423482,346.996486 C336.143929,347.104261 335.865385,347.214068 335.587869,347.325891 L336.215147,347.077272 C335.928887,347.188865 335.643694,347.302592 335.359589,347.418434 L335.587869,347.325891 C335.312514,347.436842 335.038171,347.549778 334.764858,347.664679 L335.359589,347.418434 C335.086723,347.529694 334.814859,347.642905 334.544017,347.75805 L334.764858,347.664679 C334.510902,347.771442 334.257835,347.879903 334.005672,347.990046 L334.544017,347.75805 C334.239732,347.887412 333.936736,348.019215 333.635052,348.153435 L334.005672,347.990046 C333.765124,348.095117 333.525398,348.201719 333.286506,348.30984 L333.635052,348.153435 C333.387256,348.263679 333.140346,348.375554 332.894335,348.489045 L333.286506,348.30984 C332.892185,348.488307 332.500138,348.670914 332.11042,348.857604 L332.894335,348.489045 C332.623881,348.613812 332.354513,348.740533 332.08625,348.869189 L332.11042,348.857604 C331.857101,348.978954 331.604766,349.10203 331.35343,349.226815 L332.08625,348.869189 C331.760886,349.025231 331.437147,349.18412 331.115065,349.345824 L331.35343,349.226815 C311.586295,359.040991 298,379.433871 298,403 L298.006878,403.917845 C298.008034,403.994946 298.009336,404.072012 298.010783,404.149042 C298.015393,404.394604 298.021494,404.640324 298.029068,404.885673 L298.010783,404.149042 C298.016565,404.456912 298.024666,404.764215 298.03507,405.070934 L298.029068,404.885673 C298.037526,405.159634 298.04782,405.433132 298.059939,405.706156 L298.03507,405.070934 C298.046635,405.411913 298.061046,405.752171 298.078279,406.091684 L298.059939,405.706156 C298.090808,406.401603 298.133516,407.093972 298.187866,407.783067 C298.198383,407.916412 298.20935,408.049813 298.220754,408.183089 L298.187866,407.783067 C298.211732,408.085659 298.237842,408.387621 298.266181,408.688934 L298.220754,408.183089 C298.245419,408.471354 298.272122,408.759037 298.300849,409.046124 L298.266181,408.688934 C298.296031,409.006313 298.328353,409.322972 298.363128,409.638893 L298.300849,409.046124 C298.330841,409.345852 298.363038,409.644931 298.397425,409.943343 L298.363128,409.638893 C298.437032,410.310289 298.522012,410.978349 298.617884,411.642888 C298.637673,411.780056 298.657938,411.917158 298.678667,412.054108 L298.617884,411.642888 C298.660781,411.940226 298.705857,412.236859 298.753098,412.53277 L298.678667,412.054108 C298.721044,412.334088 298.765356,412.613433 298.811589,412.892129 L298.753098,412.53277 C298.798967,412.820095 298.846877,413.106739 298.89681,413.392688 L298.811589,412.892129 C298.862459,413.198783 298.915655,413.504651 298.971158,413.809715 L298.89681,413.392688 C298.942278,413.653062 298.989425,413.912858 299.038238,414.172066 L298.971158,413.809715 C299.026172,414.112096 299.083453,414.413686 299.142982,414.714467 C299.190846,414.956297 299.240071,415.197169 299.290734,415.437511 L299.142982,414.714467 C299.214546,415.076056 299.289358,415.436476 299.367388,415.795696 L299.290734,415.437511 C299.356408,415.749061 299.424499,416.05972 299.494987,416.369467 L299.367388,415.795696 C299.418195,416.029591 299.470365,416.262977 299.523891,416.495845 L299.494987,416.369467 C299.563874,416.672181 299.635051,416.974024 299.708497,417.274977 L299.523891,416.495845 C299.598195,416.819111 299.675111,417.14138 299.754615,417.462627 L299.708497,417.274977 C299.864132,417.912709 300.02996,418.546445 300.205799,419.176005 C300.225334,419.245951 300.24513,419.316327 300.265051,419.386651 L300.205799,419.176005 C300.291486,419.482792 300.37955,419.788588 300.46997,420.09337 L300.265051,419.386651 C300.343939,419.665141 300.424787,419.942807 300.50758,420.219634 L300.46997,420.09337 C300.566641,420.419223 300.666004,420.743917 300.768035,421.067428 L301.040644,421.909892 C301.06292,421.977025 301.085311,422.044105 301.107817,422.111132 C301.183861,422.337598 301.26124,422.563525 301.339926,422.78884 L301.107817,422.111132 C301.206081,422.403774 301.30654,422.695409 301.409174,422.986017 L301.339926,422.78884 C301.428089,423.041293 301.517892,423.292977 301.609322,423.543879 L301.409174,422.986017 C301.509422,423.269871 301.611746,423.552744 301.716126,423.834619 L301.609322,423.543879 C303.0915,427.611286 305.001203,431.473179 307.284066,435.075195 L307.004551,434.629748 C307.221645,434.97903 307.442229,435.325918 307.666253,435.670364 C307.751665,435.801769 307.837757,435.933009 307.924349,436.06389 L307.666253,435.670364 C307.799029,435.874511 307.933014,436.077801 308.068197,436.280222 L307.924349,436.06389 C308.091564,436.31663 308.260641,436.56803 308.431561,436.81807 L308.068197,436.280222 C308.250048,436.552524 308.434067,436.823255 308.620231,437.092391 L308.431561,436.81807 C308.589114,437.048556 308.748232,437.277887 308.908901,437.506048 L308.620231,437.092391 C308.777716,437.320065 308.936735,437.546598 309.097274,437.771974 L308.908901,437.506048 C309.080735,437.750064 309.254343,437.992742 309.429705,438.234062 L309.097274,437.771974 C309.273856,438.019874 309.452277,438.266374 309.632517,438.511455 L309.429705,438.234062 C309.573631,438.432122 309.718739,438.629268 309.865019,438.825489 L309.632517,438.511455 C310.006188,439.019555 310.387675,439.521554 310.776801,440.017275 L310.652479,439.858369 C310.828033,440.08356 311.005159,440.307466 311.183839,440.530071 L310.776801,440.017275 C310.994265,440.29431 311.214115,440.569384 311.436319,440.842467 L311.183839,440.530071 C311.36656,440.757708 311.550906,440.983985 311.736861,441.208884 L311.436319,440.842467 C311.611346,441.057571 311.787835,441.271438 311.965769,441.484055 L311.736861,441.208884 C311.933864,441.447144 312.132673,441.683856 312.333265,441.919001 L311.965769,441.484055 C312.147848,441.701624 312.331441,441.917883 312.516531,442.132816 L312.333265,441.919001 C312.512421,442.129016 312.693,442.337781 312.874987,442.545279 L312.516531,442.132816 C312.715925,442.364358 312.917057,442.594362 313.119906,442.822806 L312.874987,442.545279 C313.327972,443.061764 313.789683,443.570405 314.259889,444.070973 C314.285823,444.098582 314.312305,444.126721 314.338814,444.154834 L314.259889,444.070973 C314.665752,444.503044 315.077945,444.9291 315.49632,445.348993 C315.553526,445.406409 315.611112,445.463971 315.668814,445.521417 L315.49632,445.348993 C315.717042,445.570517 315.939485,445.790326 316.163627,446.008397 L315.668814,445.521417 C315.869666,445.721376 316.071927,445.919921 316.27558,446.117037 L316.163627,446.008397 C316.352979,446.192621 316.543544,446.375605 316.735308,446.557336 L316.27558,446.117037 C316.498352,446.332658 316.72279,446.546568 316.948873,446.758746 L316.735308,446.557336 C317.226577,447.022904 317.725717,447.480249 318.232507,447.929152 C318.269209,447.961663 318.306068,447.994231 318.342968,448.026755 L318.232507,447.929152 C318.456308,448.12739 318.681602,448.323981 318.908368,448.518908 L318.342968,448.026755 C318.578635,448.234478 318.815946,448.44038 319.054878,448.644439 L318.908368,448.518908 C319.121712,448.702296 319.336359,448.88421 319.552295,449.064634 L319.054878,448.644439 C319.296221,448.850557 319.539218,449.054793 319.783847,449.257127 L319.552295,449.064634 C319.767818,449.244713 319.984624,449.423309 320.202697,449.600404 L319.783847,449.257127 C320.030505,449.461139 320.278823,449.663217 320.528777,449.863336 L320.202697,449.600404 C320.407246,449.766517 320.612911,449.93131 320.819677,450.09477 L320.528777,449.863336 C320.743654,450.035372 320.959741,450.205962 321.177021,450.375089 L320.819677,450.09477 C321.046653,450.274207 321.274956,450.452038 321.50457,450.628245 L321.177021,450.375089 C321.495619,450.62308 321.816784,450.867927 322.140469,451.109585 C332.144258,458.578212 344.555747,463 358,463 C371.138478,463 383.290636,458.777062 393.173193,451.614469 C393.171861,451.612923 393.171529,451.612653 393.171196,451.612383 C394.860533,450.388961 396.483445,449.07954 398.033569,447.690566 C398.0811,447.649455 398.127451,447.607776 398.173736,447.566026 L398.033569,447.690566 C398.233876,447.511083 398.432968,447.330271 398.630831,447.148144 L398.173736,447.566026 C398.380796,447.379254 398.586547,447.19106 398.790975,447.001459 L398.630831,447.148144 C398.830502,446.964354 399.02892,446.779226 399.226073,446.592773 L398.790975,447.001459 C399.044359,446.766452 399.29571,446.529284 399.544998,446.289983 L399.226073,446.592773 C399.720904,446.124797 400.207761,445.64848 400.68642,445.164045 C400.806957,445.042781 400.926999,444.920224 401.046517,444.797156 L400.68642,445.164045 C400.893943,444.954019 401.099925,444.742467 401.304348,444.529408 L401.046517,444.797156 C401.231041,444.607151 401.414317,444.41593 401.596334,444.223503 L401.304348,444.529408 C401.488063,444.337932 401.670518,444.145239 401.851702,443.951342 L401.596334,444.223503 C401.812628,443.994838 402.027143,443.764472 402.239857,443.532428 L401.851702,443.951342 C402.044788,443.744706 402.23643,443.536703 402.426611,443.327348 L402.239857,443.532428 C402.44026,443.313812 402.639065,443.093706 402.836251,442.872129 L402.426611,443.327348 C402.626226,443.107609 402.824231,442.886381 403.020608,442.663684 L402.836251,442.872129 C403.026927,442.657868 403.21609,442.442231 403.403724,442.225234 L403.020608,442.663684 C403.21599,442.442115 403.40976,442.219092 403.601901,441.994631 L403.403724,442.225234 C403.830386,441.731805 404.24914,441.231348 404.659789,440.72406 C404.766698,440.591866 404.873016,440.459396 404.978781,440.326467 L404.659789,440.72406 C404.849479,440.48973 405.037439,440.253943 405.223651,440.016717 L404.978781,440.326467 C405.141932,440.121413 405.303768,439.915265 405.464277,439.708037 L405.223651,440.016717 C405.407437,439.782582 405.589519,439.547045 405.76988,439.310127 L405.464277,439.708037 C405.652335,439.46524 405.838572,439.22096 406.022965,438.975217 L405.76988,439.310127 C405.932918,439.095962 406.094549,438.880667 406.254759,438.664257 L406.022965,438.975217 C406.185821,438.758177 406.34724,438.539996 406.507208,438.320689 L406.254759,438.664257 C406.84735,437.863791 407.420498,437.048061 407.973505,436.217766 C408.064685,436.080863 408.155021,435.944018 408.24481,435.806783 L407.973505,436.217766 C408.129495,435.983559 408.283883,435.748193 408.436652,435.511684 L408.24481,435.806783 C408.373789,435.609649 408.501639,435.411709 408.628352,435.212973 L408.436652,435.511684 C410.973461,431.584338 413.064053,427.341743 414.636709,422.855618 L414.891684,422.110828 C414.942284,421.960178 414.992301,421.809262 415.041734,421.658081 C415.092638,421.50406 415.142437,421.349582 415.191626,421.194832 L415.041734,421.658081 C415.123613,421.40767 415.203887,421.156534 415.282546,420.904685 L415.191626,421.194832 C415.27994,420.916987 415.366287,420.638265 415.450648,420.358682 L415.282546,420.904685 C415.371557,420.619692 415.458498,420.333785 415.543352,420.046983 L415.450648,420.358682 C415.532025,420.088989 415.611555,419.818495 415.689223,419.547215 L415.543352,420.046983 C415.678969,419.588607 415.809254,419.127945 415.934138,418.665067 C415.95725,418.580579 415.979932,418.495743 416.002433,418.410834 L415.934138,418.665067 C415.986891,418.469539 416.03868,418.273616 416.089499,418.077304 L416.002433,418.410834 C416.077282,418.128385 416.150122,417.845119 416.220938,417.561052 L416.089499,418.077304 C416.16274,417.794381 416.233967,417.510648 416.303165,417.226121 L416.220938,417.561052 C416.295289,417.262803 416.367408,416.963671 416.437277,416.663675 L416.303165,417.226121 C416.372793,416.939825 416.440367,416.652725 416.505869,416.364838 L416.437277,416.663675 C416.503939,416.377451 416.568551,416.09044 416.631099,415.802658 L416.505869,416.364838 C416.571733,416.075361 416.635503,415.785088 416.697162,415.494036 L416.697468,415.493349 C416.778994,415.107761 416.857107,414.720114 416.931464,414.331133 C416.965155,414.15548 416.997952,413.979604 417.02998,413.80346 L416.931464,414.331133 C416.988293,414.033847 417.042927,413.735782 417.09535,413.436956 L417.02998,413.80346 C417.082083,413.516909 417.132151,413.229649 417.180168,412.941695 L417.09535,413.436956 C417.144885,413.154588 417.192445,412.87154 417.238015,412.587828 L417.180168,412.941695 C417.22712,412.660126 417.272112,412.377893 417.315128,412.095011 L417.238015,412.587828 C417.29287,412.246314 417.344841,411.903838 417.393904,411.560423 C417.46914,411.034137 417.537569,410.50502 417.599059,409.973787 C417.616953,409.818962 417.63424,409.664383 417.650937,409.509628 L417.599059,409.973787 C417.630397,409.703047 417.659933,409.431757 417.687654,409.159931 L417.650937,409.509628 C417.680573,409.234966 417.708354,408.959747 417.734269,408.683987 L417.687654,409.159931 C417.71851,408.857371 417.747117,408.554145 417.77346,408.250272 L417.734269,408.683987 C417.761421,408.395069 417.786523,408.105556 417.809562,407.815462 L417.77346,408.250272 C417.834662,407.544273 417.883638,406.834775 417.920175,406.121991 C417.927281,405.983307 417.933916,405.844569 417.940079,405.705707 L417.920175,406.121991 C417.954519,405.451986 417.977872,404.779077 417.990057,404.103442 C417.991096,404.045848 417.992061,403.987802 417.992943,403.929736 L417.990057,404.103442 C417.994553,403.854167 417.997528,403.604521 417.998975,403.354513 L417.992943,403.929736 C417.997642,403.620386 418,403.310468 418,403 L417.997,402.665 L417.992223,402.024015 C417.99135,401.969285 417.990404,401.914573 417.989384,401.859879 C417.560176,378.816428 404.139426,358.949053 384.744152,349.275375 L384.64544,349.227749 L384.64544,349.227749 C384.256041,349.034338 383.864242,348.845038 383.470101,348.659903 C383.389461,348.620795 383.308361,348.582939 383.227162,348.545259 L383.470101,348.659903 C383.196821,348.53154 382.922415,348.405179 382.646902,348.28084 L383.227162,348.545259 C382.983796,348.432325 382.739546,348.320975 382.494425,348.211221 L382.646902,348.28084 C382.423968,348.180229 382.200309,348.080943 381.975935,347.98299 L382.494425,348.211221 C382.201988,348.080282 381.908312,347.951615 381.613419,347.825243 L381.975935,347.98299 C381.721205,347.871786 381.465554,347.7623 381.208996,347.654548 L381.613419,347.825243 C381.333232,347.705173 381.051947,347.587176 380.769583,347.471269 L381.208996,347.654548 C380.955364,347.548024 380.700844,347.443194 380.445453,347.340073 L380.769583,347.471269 C380.528991,347.37251 380.287615,347.275268 380.045467,347.179557 L380.445453,347.340073 C380.042464,347.177356 379.637304,347.018891 379.230027,346.864735 C379.111153,346.819163 378.992004,346.774514 378.872675,346.730233 L379.230027,346.864735 C378.980835,346.770415 378.73085,346.677708 378.480086,346.586626 L378.872675,346.730233 C378.601733,346.629691 378.329867,346.53105 378.057095,346.434327 L378.480086,346.586626 C378.209152,346.488218 377.937308,346.391708 377.664569,346.297111 L378.057095,346.434327 C377.788708,346.339159 377.519444,346.245847 377.249316,346.154406 L377.664569,346.297111 C377.390427,346.202028 377.115382,346.108878 376.83945,346.017677 L377.249316,346.154406 C376.912852,346.040509 376.575049,345.929516 376.235936,345.821456 L376.83945,346.017677 C376.574866,345.930227 376.309467,345.84457 376.043266,345.760719 L376.235936,345.821456 C375.897348,345.713563 375.557454,345.608594 375.216285,345.506579 L376.043266,345.760719 C375.650642,345.637047 375.256275,345.517304 374.860212,345.401539 L375.216285,345.506579 C374.956964,345.429038 374.696906,345.353203 374.436125,345.279088 L374.860212,345.401539 C374.563955,345.314945 374.26675,345.230577 373.968614,345.148453 L374.436125,345.279088 C374.149023,345.197493 373.861045,345.117982 373.572206,345.040572 L373.968614,345.148453 C373.69083,345.071934 373.412238,344.997364 373.132855,344.924757 L373.572206,345.040572 C373.274791,344.960864 372.976463,344.883384 372.677244,344.808152 L373.132855,344.924757 C372.871471,344.856829 372.609395,344.790619 372.346638,344.72614 L372.677244,344.808152 C371.994825,344.636572 371.307763,344.476681 370.616284,344.328705 C370.499715,344.303814 370.382867,344.279173 370.265895,344.254872 L370.616284,344.328705 C370.349521,344.271618 370.082101,344.216304 369.814036,344.162776 L370.265895,344.254872 C369.968,344.192984 369.669295,344.133305 369.369799,344.075854 L369.814036,344.162776 C369.517388,344.103541 369.21995,344.046493 368.92174,343.99165 L369.369799,344.075854 C369.07255,344.018834 368.77452,343.964008 368.475728,343.911394 L368.92174,343.99165 C368.606593,343.933692 368.290583,343.878196 367.973732,343.825184 L368.475728,343.911394 C368.209907,343.864585 367.943482,343.819526 367.676466,343.776231 L367.973732,343.825184 C367.624773,343.766799 367.274794,343.711427 366.923822,343.659094 L367.676466,343.776231 C367.335832,343.720998 366.994236,343.668634 366.651703,343.619163 C366.390116,343.581377 366.127816,343.545264 365.864982,343.510852 L366.651703,343.619163 C366.317243,343.570859 365.981891,343.525314 365.645669,343.482551 L365.864982,343.510852 C365.595864,343.475617 365.326185,343.442166 365.055956,343.41051 L365.645669,343.482551 C365.290306,343.437355 364.933973,343.395267 364.576697,343.356315 L365.055956,343.41051 C364.759272,343.375755 364.461926,343.343164 364.163935,343.312754 L364.576697,343.356315 C364.297039,343.325826 364.016803,343.297259 363.736003,343.270627 L364.163935,343.312754 C363.838468,343.279541 363.512231,343.248928 363.185245,343.220938 L363.736003,343.270627 C363.438707,343.242431 363.140779,343.216403 362.842234,343.192562 L363.185245,343.220938 C361.476277,343.074652 359.746856,343 358,343 Z M381.694397,57.002171 L333.694397,57.002171 L333.694397,119.002171 C333.694397,166.114943 338.832192,231.595333 349.107783,315.443342 C352.032282,315.15026 354.998593,315 358,315 C360.794987,315 363.559541,315.130302 366.287917,315.385164 C376.443092,232.510926 381.57789,167.583304 381.692436,120.603079 L381.694397,57.002171 Z" id="Combined-Shape"></path>
                <path d="M358.680451,369.73682 C358.698539,369.753615 358.715998,369.771075 358.732793,369.789162 L363.431174,374.848957 C364.118188,375.588818 364.5,376.561115 364.5,377.570761 L364.499609,396.499609 L383.429239,396.5 C384.438885,396.5 385.411182,396.881812 386.151043,397.568826 L391.210838,402.267207 C391.615548,402.643009 391.638983,403.27574 391.26318,403.680451 C391.246385,403.698539 391.228925,403.715998 391.210838,403.732793 L386.151043,408.431174 C385.411182,409.118188 384.438885,409.5 383.429239,409.5 L364.499609,409.499609 L364.5,428.429239 C364.5,429.438885 364.118188,430.411182 363.431174,431.151043 L358.732793,436.210838 C358.356991,436.615548 357.72426,436.638983 357.319549,436.26318 L357.267207,436.210838 L357.267207,436.210838 L352.568826,431.151043 C351.881812,430.411182 351.5,429.438885 351.5,428.429239 L351.499609,409.499609 L332.570761,409.5 C331.561115,409.5 330.588818,409.118188 329.848957,408.431174 L324.789162,403.732793 C324.384452,403.356991 324.361017,402.72426 324.73682,402.319549 C324.753615,402.301461 324.771075,402.284002 324.789162,402.267207 L329.848957,397.568826 C330.588818,396.881812 331.561115,396.5 332.570761,396.5 L351.499609,396.499609 L351.5,377.570761 C351.5,376.561115 351.881812,375.588818 352.568826,374.848957 L357.267207,369.789162 C357.643009,369.384452 358.27574,369.361017 358.680451,369.73682 Z" id="Combined-Shape" opacity="0.3" transform="translate(358.000000, 403.000000) rotate(45.000000) translate(-358.000000, -403.000000) "></path>
            </g>
        </g>
    </g>
</svg>