<?xml version="1.0" encoding="UTF-8"?>
<svg width="1024px" height="1024px" viewBox="0 0 1024 1024" version="1.1" xmlns="http://www.w3.org/2000/svg" xmlns:xlink="http://www.w3.org/1999/xlink">
    <title>App Icon / Apple / RealityComposer /@SVG</title>
    <defs>
        <path d="M0,-2.27373675e-13 L300,174 L300,522.5 L8.96907438,353.702063 C3.41728942,350.482028 7.8598041e-16,344.549519 0,338.131502 L0,-2.27373675e-13 L0,-2.27373675e-13 Z" id="path-1"></path>
        <path d="M0,-2.27373675e-13 L300,174 L300,522.5 L8.96907438,353.702063 C3.41728942,350.482028 7.8598041e-16,344.549519 0,338.131502 L0,-2.27373675e-13 L0,-2.27373675e-13 Z" id="path-3"></path>
        <path d="M305.512438,5.21292768 L593,171.5 L593,171.5 L296.5,343.5 L0,171.5 L287.487562,5.21292768 C293.0631,1.98795404 299.9369,1.98795404 305.512438,5.21292768 Z" id="path-5"></path>
    </defs>
    <g id="App-Icon-/-Apple-/-RealityComposer-/" stroke="none" stroke-width="1" fill="none" fill-rule="evenodd">
        <rect id="Origin-Color" fill="#000000" x="0" y="0" width="1024" height="1024"></rect>
        <path d="M511.995974,68 C520.83253,68 527.995974,75.163444 527.995974,84 L527.995,186.287 L616.579277,135.143594 C624.231959,130.725316 634.017405,133.347318 638.435683,141 C642.853961,148.652682 640.231959,158.438128 632.579277,162.856406 L523.708,225.712328 L519.496573,228.144183 C514.855274,230.824263 509.136665,230.824369 504.495267,228.14446 L500.283,225.712328 L391.412672,162.856406 C383.75999,158.438128 381.137987,148.652682 385.556265,141 C389.974543,133.347318 399.75999,130.725316 407.412672,135.143594 L495.995,186.286 L495.995974,84 C495.995974,75.163444 503.159418,68 511.995974,68 Z" id="Combined-Shape-Copy" fill="#FFCC00" transform="translate(511.995974, 149.077159) scale(1, -1) translate(-511.995974, -149.077159) "></path>
        <path d="M197.585974,612 C206.42253,612 213.585974,619.163444 213.585974,628 L213.585,730.287 L302.169277,679.143594 C309.821959,674.725316 319.607405,677.347318 324.025683,685 C328.443961,692.652682 325.821959,702.438128 318.169277,706.856406 L209.298,769.712328 L205.086573,772.144183 C200.445274,774.824263 194.726665,774.824369 190.085267,772.14446 L185.873,769.712328 L77.0026716,706.856406 C69.3499896,702.438128 66.7279871,692.652682 71.1462651,685 C75.5645431,677.347318 85.3499896,674.725316 93.0026716,679.143594 L181.585,730.286 L181.585974,628 C181.585974,619.163444 188.749418,612 197.585974,612 Z" id="Combined-Shape-Copy-4" fill="#FFCC00" transform="translate(197.585974, 693.077159) rotate(60.000000) translate(-197.585974, -693.077159) "></path>
        <rect id="Rectangle" fill="#FFFFFF" transform="translate(331.000000, 836.000000) rotate(30.000000) translate(-331.000000, -836.000000) " x="245" y="832" width="172" height="8" rx="4"></rect>
        <path d="M826.585974,613 C835.42253,613 842.585974,620.163444 842.585974,629 L842.585,731.287 L931.169277,680.143594 C938.821959,675.725316 948.607405,678.347318 953.025683,686 C957.443961,693.652682 954.821959,703.438128 947.169277,707.856406 L838.298,770.712328 L834.086573,773.144183 C829.445274,775.824263 823.726665,775.824369 819.085267,773.14446 L814.873,770.712328 L706.002672,707.856406 C698.34999,703.438128 695.727987,693.652682 700.146265,686 C704.564543,678.347318 714.34999,675.725316 722.002672,680.143594 L810.585,731.286 L810.585974,629 C810.585974,620.163444 817.749418,613 826.585974,613 Z" id="Combined-Shape-Copy-5" fill="#FFCC00" transform="translate(826.585974, 694.077159) rotate(-60.000000) translate(-826.585974, -694.077159) "></path>
        <rect id="Rectangle-Copy-9" fill="#FFFFFF" transform="translate(693.998185, 836.000000) scale(-1, 1) rotate(30.000000) translate(-693.998185, -836.000000) " x="607.998185" y="832" width="172" height="8" rx="4"></rect>
        <g id="Group-3" transform="translate(212.500000, 170.500000)">
            <g id="Group" transform="translate(0.000000, 169.500000)">
                <mask id="mask-2" fill="white">
                    <use xlink:href="#path-1"></use>
                </mask>
                <use id="Rectangle" fill="#D4D4D4" xlink:href="#path-1"></use>
                <rect id="Rectangle" fill="#C5C5C5" mask="url(#mask-2)" x="93" y="41.5485391" width="8" height="368"></rect>
                <rect id="Rectangle-Copy" fill="#C5C5C5" mask="url(#mask-2)" x="196" y="103.548539" width="8" height="368"></rect>
                <polygon id="Rectangle" fill="#C5C5C5" mask="url(#mask-2)" points="0 111.548539 300 284.439945 300 292.439945 0 119.548539"></polygon>
                <polygon id="Rectangle-Copy-2" fill="#C5C5C5" mask="url(#mask-2)" points="0 231.548539 300 404.439945 300 412.439945 0 239.548539"></polygon>
            </g>
            <g id="Group-Copy" transform="translate(450.000000, 431.000000) scale(-1, 1) translate(-450.000000, -431.000000) translate(300.000000, 169.500000)">
                <mask id="mask-4" fill="white">
                    <use xlink:href="#path-3"></use>
                </mask>
                <use id="Rectangle" fill="#D4D4D4" xlink:href="#path-3"></use>
                <rect id="Rectangle" fill="#C5C5C5" mask="url(#mask-4)" x="93" y="41.5485391" width="8" height="368"></rect>
                <rect id="Rectangle-Copy" fill="#C5C5C5" mask="url(#mask-4)" x="196" y="103.548539" width="8" height="368"></rect>
                <polygon id="Rectangle" fill="#C5C5C5" mask="url(#mask-4)" points="0 111.548539 300 284.439945 300 292.439945 0 119.548539"></polygon>
                <polygon id="Rectangle-Copy-2" fill="#C5C5C5" mask="url(#mask-4)" points="0 231.548539 300 404.439945 300 412.439945 0 239.548539"></polygon>
            </g>
            <g id="Group-2" transform="translate(3.500000, 0.000000)">
                <mask id="mask-6" fill="white">
                    <use xlink:href="#path-5"></use>
                </mask>
                <use id="Rectangle" fill="#D4D4D4" xlink:href="#path-5"></use>
                <polygon id="Rectangle" fill="#C5C5C5" mask="url(#mask-6)" points="93 106.5 401.5 284.5 401.5 292.5 93 114.5"></polygon>
                <polygon id="Rectangle-Copy-14" fill="#C5C5C5" mask="url(#mask-6)" points="88.4965423 225.172631 398.455509 46.5 398.455509 54.5 88.4965423 233.172631"></polygon>
                <polygon id="Rectangle-Copy-15" fill="#C5C5C5" mask="url(#mask-6)" points="188.75 286.172631 498.708967 107.5 498.708967 115.5 188.75 294.172631"></polygon>
                <polygon id="Rectangle-Copy-3" fill="#C5C5C5" mask="url(#mask-6)" points="194 46.5 502.5 224.5 502.5 232.5 194 54.5"></polygon>
            </g>
        </g>
        <path d="M879,441 L887,441 L887,586 C887,588.209139 885.209139,590 883,590 C880.790861,590 879,588.209139 879,586 L879,441 L879,441 Z" id="Rectangle-Copy-8" fill="#FFFFFF"></path>
        <rect id="Rectangle-Copy-13" fill="#FFFFFF" transform="translate(702.000000, 196.000000) rotate(30.000000) translate(-702.000000, -196.000000) " x="616" y="192" width="172" height="8" rx="4"></rect>
        <path d="M826.585974,249 C835.42253,249 842.585974,256.163444 842.585974,265 L842.585,367.287 L931.169277,316.143594 C938.821959,311.725316 948.607405,314.347318 953.025683,322 C957.443961,329.652682 954.821959,339.438128 947.169277,343.856406 L838.298,406.712328 L834.086573,409.144183 C829.445274,411.824263 823.726665,411.824369 819.085267,409.14446 L814.873,406.712328 L706.002672,343.856406 C698.34999,339.438128 695.727987,329.652682 700.146265,322 C704.564543,314.347318 714.34999,311.725316 722.002672,316.143594 L810.585,367.286 L810.585974,265 C810.585974,256.163444 817.749418,249 826.585974,249 Z" id="Combined-Shape-Copy-2" fill="#FFCC00" transform="translate(826.585974, 330.077159) rotate(-120.000000) translate(-826.585974, -330.077159) "></path>
        <rect id="Rectangle-Copy-11" fill="#FFFFFF" transform="translate(690.000000, 411.000000) scale(-1, 1) rotate(30.000000) translate(-690.000000, -411.000000) " x="604" y="407" width="172" height="8" rx="4"></rect>
        <path d="M512,794 C520.836556,794 528,801.163444 528,810 L527.999026,912.287 L616.583302,861.143594 C624.235984,856.725316 634.021431,859.347318 638.439709,867 C642.857987,874.652682 640.235984,884.438128 632.583302,888.856406 L523.712026,951.712328 L519.500599,954.144183 C514.8593,956.824263 509.14069,956.824369 504.499293,954.14446 L500.287026,951.712328 L391.416698,888.856406 C383.764016,884.438128 381.142013,874.652682 385.560291,867 C389.978569,859.347318 399.764016,856.725316 407.416698,861.143594 L495.999026,912.286 L496,810 C496,801.163444 503.163444,794 512,794 Z" id="Combined-Shape" fill="#FFCC00"></path>
        <path d="M137,441 L145,441 L145,586 C145,588.209139 143.209139,590 141,590 C138.790861,590 137,588.209139 137,586 L137,441 L137,441 Z" id="Rectangle" fill="#FFFFFF"></path>
        <path d="M508,656 L516,656 L516,801 C516,803.209139 514.209139,805 512,805 C509.790861,805 508,803.209139 508,801 L508,656 L508,656 Z" id="Rectangle-Copy-7" fill="#FFFFFF"></path>
        <rect id="Rectangle-Copy-12" fill="#FFFFFF" transform="translate(321.000000, 196.000000) scale(-1, 1) rotate(30.000000) translate(-321.000000, -196.000000) " x="235" y="192" width="172" height="8" rx="4"></rect>
        <path d="M197.585974,249 C206.42253,249 213.585974,256.163444 213.585974,265 L213.585,367.287 L302.169277,316.143594 C309.821959,311.725316 319.607405,314.347318 324.025683,322 C328.443961,329.652682 325.821959,339.438128 318.169277,343.856406 L209.298,406.712328 L205.086573,409.144183 C200.445274,411.824263 194.726665,411.824369 190.085267,409.14446 L185.873,406.712328 L77.0026716,343.856406 C69.3499896,339.438128 66.7279871,329.652682 71.1462651,322 C75.5645431,314.347318 85.3499896,311.725316 93.0026716,316.143594 L181.585,367.286 L181.585974,265 C181.585974,256.163444 188.749418,249 197.585974,249 Z" id="Combined-Shape-Copy-3" fill="#FFCC00" transform="translate(197.585974, 330.077159) rotate(120.000000) translate(-197.585974, -330.077159) "></path>
        <rect id="Rectangle-Copy-10" fill="#FFFFFF" transform="translate(335.000000, 411.000000) rotate(30.000000) translate(-335.000000, -411.000000) " x="249" y="407" width="172" height="8" rx="4"></rect>
        <path d="M638.439709,438 C642.857987,445.652682 640.235984,455.438128 632.583302,459.856406 L527.999026,520.237328 L528,641 C528,649.836556 520.836556,657 512,657 C503.163444,657 496,649.836556 496,641 L495.999026,520.237328 L391.416698,459.856406 C383.764016,455.438128 381.142013,445.652682 385.560291,438 C389.978569,430.347318 399.764016,427.725316 407.416698,432.143594 L512.000026,492.524328 L616.583302,432.143594 C624.235984,427.725316 634.021431,430.347318 638.439709,438 Z" id="Combined-Shape" fill="#FFCC00"></path>
    </g>
</svg>