<?xml version="1.0" encoding="UTF-8"?>
<svg width="1024px" height="1024px" viewBox="0 0 1024 1024" version="1.1" xmlns="http://www.w3.org/2000/svg" xmlns:xlink="http://www.w3.org/1999/xlink">
    <!-- Generator: Sketch 63.1 (92452) - https://sketch.com -->
    <title>App Icon / Apple / Trailers /@SVG</title>
    <desc>Created with Sketch.</desc>
    <defs>
        <linearGradient x1="50%" y1="0%" x2="50%" y2="100%" id="linearGradient-1">
            <stop stop-color="#F74D43" offset="0%"></stop>
            <stop stop-color="#C3220F" offset="100%"></stop>
        </linearGradient>
        <linearGradient x1="50%" y1="0%" x2="50%" y2="100%" id="linearGradient-2">
            <stop stop-color="#FEF5D9" offset="0%"></stop>
            <stop stop-color="#DAB582" offset="100%"></stop>
        </linearGradient>
    </defs>
    <g id="App-Icon-/-Apple-/-Trailers-/" stroke="none" stroke-width="1" fill="none" fill-rule="evenodd">
        <rect id="Origin-Color" fill="url(#linearGradient-1)" x="0" y="0" width="1024" height="1024"></rect>
        <path d="M895.999762,288 L895.999762,442.023211 C895.999778,451.191296 890.072798,459.290236 881.370677,462.080907 L881.001339,462.195652 L881.001339,462.195652 C859.594339,468.633356 843.999762,488.495524 843.999762,512 C843.999762,535.270605 859.285549,554.971023 880.364071,561.608204 L881.004578,561.805322 L881.004578,561.805322 C889.905863,564.48156 895.99978,572.677131 895.999762,581.972029 L895.999762,736 L127.999762,736 L127.999762,581.853913 C127.999783,572.772609 133.967168,564.788394 142.639995,562.197667 L143.002919,562.092853 L143.002919,562.092853 C164.920237,555.979004 181,535.867317 181,512 C181,488.43694 165.327588,468.534367 143.838247,462.147765 L143.185284,461.958379 L143.185284,461.958379 C134.201681,459.416812 127.999765,451.216881 127.999762,441.880678 L127.999762,288 L895.999762,288 Z M240,320 L224,320 L224,704 L240,704 L240,320 Z M800,320 L784,320 L784,704 L800,704 L800,320 Z M664,386 L360,386 L360,638 L664,638 L664,386 Z M652,590 L652,626 L608,626 L608,590 L652,590 Z M596,518 L596,626 L428,626 L428,518 L596,518 Z M416,590 L416,626 L372,626 L372,590 L416,590 Z M652,542 L652,578 L608,578 L608,542 L652,542 Z M416,542 L416,578 L372,578 L372,542 L416,542 Z M652,494 L652,530 L608,530 L608,494 L652,494 Z M416,494 L416,530 L372,530 L371.999,494 L416,494 Z M596,398 L596,506 L428,506 L428,398 L596,398 Z M652,446 L652,482 L608,482 L608,446 L652,446 Z M416,446 L416,482 L371.999,482 L371.999,446 L416,446 Z M652,398 L652,434 L608,434 L608,398 L652,398 Z M416,398 L416,434 L371.999,434 L371.999,398 L416,398 Z" id="Combined-Shape" fill="url(#linearGradient-2)"></path>
    </g>
</svg>