<?xml version="1.0" encoding="UTF-8"?>
<svg width="1024px" height="1024px" viewBox="0 0 1024 1024" version="1.1" xmlns="http://www.w3.org/2000/svg" xmlns:xlink="http://www.w3.org/1999/xlink">
    <!-- Generator: Sketch 63.1 (92452) - https://sketch.com -->
    <title>App Icon / Apple / News /@SVG</title>
    <desc>Created with Sketch.</desc>
    <defs>
        <linearGradient x1="50%" y1="0%" x2="50%" y2="100%" id="linearGradient-1">
            <stop stop-color="#FB5764" offset="0%"></stop>
            <stop stop-color="#FB3858" offset="100%"></stop>
        </linearGradient>
    </defs>
    <g id="App-Icon-/-Apple-/-News-/" stroke="none" stroke-width="1" fill="none" fill-rule="evenodd">
        <rect id="Origin-Color" fill="#FFFFFF" x="0" y="0" width="1024" height="1024"></rect>
        <path d="M537.455844,141.455844 L600.405592,204.405592 C608.469656,212.469656 613,223.406874 613,234.811183 L613,789.188817 C613,800.593126 608.469656,811.530344 600.405592,819.594408 L537.455844,882.544156 C523.39697,896.60303 500.60303,896.60303 486.544156,882.544156 L423.594408,819.594408 C415.530344,811.530344 411,800.593126 411,789.188817 L411,234.811183 C411,223.406874 415.530344,212.469656 423.594408,204.405592 L486.544156,141.455844 C500.60303,127.39697 523.39697,127.39697 537.455844,141.455844 Z M296.81951,337.460512 C298.013342,338.654277 298.425331,340.422589 297.882041,342.021071 C297.775484,342.33459 297.672781,342.638805 297.57393,342.933715 C280.588092,393.608911 271,451.085399 271,512 C271,570.389912 279.809779,625.6208 295.49997,674.730567 C296.304322,677.248159 297.320679,680.266877 298.549043,683.786722 C299.276931,685.872495 298.176158,688.153423 296.090388,688.88132 C294.640778,689.387209 293.029527,689.01872 291.943906,687.933032 L289.591368,685.580349 C289.29379,685.282752 289.002649,684.991593 288.717945,684.706872 L282.684565,678.673117 C250.683514,646.670083 203.614008,599.597658 141.476047,537.455844 C127.417172,523.39697 127.417172,500.60303 141.476047,486.544156 C206.406551,421.610023 255.429083,372.584752 288.54364,339.468344 L290.551185,337.460687 L290.551185,337.460687 C292.282087,335.729688 295.088512,335.72961 296.81951,337.460512 Z M732.121894,336.133692 L734.366226,338.37815 L734.366226,338.37815 C767.290166,371.303929 816.676075,420.692598 882.523953,486.544156 C896.582828,500.60303 896.582828,523.39697 882.523953,537.455844 L876.619898,543.360266 C814.119197,605.864842 766.847093,653.139876 734.803586,685.18537 L733.807184,686.181834 L733.807184,686.181834 C732.030063,687.959064 729.148693,687.959154 727.371462,686.182033 C726.147957,684.958604 725.724095,683.147175 726.277691,681.507884 L726.364968,681.248958 L726.364968,681.248958 L726.450375,680.99455 C743.420954,630.33685 753,572.885859 753,512 C753,451.312977 743.483417,394.038424 726.616138,343.501969 C726.290138,342.525231 725.923071,341.449508 725.514939,340.2748 C724.789919,338.188021 725.893847,335.908609 727.980627,335.183592 C729.429051,334.680362 731.03768,335.049417 732.121894,336.133692 Z" id="Combined-Shape" fill="url(#linearGradient-1)" transform="translate(512.000000, 512.000000) rotate(-45.000000) translate(-512.000000, -512.000000) "></path>
    </g>
</svg>