<?xml version="1.0" encoding="UTF-8"?>
<svg width="1024px" height="1024px" viewBox="0 0 1024 1024" version="1.1" xmlns="http://www.w3.org/2000/svg" xmlns:xlink="http://www.w3.org/1999/xlink">
    <!-- Generator: Sketch 63.1 (92452) - https://sketch.com -->
    <title>App Icon / Apple / Notes /@SVG</title>
    <desc>Created with Sketch.</desc>
    <defs>
        <linearGradient x1="50%" y1="0%" x2="50%" y2="100%" id="linearGradient-1">
            <stop stop-color="#FFDB4C" offset="0%"></stop>
            <stop stop-color="#FFCD02" offset="100%"></stop>
        </linearGradient>
        <rect id="path-2" x="0" y="1.13686838e-13" width="1024" height="316"></rect>
        <filter x="-6.6%" y="-10.8%" width="113.3%" height="143.0%" filterUnits="objectBoundingBox" id="filter-3">
            <feOffset dx="0" dy="34" in="SourceAlpha" result="shadowOffsetOuter1"></feOffset>
            <feGaussianBlur stdDeviation="17" in="shadowOffsetOuter1" result="shadowBlurOuter1"></feGaussianBlur>
            <feColorMatrix values="0 0 0 0 0   0 0 0 0 0   0 0 0 0 0  0 0 0 0.1 0" type="matrix" in="shadowBlurOuter1" result="shadowMatrixOuter1"></feColorMatrix>
            <feOffset dx="0" dy="17" in="SourceAlpha" result="shadowOffsetOuter2"></feOffset>
            <feColorMatrix values="0 0 0 0 0   0 0 0 0 0   0 0 0 0 0  0 0 0 0.3 0" type="matrix" in="shadowOffsetOuter2" result="shadowMatrixOuter2"></feColorMatrix>
            <feMerge>
                <feMergeNode in="shadowMatrixOuter1"></feMergeNode>
                <feMergeNode in="shadowMatrixOuter2"></feMergeNode>
            </feMerge>
        </filter>
        <filter x="-4.2%" y="-2.7%" width="108.3%" height="126.9%" filterUnits="objectBoundingBox" id="filter-4">
            <feOffset dx="0" dy="17" in="SourceAlpha" result="shadowOffsetInner1"></feOffset>
            <feComposite in="shadowOffsetInner1" in2="SourceAlpha" operator="arithmetic" k2="-1" k3="1" result="shadowInnerInner1"></feComposite>
            <feColorMatrix values="0 0 0 0 1   0 0 0 0 0.878431373   0 0 0 0 0.4  0 0 0 1 0" type="matrix" in="shadowInnerInner1" result="shadowMatrixInner1"></feColorMatrix>
            <feOffset dx="0" dy="-17" in="SourceAlpha" result="shadowOffsetInner2"></feOffset>
            <feComposite in="shadowOffsetInner2" in2="SourceAlpha" operator="arithmetic" k2="-1" k3="1" result="shadowInnerInner2"></feComposite>
            <feColorMatrix values="0 0 0 0 0.874509804   0 0 0 0 0.698039216   0 0 0 0 0.00392156863  0 0 0 1 0" type="matrix" in="shadowInnerInner2" result="shadowMatrixInner2"></feColorMatrix>
            <feMerge>
                <feMergeNode in="shadowMatrixInner1"></feMergeNode>
                <feMergeNode in="shadowMatrixInner2"></feMergeNode>
            </feMerge>
        </filter>
        <path d="M17.0666667,392.533333 C21.7794968,392.533333 25.6,388.71283 25.6,384 C25.6,379.28717 21.7794968,375.466667 17.0666667,375.466667 C12.3538366,375.466667 8.53333333,379.28717 8.53333333,384 C8.53333333,388.71283 12.3538366,392.533333 17.0666667,392.533333 Z M51.2,392.533333 C55.9128301,392.533333 59.7333333,388.71283 59.7333333,384 C59.7333333,379.28717 55.9128301,375.466667 51.2,375.466667 C46.4871699,375.466667 42.6666667,379.28717 42.6666667,384 C42.6666667,388.71283 46.4871699,392.533333 51.2,392.533333 Z M85.3333333,392.533333 C90.0461634,392.533333 93.8666667,388.71283 93.8666667,384 C93.8666667,379.28717 90.0461634,375.466667 85.3333333,375.466667 C80.6205032,375.466667 76.8,379.28717 76.8,384 C76.8,388.71283 80.6205032,392.533333 85.3333333,392.533333 Z M119.466667,392.533333 C124.179497,392.533333 128,388.71283 128,384 C128,379.28717 124.179497,375.466667 119.466667,375.466667 C114.753837,375.466667 110.933333,379.28717 110.933333,384 C110.933333,388.71283 114.753837,392.533333 119.466667,392.533333 Z M153.6,392.533333 C158.31283,392.533333 162.133333,388.71283 162.133333,384 C162.133333,379.28717 158.31283,375.466667 153.6,375.466667 C148.88717,375.466667 145.066667,379.28717 145.066667,384 C145.066667,388.71283 148.88717,392.533333 153.6,392.533333 Z M187.733333,392.533333 C192.446163,392.533333 196.266667,388.71283 196.266667,384 C196.266667,379.28717 192.446163,375.466667 187.733333,375.466667 C183.020503,375.466667 179.2,379.28717 179.2,384 C179.2,388.71283 183.020503,392.533333 187.733333,392.533333 Z M221.866667,392.533333 C226.579497,392.533333 230.4,388.71283 230.4,384 C230.4,379.28717 226.579497,375.466667 221.866667,375.466667 C217.153837,375.466667 213.333333,379.28717 213.333333,384 C213.333333,388.71283 217.153837,392.533333 221.866667,392.533333 Z M256,392.533333 C260.71283,392.533333 264.533333,388.71283 264.533333,384 C264.533333,379.28717 260.71283,375.466667 256,375.466667 C251.28717,375.466667 247.466667,379.28717 247.466667,384 C247.466667,388.71283 251.28717,392.533333 256,392.533333 Z M290.133333,392.533333 C294.846163,392.533333 298.666667,388.71283 298.666667,384 C298.666667,379.28717 294.846163,375.466667 290.133333,375.466667 C285.420503,375.466667 281.6,379.28717 281.6,384 C281.6,388.71283 285.420503,392.533333 290.133333,392.533333 Z M324.266667,392.533333 C328.979497,392.533333 332.8,388.71283 332.8,384 C332.8,379.28717 328.979497,375.466667 324.266667,375.466667 C319.553837,375.466667 315.733333,379.28717 315.733333,384 C315.733333,388.71283 319.553837,392.533333 324.266667,392.533333 Z M358.4,392.533333 C363.11283,392.533333 366.933333,388.71283 366.933333,384 C366.933333,379.28717 363.11283,375.466667 358.4,375.466667 C353.68717,375.466667 349.866667,379.28717 349.866667,384 C349.866667,388.71283 353.68717,392.533333 358.4,392.533333 Z M392.533333,392.533333 C397.246163,392.533333 401.066667,388.71283 401.066667,384 C401.066667,379.28717 397.246163,375.466667 392.533333,375.466667 C387.820503,375.466667 384,379.28717 384,384 C384,388.71283 387.820503,392.533333 392.533333,392.533333 Z M426.666667,392.533333 C431.379497,392.533333 435.2,388.71283 435.2,384 C435.2,379.28717 431.379497,375.466667 426.666667,375.466667 C421.953837,375.466667 418.133333,379.28717 418.133333,384 C418.133333,388.71283 421.953837,392.533333 426.666667,392.533333 Z M460.8,392.533333 C465.51283,392.533333 469.333333,388.71283 469.333333,384 C469.333333,379.28717 465.51283,375.466667 460.8,375.466667 C456.08717,375.466667 452.266667,379.28717 452.266667,384 C452.266667,388.71283 456.08717,392.533333 460.8,392.533333 Z M494.933333,392.533333 C499.646163,392.533333 503.466667,388.71283 503.466667,384 C503.466667,379.28717 499.646163,375.466667 494.933333,375.466667 C490.220503,375.466667 486.4,379.28717 486.4,384 C486.4,388.71283 490.220503,392.533333 494.933333,392.533333 Z M529.066667,392.533333 C533.779497,392.533333 537.6,388.71283 537.6,384 C537.6,379.28717 533.779497,375.466667 529.066667,375.466667 C524.353837,375.466667 520.533333,379.28717 520.533333,384 C520.533333,388.71283 524.353837,392.533333 529.066667,392.533333 Z M563.2,392.533333 C567.91283,392.533333 571.733333,388.71283 571.733333,384 C571.733333,379.28717 567.91283,375.466667 563.2,375.466667 C558.48717,375.466667 554.666667,379.28717 554.666667,384 C554.666667,388.71283 558.48717,392.533333 563.2,392.533333 Z M597.333333,392.533333 C602.046163,392.533333 605.866667,388.71283 605.866667,384 C605.866667,379.28717 602.046163,375.466667 597.333333,375.466667 C592.620503,375.466667 588.8,379.28717 588.8,384 C588.8,388.71283 592.620503,392.533333 597.333333,392.533333 Z M631.466667,392.533333 C636.179497,392.533333 640,388.71283 640,384 C640,379.28717 636.179497,375.466667 631.466667,375.466667 C626.753837,375.466667 622.933333,379.28717 622.933333,384 C622.933333,388.71283 626.753837,392.533333 631.466667,392.533333 Z M665.6,392.533333 C670.31283,392.533333 674.133333,388.71283 674.133333,384 C674.133333,379.28717 670.31283,375.466667 665.6,375.466667 C660.88717,375.466667 657.066667,379.28717 657.066667,384 C657.066667,388.71283 660.88717,392.533333 665.6,392.533333 Z M699.733333,392.533333 C704.446163,392.533333 708.266667,388.71283 708.266667,384 C708.266667,379.28717 704.446163,375.466667 699.733333,375.466667 C695.020503,375.466667 691.2,379.28717 691.2,384 C691.2,388.71283 695.020503,392.533333 699.733333,392.533333 Z M733.866667,392.533333 C738.579497,392.533333 742.4,388.71283 742.4,384 C742.4,379.28717 738.579497,375.466667 733.866667,375.466667 C729.153837,375.466667 725.333333,379.28717 725.333333,384 C725.333333,388.71283 729.153837,392.533333 733.866667,392.533333 Z M768,392.533333 C772.71283,392.533333 776.533333,388.71283 776.533333,384 C776.533333,379.28717 772.71283,375.466667 768,375.466667 C763.28717,375.466667 759.466667,379.28717 759.466667,384 C759.466667,388.71283 763.28717,392.533333 768,392.533333 Z M802.133333,392.533333 C806.846163,392.533333 810.666667,388.71283 810.666667,384 C810.666667,379.28717 806.846163,375.466667 802.133333,375.466667 C797.420503,375.466667 793.6,379.28717 793.6,384 C793.6,388.71283 797.420503,392.533333 802.133333,392.533333 Z M836.266667,392.533333 C840.979497,392.533333 844.8,388.71283 844.8,384 C844.8,379.28717 840.979497,375.466667 836.266667,375.466667 C831.553837,375.466667 827.733333,379.28717 827.733333,384 C827.733333,388.71283 831.553837,392.533333 836.266667,392.533333 Z M870.4,392.533333 C875.11283,392.533333 878.933333,388.71283 878.933333,384 C878.933333,379.28717 875.11283,375.466667 870.4,375.466667 C865.68717,375.466667 861.866667,379.28717 861.866667,384 C861.866667,388.71283 865.68717,392.533333 870.4,392.533333 Z M904.533333,392.533333 C909.246163,392.533333 913.066667,388.71283 913.066667,384 C913.066667,379.28717 909.246163,375.466667 904.533333,375.466667 C899.820503,375.466667 896,379.28717 896,384 C896,388.71283 899.820503,392.533333 904.533333,392.533333 Z M938.666667,392.533333 C943.379497,392.533333 947.2,388.71283 947.2,384 C947.2,379.28717 943.379497,375.466667 938.666667,375.466667 C933.953837,375.466667 930.133333,379.28717 930.133333,384 C930.133333,388.71283 933.953837,392.533333 938.666667,392.533333 Z M972.8,392.533333 C977.51283,392.533333 981.333333,388.71283 981.333333,384 C981.333333,379.28717 977.51283,375.466667 972.8,375.466667 C968.08717,375.466667 964.266667,379.28717 964.266667,384 C964.266667,388.71283 968.08717,392.533333 972.8,392.533333 Z M1006.93333,392.533333 C1011.64616,392.533333 1015.46667,388.71283 1015.46667,384 C1015.46667,379.28717 1011.64616,375.466667 1006.93333,375.466667 C1002.2205,375.466667 998.4,379.28717 998.4,384 C998.4,388.71283 1002.2205,392.533333 1006.93333,392.533333 Z" id="path-5"></path>
        <filter x="-0.8%" y="-49.8%" width="101.7%" height="299.2%" filterUnits="objectBoundingBox" id="filter-6">
            <feOffset dx="0" dy="17" in="SourceAlpha" result="shadowOffsetOuter1"></feOffset>
            <feColorMatrix values="0 0 0 0 1   0 0 0 0 1   0 0 0 0 1  0 0 0 0.1 0" type="matrix" in="shadowOffsetOuter1"></feColorMatrix>
        </filter>
    </defs>
    <g id="App-Icon-/-Apple-/-Notes-/" stroke="none" stroke-width="1" fill="none" fill-rule="evenodd">
        <rect id="Bottom" fill="#FFFFFF" x="0" y="299" width="1024" height="725"></rect>
        <rect id="Top" fill="#FFCC00" x="0" y="0" width="1024" height="299"></rect>
        <g id="Template"></g>
        <g id="Notes-Icon">
            <path d="M1024,793 L1024,801.5 L0,801.5 L0,793 L1024,793 Z M1024,563 L1024,571.5 L0,571.5 L0,563 L1024,563 Z" id="Shape" fill-opacity="0.29" fill="#000000"></path>
            <g id="Top">
                <use fill="black" fill-opacity="1" filter="url(#filter-3)" xlink:href="#path-2"></use>
                <use fill="url(#linearGradient-1)" fill-rule="evenodd" xlink:href="#path-2"></use>
                <use fill="black" fill-opacity="1" filter="url(#filter-4)" xlink:href="#path-2"></use>
            </g>
            <g id="Dots-Line">
                <use fill="black" fill-opacity="1" filter="url(#filter-6)" xlink:href="#path-5"></use>
                <use fill="#AAAAAA" fill-rule="evenodd" xlink:href="#path-5"></use>
            </g>
        </g>
    </g>
</svg>