<?xml version="1.0" encoding="UTF-8"?>
<svg width="1024px" height="1024px" viewBox="0 0 1024 1024" version="1.1" xmlns="http://www.w3.org/2000/svg" xmlns:xlink="http://www.w3.org/1999/xlink">
    <!-- Generator: Sketch 63.1 (92452) - https://sketch.com -->
    <title>App Icon / Apple / Numbers /@SVG</title>
    <desc>Created with Sketch.</desc>
    <defs>
        <linearGradient x1="50%" y1="0%" x2="50%" y2="100%" id="linearGradient-1">
            <stop stop-color="#67FF81" offset="0%"></stop>
            <stop stop-color="#01B41F" offset="100%"></stop>
        </linearGradient>
    </defs>
    <g id="App-Icon-/-Apple-/-Numbers-/" stroke="none" stroke-width="1" fill="none" fill-rule="evenodd">
        <rect id="Origin-Color" fill="url(#linearGradient-1)" x="0" y="0" width="1024" height="1024"></rect>
        <g id="Template"></g>
        <path d="M869,805 C876.731986,805 883,811.268014 883,819 C883,826.731986 876.731986,833 869,833 L155,833 C147.268014,833 141,826.731986 141,819 C141,811.268014 147.268014,805 155,805 L869,805 Z M301,658 C305.418278,658 309,661.581722 309,666 L309,767 C309,771.418278 305.418278,775 301,775 L154,775 C149.581722,775 146,771.418278 146,767 L146,666 C146,661.581722 149.581722,658 154,658 L301,658 Z M490,504 C494.418278,504 498,507.581722 498,512 L498,767 C498,771.418278 494.418278,775 490,775 L343,775 C338.581722,775 335,771.418278 335,767 L335,512 C335,507.581722 338.581722,504 343,504 L490,504 Z M679,197 C683.418278,197 687,200.581722 687,205 L687,767 C687,771.418278 683.418278,775 679,775 L532,775 C527.581722,775 524,771.418278 524,767 L524,205 C524,200.581722 527.581722,197 532,197 L679,197 Z M868,367 C872.418278,367 876,370.581722 876,375 L876,767 C876,771.418278 872.418278,775 868,775 L721,775 C716.581722,775 713,771.418278 713,767 L713,375 C713,370.581722 716.581722,367 721,367 L868,367 Z" id="Numbers" fill="#FFFFFF"></path>
    </g>
</svg>