<?xml version="1.0" encoding="UTF-8"?>
<svg width="1024px" height="1024px" viewBox="0 0 1024 1024" version="1.1" xmlns="http://www.w3.org/2000/svg" xmlns:xlink="http://www.w3.org/1999/xlink">
    <!-- Generator: Sketch 63.1 (92452) - https://sketch.com -->
    <title>App Icon / Apple / iTunesU /@SVG</title>
    <desc>Created with Sketch.</desc>
    <defs>
        <linearGradient x1="50%" y1="0%" x2="50%" y2="100%" id="linearGradient-1">
            <stop stop-color="#FFA700" offset="0%"></stop>
            <stop stop-color="#F9661E" offset="100%"></stop>
        </linearGradient>
    </defs>
    <g id="App-Icon-/-Apple-/-iTunesU-/" stroke="none" stroke-width="1" fill="none" fill-rule="evenodd">
        <rect id="Origin-Color" fill="url(#linearGradient-1)" x="0" y="0" width="1024" height="1024"></rect>
        <g id="Template"></g>
        <path d="M296,692 C310.359403,692 322,703.640597 322,718 L322,822 L270,822 L270,718 C270,703.640597 281.640597,692 296,692 Z M723.491426,521.537988 C762.567629,557.719009 792.900973,603.774062 810.815313,655.905239 C795.309856,653.984841 779.519939,653 763.5,653 C668.173917,653 580.992457,687.871276 514.016023,745.553426 L511.999323,747.300988 L509.983977,745.553426 C453.824879,697.187496 383.460309,664.859119 306.000048,655.678077 L305.999323,523.678988 L512,604 L723.491426,521.537988 Z M285.998586,535.846984 L285.999371,653.836475 C277.571225,653.281745 269.068515,653 260.5,653 C244.480348,653 228.690709,653.984806 213.188323,655.897179 C228.817558,610.414811 253.901638,569.55706 285.998586,535.846984 Z M512,239 L948,410.001471 L512,580 L311.012,501.634 L489.355822,431.435618 C495.599136,434.22747 503.122853,435.896765 511.237538,435.995371 L512,436 C534.09139,436 552,424.359403 552,410 C552,395.640597 534.09139,384 512,384 C489.90861,384 472,395.640597 472,410 C472,412.136427 472.396429,414.212671 473.144081,416.199346 L473.32283,416.656207 L283.428,490.878 L76,410.001471 L512,239 Z" id="Combined-Shape" fill="#FFFFFF"></path>
    </g>
</svg>