<?xml version="1.0" encoding="UTF-8"?>
<svg width="1024px" height="1024px" viewBox="0 0 1024 1024" version="1.1" xmlns="http://www.w3.org/2000/svg" xmlns:xlink="http://www.w3.org/1999/xlink">
    <!-- Generator: Sketch 63.1 (92452) - https://sketch.com -->
    <title>App Icon / Apple / Safari /@SVG</title>
    <desc>Created with Sketch.</desc>
    <defs>
        <linearGradient x1="50%" y1="0%" x2="50%" y2="100%" id="linearGradient-1">
            <stop stop-color="#23D9FD" offset="0%"></stop>
            <stop stop-color="#1F63F0" offset="100%"></stop>
        </linearGradient>
        <polygon id="path-2" points="-3.63797881e-13 443.733333 56.2094856 886.723848 119.466667 443.733333 -3.63797881e-13 443.733333 55.4666667 1.57645748e-12 119.466667 443.733333"></polygon>
    </defs>
    <g id="App-Icon-/-Apple-/-Safari-/" stroke="none" stroke-width="1" fill="none" fill-rule="evenodd">
        <rect id="Origin-Color" fill="#FFFFFF" x="0" y="0" width="1024" height="1024"></rect>
        <g id="Safari-Icon" transform="translate(63.000000, 68.000000)">
            <circle id="Oval" fill="url(#linearGradient-1)" cx="449" cy="444" r="444"></circle>
            <path d="M440.466667,34.4 L449,34.4 L449,111.2 L440.466667,111.2 L440.466667,34.4 L440.466667,34.4 Z M511.65778,39.8818455 L520.061473,41.3636433 L506.725293,116.996879 L498.3216,115.515081 L511.65778,39.8818455 L511.65778,39.8818455 Z M580.815429,57.6426166 L588.834139,60.5611885 L562.566992,132.729582 L554.548282,129.81101 L580.815429,57.6426166 L580.815429,57.6426166 Z M645.838292,87.1426613 L653.228375,91.4093279 L614.828375,157.920079 L607.438292,153.653412 L645.838292,87.1426613 L645.838292,87.1426613 Z M704.750682,127.485636 L711.287595,132.970757 L661.921506,191.80297 L655.384594,186.317849 L704.750682,127.485636 L704.750682,127.485636 Z M755.762577,177.445739 L761.247698,183.982651 L702.415484,233.34874 L696.930364,226.811827 L755.762577,177.445739 L755.762577,177.445739 Z M797.324005,235.504958 L801.590672,242.895042 L735.079921,281.295042 L730.813254,273.904958 L797.324005,235.504958 L797.324005,235.504958 Z M828.172145,299.899194 L831.090717,307.917904 L758.922323,334.185051 L756.003752,326.166341 L828.172145,299.899194 L828.172145,299.899194 Z M847.36969,368.67186 L848.851488,377.075553 L773.218252,390.411733 L771.736455,382.00804 L847.36969,368.67186 L847.36969,368.67186 Z M854.333333,439.733333 L854.333333,448.266667 L777.533333,448.266667 L777.533333,439.733333 L854.333333,439.733333 L854.333333,439.733333 Z M848.851488,510.924447 L847.36969,519.32814 L771.736455,505.99196 L773.218252,497.588267 L848.851488,510.924447 L848.851488,510.924447 Z M831.090717,580.082096 L828.172145,588.100806 L756.003752,561.833659 L758.922323,553.814949 L831.090717,580.082096 L831.090717,580.082096 Z M801.590672,645.104958 L797.324005,652.495042 L730.813254,614.095042 L735.079921,606.704958 L801.590672,645.104958 L801.590672,645.104958 Z M761.247698,704.017349 L755.762577,710.554261 L696.930364,661.188173 L702.415484,654.65126 L761.247698,704.017349 L761.247698,704.017349 Z M711.287595,755.029243 L704.750682,760.514364 L655.384594,701.682151 L661.921506,696.19703 L711.287595,755.029243 L711.287595,755.029243 Z M653.228375,796.590672 L645.838292,800.857339 L607.438292,734.346588 L614.828375,730.079921 L653.228375,796.590672 L653.228375,796.590672 Z M588.834139,827.438812 L580.815429,830.357383 L554.548282,758.18899 L562.566992,755.270418 L588.834139,827.438812 L588.834139,827.438812 Z M520.061473,846.636357 L511.65778,848.118155 L498.3216,772.484919 L506.725293,771.003121 L520.061473,846.636357 L520.061473,846.636357 Z M449,853.6 L440.466667,853.6 L440.466667,776.8 L449,776.8 L449,853.6 L449,853.6 Z M377.808886,848.118155 L369.405193,846.636357 L382.741373,771.003121 L391.145066,772.484919 L377.808886,848.118155 L377.808886,848.118155 Z M308.651238,830.357383 L300.632527,827.438812 L326.899674,755.270418 L334.918385,758.18899 L308.651238,830.357383 L308.651238,830.357383 Z M243.628375,800.857339 L236.238292,796.590672 L274.638292,730.079921 L282.028375,734.346588 L243.628375,800.857339 L243.628375,800.857339 Z M184.715985,760.514364 L178.179072,755.029243 L227.545161,696.19703 L234.082073,701.682151 L184.715985,760.514364 L184.715985,760.514364 Z M133.70409,710.554261 L128.218969,704.017349 L187.051182,654.65126 L192.536303,661.188173 L133.70409,710.554261 L133.70409,710.554261 Z M92.1426613,652.495042 L87.8759946,645.104958 L154.386746,606.704958 L158.653412,614.095042 L92.1426613,652.495042 L92.1426613,652.495042 Z M61.2945218,588.100806 L58.3759499,580.082096 L130.544343,553.814949 L133.462915,561.833659 L61.2945218,588.100806 L61.2945218,588.100806 Z M42.0969766,519.32814 L40.6151788,510.924447 L116.248414,497.588267 L117.730212,505.99196 L42.0969766,519.32814 L42.0969766,519.32814 Z M35.1333333,448.266667 L35.1333333,439.733333 L111.933333,439.733333 L111.933333,448.266667 L35.1333333,448.266667 L35.1333333,448.266667 Z M40.6151788,377.075553 L42.0969766,368.67186 L117.730212,382.00804 L116.248414,390.411733 L40.6151788,377.075553 L40.6151788,377.075553 Z M58.3759499,307.917904 L61.2945218,299.899194 L133.462915,326.166341 L130.544343,334.185051 L58.3759499,307.917904 L58.3759499,307.917904 Z M87.8759946,242.895042 L92.1426613,235.504958 L158.653412,273.904958 L154.386746,281.295042 L87.8759946,242.895042 L87.8759946,242.895042 Z M128.218969,183.982651 L133.70409,177.445739 L192.536303,226.811827 L187.051182,233.34874 L128.218969,183.982651 L128.218969,183.982651 Z M178.179072,132.970757 L184.715985,127.485636 L234.082073,186.317849 L227.545161,191.80297 L178.179072,132.970757 L178.179072,132.970757 Z M236.238292,91.4093279 L243.628375,87.1426613 L282.028375,153.653412 L274.638292,157.920079 L236.238292,91.4093279 L236.238292,91.4093279 Z M300.632527,60.5611885 L308.651238,57.6426166 L334.918385,129.81101 L326.899674,132.729582 L300.632527,60.5611885 L300.632527,60.5611885 Z M369.405193,41.3636433 L377.808886,39.8818455 L391.145066,115.515081 L382.741373,116.996879 L369.405193,41.3636433 L369.405193,41.3636433 Z" id="Scale" fill="#FFFFFF"></path>
            <path d="M449,810.933333 L449,853.6 L440.466667,853.6 L440.466667,810.933333 L449,810.933333 Z M512.652484,804.617893 L520.061473,846.636357 L511.65778,848.118155 L504.248792,806.09969 L512.652484,804.617893 Z M376.814182,804.617893 L385.217875,806.09969 L377.808886,848.118155 L369.405193,846.636357 L376.814182,804.617893 Z M574.24128,787.34526 L588.834139,827.438812 L580.815429,830.357383 L566.222569,790.263832 L574.24128,787.34526 Z M315.225387,787.34526 L323.244097,790.263832 L308.651238,830.357383 L300.632527,827.438812 L315.225387,787.34526 Z M631.895042,759.640255 L653.228375,796.590672 L645.838292,800.857339 L624.504958,763.906921 L631.895042,759.640255 Z M257.571625,759.640255 L264.961708,763.906921 L243.628375,800.857339 L236.238292,796.590672 L257.571625,759.640255 Z M683.86199,722.344681 L711.287595,755.029243 L704.750682,760.514364 L677.325077,727.829801 L683.86199,722.344681 Z M205.604677,722.344681 L212.141589,727.829801 L184.715985,760.514364 L178.179072,755.029243 L205.604677,722.344681 Z M728.563135,676.591744 L761.247698,704.017349 L755.762577,710.554261 L723.078014,683.128657 L728.563135,676.591744 Z M160.903532,676.591744 L166.388653,683.128657 L133.70409,710.554261 L128.218969,704.017349 L160.903532,676.591744 Z M764.640255,623.771625 L801.590672,645.104958 L797.324005,652.495042 L760.373588,631.161708 L764.640255,623.771625 Z M124.826412,623.771625 L129.093079,631.161708 L92.1426613,652.495042 L87.8759946,645.104958 L124.826412,623.771625 Z M790.997165,565.489236 L831.090717,580.082096 L828.172145,588.100806 L788.078593,573.507946 L790.997165,565.489236 Z M98.4695017,565.489236 L101.388074,573.507946 L61.2945218,588.100806 L58.3759499,580.082096 L98.4695017,565.489236 Z M806.833024,503.515458 L848.851488,510.924447 L847.36969,519.32814 L805.351226,511.919151 L806.833024,503.515458 Z M82.6336429,503.515458 L84.1154407,511.919151 L42.0969766,519.32814 L40.6151788,510.924447 L82.6336429,503.515458 Z M854.333333,439.733333 L854.333333,448.266667 L811.666667,448.266667 L811.666667,439.733333 L854.333333,439.733333 Z M77.8,439.733333 L77.8,448.266667 L35.1333333,448.266667 L35.1333333,439.733333 L77.8,439.733333 Z M847.36969,368.67186 L848.851488,377.075553 L806.833024,384.484542 L805.351226,376.080849 L847.36969,368.67186 Z M42.0969766,368.67186 L84.1154407,376.080849 L82.6336429,384.484542 L40.6151788,377.075553 L42.0969766,368.67186 Z M828.172145,299.899194 L831.090717,307.917904 L790.997165,322.510764 L788.078593,314.492054 L828.172145,299.899194 Z M61.2945218,299.899194 L101.388074,314.492054 L98.4695017,322.510764 L58.3759499,307.917904 L61.2945218,299.899194 Z M797.324005,235.504958 L801.590672,242.895042 L764.640255,264.228375 L760.373588,256.838292 L797.324005,235.504958 Z M92.1426613,235.504958 L129.093079,256.838292 L124.826412,264.228375 L87.8759946,242.895042 L92.1426613,235.504958 Z M755.762577,177.445739 L761.247698,183.982651 L728.563135,211.408256 L723.078014,204.871343 L755.762577,177.445739 Z M133.70409,177.445739 L166.388653,204.871343 L160.903532,211.408256 L128.218969,183.982651 L133.70409,177.445739 Z M704.750682,127.485636 L711.287595,132.970757 L683.86199,165.655319 L677.325077,160.170199 L704.750682,127.485636 Z M184.715985,127.485636 L212.141589,160.170199 L205.604677,165.655319 L178.179072,132.970757 L184.715985,127.485636 Z M645.838292,87.1426613 L653.228375,91.4093279 L631.895042,128.359745 L624.504958,124.093079 L645.838292,87.1426613 Z M243.628375,87.1426613 L264.961708,124.093079 L257.571625,128.359745 L236.238292,91.4093279 L243.628375,87.1426613 Z M580.815429,57.6426166 L588.834139,60.5611885 L574.24128,100.65474 L566.222569,97.7361684 L580.815429,57.6426166 Z M308.651238,57.6426166 L323.244097,97.7361684 L315.225387,100.65474 L300.632527,60.5611885 L308.651238,57.6426166 Z M511.65778,39.8818455 L520.061473,41.3636433 L512.652484,83.3821074 L504.248792,81.9003096 L511.65778,39.8818455 Z M377.808886,39.8818455 L385.217875,81.9003096 L376.814182,83.3821074 L369.405193,41.3636433 L377.808886,39.8818455 Z M449,34.4 L449,77.0666667 L440.466667,77.0666667 L440.466667,34.4 L449,34.4 Z" id="Scale" fill="#FFFFFF" transform="translate(444.733333, 444.000000) rotate(5.000000) translate(-444.733333, -444.000000) "></path>
            <g id="Compass" transform="translate(449.353553, 444.023570) rotate(45.000000) translate(-449.353553, -444.023570) translate(389.353553, 0.523570)">
                <mask id="mask-3" fill="white">
                    <use xlink:href="#path-2"></use>
                </mask>
                <use id="Arrow" fill="#FFFFFF" xlink:href="#path-2"></use>
                <rect id="Arrow" fill="#FF1414" mask="url(#mask-3)" x="-8.53333333" y="1.94025536e-12" width="136.533333" height="443.733333"></rect>
            </g>
        </g>
    </g>
</svg>