<?xml version="1.0" encoding="UTF-8"?>
<svg width="1024px" height="1024px" viewBox="0 0 1024 1024" version="1.1" xmlns="http://www.w3.org/2000/svg" xmlns:xlink="http://www.w3.org/1999/xlink">
    <!-- Generator: Sketch 63.1 (92452) - https://sketch.com -->
    <title>App Icon / Apple / Keynote /@SVG</title>
    <desc>Created with Sketch.</desc>
    <defs>
        <linearGradient x1="50%" y1="0%" x2="50%" y2="100%" id="linearGradient-1">
            <stop stop-color="#1AD5FD" offset="0%"></stop>
            <stop stop-color="#1D63F0" offset="100%"></stop>
        </linearGradient>
    </defs>
    <g id="App-Icon-/-Apple-/-Keynote-/" stroke="none" stroke-width="1" fill="none" fill-rule="evenodd">
        <rect id="Origin-Color" fill="url(#linearGradient-1)" x="0" y="0" width="1024" height="1024"></rect>
        <path d="M526,545 L526,781 C526,794.254834 536.745166,805 550,805 L641,805 C648.179702,805 654,810.820298 654,818 L654,820 C654,827.179702 648.179702,833 641,833 L383,833 C375.820298,833 370,827.179702 370,820 L370,818 C370,810.820298 375.820298,805 383,805 L474,805 C487.254834,805 498,794.254834 498,781 L498,545 L526,545 Z M814,499 L814,502 C814,515.254834 803.254834,526 790,526 L234,526 C220.745166,526 210,515.254834 210,502 L210,499 L814,499 Z M290,184 C290,162.460895 307.460895,145 329,145 L397,145 C415,145 406,124 434,124 L492,124 C504.702549,124 515,134.297451 515,147 L515,159 C515,171.702549 504.702549,182 492,182 L434,182 C406,182 415,162 397,162 L329,162 C316.849736,162 307,171.849736 307,184 L307,223 L755.182767,223 C771.834645,223 785.511883,236.1554 786.159326,252.794686 L795,480 L229,480 L237.840674,252.794686 C238.488117,236.1554 252.165355,223 268.817233,223 L290,223 L290,184 Z" id="Combined-Shape" fill="#FFFFFF"></path>
    </g>
</svg>