<?xml version="1.0" encoding="UTF-8"?>
<svg width="1024px" height="1024px" viewBox="0 0 1024 1024" version="1.1" xmlns="http://www.w3.org/2000/svg" xmlns:xlink="http://www.w3.org/1999/xlink">
    <title>App Icon / Apple / SwiftPlaygrounds /@SVG</title>
    <defs>
        <linearGradient x1="50%" y1="0%" x2="50%" y2="100%" id="linearGradient-1">
            <stop stop-color="#FDFCFB" offset="0%"></stop>
            <stop stop-color="#F7F5F3" offset="100%"></stop>
        </linearGradient>
        <rect id="path-2" x="0" y="0" width="1024" height="1024"></rect>
        <linearGradient x1="97.5121763%" y1="50%" x2="8.75109936%" y2="47.393011%" id="linearGradient-4">
            <stop stop-color="#F8E9DF" offset="0%"></stop>
            <stop stop-color="#FCF9F7" stop-opacity="0" offset="100%"></stop>
        </linearGradient>
        <linearGradient x1="50%" y1="0%" x2="50%" y2="100%" id="linearGradient-5">
            <stop stop-color="#FCB54B" offset="0%"></stop>
            <stop stop-color="#FF4732" offset="100%"></stop>
        </linearGradient>
    </defs>
    <g id="App-Icon-/-Apple-/-SwiftPlaygrounds-/" stroke="none" stroke-width="1" fill="none" fill-rule="evenodd">
        <mask id="mask-3" fill="white">
            <use xlink:href="#path-2"></use>
        </mask>
        <use id="Origin-Color" fill="url(#linearGradient-1)" xlink:href="#path-2"></use>
        <g id="Group" mask="url(#mask-3)">
            <g transform="translate(-297.949747, -270.778175)">
                <path d="M91,242 L668.460157,242.300947 L844.000064,242.160274 C954.45685,241.911547 1044.07163,331.382811 1044.16015,441.839726 C1044.16019,441.893151 1044.16021,441.946575 1044,442 L1044,692 C1044,802.45695 954.45695,892 844,892 L91,892 L91,892 L91,242 Z" id="Rectangle" fill="url(#linearGradient-4)" transform="translate(567.500000, 567.000000) rotate(45.000000) translate(-567.500000, -567.000000) "></path>
                <path d="M786.985497,755.169957 C750.291343,715.61056 717.515307,678.212342 688.657389,642.975304 C659.799471,607.738266 620.206992,553.790701 569.879954,481.132609 C659.951449,566.083942 728.192717,627.161937 774.603757,664.366592 C821.014797,701.571248 878.399383,741.878099 946.757516,785.287147 C967.248445,725.013531 972.371177,665.794699 962.125713,607.630651 C951.880248,549.466603 923.234073,485.75549 876.187186,416.497313 C970.481529,474.370167 1038.97076,548.835783 1081.65488,639.894161 C1124.339,730.95254 1133.55978,818.467065 1109.31722,902.437738 C1137.52344,938.049672 1156.59848,975.348335 1166.54233,1014.33373 C1175.62121,1049.92795 1176.41095,1080.68598 1168.91154,1106.60784 L1168.91154,1106.60784 C1168.45108,1108.19943 1166.78757,1109.11639 1165.19598,1108.65593 C1164.39001,1108.42275 1163.71852,1107.86272 1163.34442,1107.11172 C1142.4852,1065.23647 1110.23079,1043.05306 1066.58118,1040.56149 C997.661793,1036.62749 950.001565,1100.90217 853.485374,1108.84644 C756.969183,1116.7907 636.188266,1078.79968 547.727037,1016.17377 C488.752884,974.423165 439.972219,922.852634 401.38504,861.462177 C477.688198,916.212457 555.410756,947.676945 634.552715,955.855639 C713.694673,964.034333 782.021491,950.254399 839.533168,914.515837 C769.828839,857.620689 706.054711,797.83088 648.210784,735.146412 C590.366857,672.461943 533.008896,600.874665 476.136901,520.384578 C550.062626,584.200188 613.622183,635.476385 666.815575,674.21317 C720.008966,712.949954 760.065607,739.93555 786.985497,755.169957 Z" id="Path-4" fill="url(#linearGradient-5)"></path>
            </g>
        </g>
    </g>
</svg>