<?xml version="1.0" encoding="UTF-8"?>
<svg width="1024px" height="1024px" viewBox="0 0 1024 1024" version="1.1" xmlns="http://www.w3.org/2000/svg" xmlns:xlink="http://www.w3.org/1999/xlink">
    <!-- Generator: Sketch 63.1 (92452) - https://sketch.com -->
    <title>App Icon / Apple / iTunesStore /@SVG</title>
    <desc>Created with Sketch.</desc>
    <defs>
        <linearGradient x1="50%" y1="0%" x2="50%" y2="90.0968591%" id="linearGradient-1">
            <stop stop-color="#FC5BC4" offset="0%"></stop>
            <stop stop-color="#D03DEF" offset="100%"></stop>
        </linearGradient>
    </defs>
    <g id="App-Icon-/-Apple-/-iTunesStore-/" stroke="none" stroke-width="1" fill="none" fill-rule="evenodd">
        <rect id="Origin-Color" fill="url(#linearGradient-1)" x="0" y="0" width="1024" height="1024"></rect>
        <g id="Group" transform="translate(57.000000, 108.000000)" fill="#FFFFFF">
            <path d="M455,603.26 L221.652701,761.929723 C215.258834,766.277376 206.551112,764.618592 202.203459,758.224725 C199.756597,754.626252 199.122149,750.094584 200.486709,745.962499 L286.235021,486.304216 L286.235021,486.304216 L57.7569886,324.948711 C51.4412057,320.488386 49.9370601,311.752624 54.3973854,305.436842 C56.9963872,301.756677 61.2076709,299.552186 65.7128816,299.513491 L350.697507,297.065784 L350.697507,297.065784 L441.790557,37.622048 C444.352029,30.3266743 452.342582,26.4890887 459.637955,29.0505606 C463.648064,30.458546 466.801457,33.6119396 468.209443,37.622048 L559.302493,297.065784 L559.302493,297.065784 L844.287118,299.513491 C852.01882,299.579898 858.232769,305.901514 858.166362,313.633215 C858.127667,318.138426 855.923176,322.34971 852.243011,324.948711 L623.764979,486.304216 L623.764979,486.304216 L709.513291,745.962499 C711.937879,753.304501 707.951527,761.221886 700.609525,763.646474 C696.47744,765.011034 691.945773,764.376586 688.347299,761.929723 L455,603.26 L455,603.26 Z" id="Star" fill-opacity="0.7"></path>
            <polygon id="Polygon" transform="translate(455.000000, 450.165000) rotate(180.000000) translate(-455.000000, -450.165000) " points="455 297.07 623.76 414.03 559.3 603.26 350.7 603.26 286.24 414.03"></polygon>
        </g>
    </g>
</svg>