<?xml version="1.0" encoding="UTF-8"?>
<svg width="1024px" height="1024px" viewBox="0 0 1024 1024" version="1.1" xmlns="http://www.w3.org/2000/svg" xmlns:xlink="http://www.w3.org/1999/xlink">
    <!-- Generator: Sketch 63.1 (92452) - https://sketch.com -->
    <title>App Icon / Apple / Reminders/@SVG</title>
    <desc>Created with Sketch.</desc>
    <defs>
        <circle id="path-1" cx="50" cy="50" r="50"></circle>
        <circle id="path-2" cx="50" cy="305" r="50"></circle>
        <circle id="path-3" cx="50" cy="560" r="50"></circle>
    </defs>
    <g id="App-Icon-/-Apple-/-Reminders" stroke="none" stroke-width="1" fill="none" fill-rule="evenodd">
        <g id="Background" fill="#FFFFFF" stroke="#F0F0F0" stroke-width="4">
            <path d="M793,2 L231,2 C167.763396,2 110.513396,27.6316981 69.0725471,69.0725471 C27.6316981,110.513396 2,167.763396 2,231 L2,793 C2,856.236604 27.6316981,913.486604 69.0725471,954.927453 C110.513396,996.368302 167.763396,1022 231,1022 L793,1022 C856.236604,1022 913.486604,996.368302 954.927453,954.927453 C996.368302,913.486604 1022,856.236604 1022,793 L1022,231 C1022,167.763396 996.368302,110.513396 954.927453,69.0725471 C913.486604,27.6316981 856.236604,2 793,2 Z" id="Mask"></path>
        </g>
        <g id="Details" transform="translate(143.000000, 207.000000)">
            <rect id="Rectangle" fill="#D1D1D6" x="232" y="41" width="530" height="17" rx="8.5"></rect>
            <rect id="Rectangle-Copy" fill="#D1D1D6" x="232" y="296" width="530" height="17" rx="8.5"></rect>
            <rect id="Rectangle-Copy-2" fill="#D1D1D6" x="232" y="551" width="530" height="17" rx="8.5"></rect>
            <g id="Blue">
                <circle stroke="#007AFF" stroke-width="36" fill="#007AFF" fill-rule="evenodd" cx="50" cy="50" r="68"></circle>
                <circle stroke="#FFFFFF" stroke-width="18" cx="50" cy="50" r="59"></circle>
            </g>
            <g id="Red">
                <circle stroke="#FF3B30" stroke-width="36" fill="#FF3B30" fill-rule="evenodd" cx="50" cy="305" r="68"></circle>
                <circle stroke="#FFFFFF" stroke-width="18" cx="50" cy="305" r="59"></circle>
            </g>
            <g id="Orange">
                <circle stroke="#FF9500" stroke-width="36" fill="#FF9500" fill-rule="evenodd" cx="50" cy="560" r="68"></circle>
                <circle stroke="#FFFFFF" stroke-width="18" cx="50" cy="560" r="59"></circle>
            </g>
        </g>
    </g>
</svg>