<?xml version="1.0" encoding="UTF-8"?>
<svg width="1024px" height="1024px" viewBox="0 0 1024 1024" version="1.1" xmlns="http://www.w3.org/2000/svg" xmlns:xlink="http://www.w3.org/1999/xlink">
    <!-- Generator: Sketch 63.1 (92452) - https://sketch.com -->
    <title>App Icon / Apple / Camera /@SVG</title>
    <desc>Created with Sketch.</desc>
    <defs>
        <linearGradient x1="50%" y1="0%" x2="50%" y2="100%" id="linearGradient-1">
            <stop stop-color="#DBDDDE" offset="0%"></stop>
            <stop stop-color="#898B91" offset="100%"></stop>
        </linearGradient>
    </defs>
    <g id="App-Icon-/-Apple-/-Camera-/" stroke="none" stroke-width="1" fill="none" fill-rule="evenodd">
        <rect id="Origin-Color" fill="url(#linearGradient-1)" x="0" y="0" width="1024" height="1024"></rect>
        <g id="Group" transform="translate(141.000000, 230.000000)">
            <path d="M462.520056,0 C485.453347,1.61560769e-14 506.380662,13.0725763 516.439993,33.681936 L521.820009,44.704408 C533.555894,68.748661 557.971095,84 584.726601,84 L686,84 C716.927946,84 742,109.072054 742,140 L742,494 C742,524.927946 716.927946,550 686,550 L56,550 C25.072054,550 3.78758101e-15,524.927946 0,494 L0,140 C3.31784635e-15,109.072054 25.072054,84 56,84 L156.273399,84 C183.028905,84 207.444106,68.748661 219.179991,44.704408 L224.560007,33.681936 C234.619338,13.0725763 255.546653,1.84236319e-14 278.479944,0 L462.520056,0 Z M136,27 C145.941125,27 154,35.0588745 154,45 L154,63 L83,63 L83,45 C83,35.0588745 91.0588745,27 101,27 L136,27 Z M371.011072,148 C459.386963,148 531,219.610077 531,308 C531,396.368018 459.386963,468 371.011072,468 C282.635181,468 211,396.368018 211,308 C211,219.610077 282.635181,148 371.011072,148 Z M371,176 C298.082614,176 239,235.065342 239,308 C239,380.911657 298.082614,440 371,440 C443.917386,440 503,380.911657 503,308 C503,235.065342 443.917386,176 371,176 Z" id="Camera-Icon" fill="#2E2E30"></path>
            <path d="M536,161.011021 C536,173.706756 546.296512,184 559,184 C571.725775,184 582,173.706756 582,161.011021 C582,148.315285 571.725775,138 559,138 C546.296512,138 536,148.315285 536,161.011021 Z" id="Path" fill="#F6D254"></path>
        </g>
    </g>
</svg>