<?xml version="1.0" encoding="UTF-8"?>
<svg width="1024px" height="1024px" viewBox="0 0 1024 1024" version="1.1" xmlns="http://www.w3.org/2000/svg" xmlns:xlink="http://www.w3.org/1999/xlink">
    <!-- Generator: Sketch 63.1 (92452) - https://sketch.com -->
    <title>App Icon / Apple / iMovie /@SVG</title>
    <desc>Created with Sketch.</desc>
    <defs>
        <linearGradient x1="50%" y1="11.2724418%" x2="50%" y2="100%" id="linearGradient-1">
            <stop stop-color="#3023AE" offset="0%"></stop>
            <stop stop-color="#C06DD7" offset="100%"></stop>
        </linearGradient>
    </defs>
    <g id="App-Icon-/-Apple-/-iMovie-/" stroke="none" stroke-width="1" fill="none" fill-rule="evenodd">
        <rect id="Origin-Color" fill="url(#linearGradient-1)" x="0" y="0" width="1024" height="1024"></rect>
        <g id="Template"></g>
        <path d="M512,73 L623,399 L957,399 L691,596 L804,938 L512,730 L220,938 L333,596 L67,399 L401,399 L512,73 Z M562,467 L423,467 C411.954305,467 403,475.954305 403,487 L403,487 L403,601 C403,612.045695 411.954305,621 423,621 L423,621 L562,621 C573.045695,621 582,612.045695 582,601 L582,601 L582,487 C582,475.954305 573.045695,467 562,467 L562,467 Z M646,484 L588,523 L588,565 L646,604 L646,484 Z M398,493 L382,493 C379.790861,493 378,494.790861 378,497 L378,497 L378,521 C378,523.209139 379.790861,525 382,525 L382,525 L398,525 L398,493 Z" id="Combined-Shape" fill="#FFFFFF"></path>
    </g>
</svg>