<?xml version="1.0" encoding="UTF-8"?>
<svg width="1024px" height="1024px" viewBox="0 0 1024 1024" version="1.1" xmlns="http://www.w3.org/2000/svg" xmlns:xlink="http://www.w3.org/1999/xlink">
    <!-- Generator: Sketch 63.1 (92452) - https://sketch.com -->
    <title>App Icon / Apple / Calculator /@SVG</title>
    <desc>Created with Sketch.</desc>
    <g id="App-Icon-/-Apple-/-Calculator-/" stroke="none" stroke-width="1" fill="none" fill-rule="evenodd">
        <rect id="Origin-Color" fill="#D4D4D2" x="0" y="0" width="1024" height="1024"></rect>
        <g id="Calculator" transform="translate(247.000000, 132.000000)">
            <rect id="Rectangle" fill="#1D1D1D" x="0" y="0" width="530" height="760" rx="67"></rect>
            <rect id="Rectangle" fill="#EFEFF4" x="50" y="598" width="270" height="110" rx="55"></rect>
            <path d="M425,708 C394.624286,708 370,683.371786 370,653 C370,622.624286 394.624286,598 425,598 C455.371786,598 480,622.624286 480,653 C480,683.371786 455.371786,708 425,708 L425,708 Z" id="Path" fill="#FF9500"></path>
            <path d="M425,438 C455.375714,438 480,462.624286 480,493 C480,523.375714 455.375714,548 425,548 C394.624286,548 370,523.375714 370,493 C370,462.624286 394.624286,438 425,438 L425,438 Z" id="Path" fill="#FF9500"></path>
            <path d="M265,388 C234.628214,388 210,363.375714 210,333 C210,302.628214 234.628214,278 265,278 C295.375714,278 320,302.628214 320,333 C320,363.375714 295.375714,388 265,388 L265,388 Z" id="Path" fill="#EFEFF4"></path>
            <path d="M265,547 C234.628214,547 210,522.375714 210,492 C210,461.624286 234.628214,437 265,437 C295.375714,437 320,461.624286 320,492 C320,522.375714 295.375714,547 265,547 L265,547 Z" id="Path" fill="#EFEFF4"></path>
            <path d="M105,438 C135.379643,438 160,462.624286 160,493 C160,523.375714 135.379643,548 105,548 C74.6282143,548 50,523.375714 50,493 C50,462.624286 74.6282143,438 105,438 L105,438 Z" id="Path" fill="#EFEFF4"></path>
            <path d="M105,278 C135.379643,278 160,302.628214 160,333 C160,363.375714 135.379643,388 105,388 C74.6282143,388 50,363.375714 50,333 C50,302.628214 74.6282143,278 105,278 L105,278 Z" id="Path" fill="#EFEFF4"></path>
            <path d="M480,333 C480,363.375714 455.375714,388 425,388 C394.624286,388 370,363.375714 370,333 C370,302.628214 394.624286,278 425,278 C455.375714,278 480,302.628214 480,333 L480,333 Z" id="Path" fill="#FF9500"></path>
            <rect id="Rectangle" fill="#666666" x="50" y="48" width="430" height="178" rx="34"></rect>
        </g>
    </g>
</svg>