<?xml version="1.0" encoding="UTF-8"?>
<svg width="1024px" height="1024px" viewBox="0 0 1024 1024" version="1.1" xmlns="http://www.w3.org/2000/svg" xmlns:xlink="http://www.w3.org/1999/xlink">
    <!-- Generator: Sketch 63.1 (92452) - https://sketch.com -->
    <title>App Icon / Apple / Stocks /@SVG</title>
    <desc>Created with Sketch.</desc>
    <defs>
        <rect id="path-1" x="0" y="0" width="1024" height="1024"></rect>
        <linearGradient x1="50%" y1="0%" x2="50%" y2="100%" id="linearGradient-3">
            <stop stop-color="#454545" offset="0%"></stop>
            <stop stop-color="#111112" offset="100%"></stop>
        </linearGradient>
        <path d="M726.754183,356.700172 L726.753333,1024 L718.253333,1024 L718.252816,356.70081 C719.651792,356.828102 721.068421,356.893122 722.5,356.893122 C723.933966,356.893122 725.352934,356.827884 726.754183,356.700172 Z M722.5,270.039365 C743.762963,270.039365 761,287.550006 761,309.150476 C761,330.750946 743.762963,348.261587 722.5,348.261587 C701.237037,348.261587 684,330.750946 684,309.150476 C684,287.550006 701.237037,270.039365 722.5,270.039365 Z M726.753333,0 L726.754183,261.594008 C725.352934,261.466295 723.933966,261.401058 722.5,261.401058 C721.068421,261.401058 719.651792,261.466078 718.252816,261.59337 L718.253333,0 L726.753333,0 Z" id="path-4"></path>
        <filter x="-11.0%" y="-0.8%" width="122.1%" height="103.3%" filterUnits="objectBoundingBox" id="filter-5">
            <feOffset dx="0" dy="17" in="SourceAlpha" result="shadowOffsetOuter1"></feOffset>
            <feColorMatrix values="0 0 0 0 0   0 0 0 0 0   0 0 0 0 0  0 0 0 0.5 0" type="matrix" in="shadowOffsetOuter1"></feColorMatrix>
        </filter>
    </defs>
    <g id="App-Icon-/-Apple-/-Stocks-/" stroke="none" stroke-width="1" fill="none" fill-rule="evenodd">
        <rect id="Origin-Color" fill="#1E1E1F" x="0" y="0" width="1024" height="1024"></rect>
        <g id="Template"></g>
        <mask id="mask-2" fill="white">
            <use xlink:href="#path-1"></use>
        </mask>
        <use id="Mask" fill="#1E1E1F" opacity="0" xlink:href="#path-1"></use>
        <g id="Stocks-Icon" mask="url(#mask-2)">
            <g transform="translate(-15.000000, 0.000000)">
                <path d="M660.92523,496.607111 L722.858,319.325 L782.791722,465.636533 L848.175,421.927 L916.468294,552.608508 L982.341,401.692 L1039,342.692229 L1039,1024 L15,1024 L15,579.571899 C19.8395369,579.95635 23.585942,580.299813 26.2392155,580.602286 C39.349548,582.096867 52.5694633,584.613738 65.1538882,588.370112 L66.8613804,588.888785 L67.1203288,588.969415 C74.3208093,591.221141 81.5653194,594.2154 91.5841729,598.901768 L95.2435928,600.630985 C98.1576488,602.019967 104.112447,604.864996 106.028021,605.764734 L108.037955,606.702758 C111.501843,608.307986 114.406096,609.590017 117.125651,610.700034 L117.633495,610.906184 C126.389555,614.440844 133.163949,616.120017 139.135273,615.750061 C140.211762,615.683366 141.296685,615.607052 142.389809,615.521281 C155.65893,614.480141 169.766044,612.094702 184.067058,608.772136 C190.463307,607.286091 196.511765,605.701199 202.060604,604.108351 L203.241938,603.766937 C204.615004,603.367425 205.891265,602.986457 207.063754,602.628168 L209.245276,601.950364 C209.954117,601.726222 210.46673,601.559807 210.770195,601.458758 L212.659374,600.829696 L274.322,520.527 L337.418734,574.43306 L398.796,429.374 L455.744264,581.931299 L533.931716,629.805977 L598.963,512.691 L660.92523,496.607111 Z" id="Path" fill="url(#linearGradient-3)" fill-rule="nonzero"></path>
                <path d="M721.892071,282.673591 L788.791,445.988 L852.990539,403.072206 L915.415,522.524 L971.358582,394.357549 L1051.675,310.877061 L1051.675,1030.21859 L3.61394284,1030.21859 L0.455187818,566.163734 L7.5462814,566.231814 C7.83420775,566.236819 8.17109034,566.244349 8.55535799,566.25493 L8.55535799,566.25493 L10.1542711,566.30783 C11.1712397,566.346696 12.2770179,566.398338 13.4663142,566.464534 L13.4663142,566.464534 L14.4030931,566.518674 C18.4914354,566.763614 22.954299,567.143604 27.7116811,567.685946 C42.0697555,569.32277 56.5694924,572.125531 70.4219254,576.382614 L70.4219254,576.382614 L71.000378,576.561949 C78.8619788,579.02042 86.5578618,582.199674 97.0415074,587.102542 L97.0415074,587.102542 L99.3887292,588.206858 C100.807687,588.87819 108.15684,592.392587 111.005783,593.739229 L111.005783,593.739229 L113.386346,594.853177 C116.542129,596.316912 119.181494,597.486986 121.601858,598.484946 L121.601858,598.484946 L122.499809,598.851351 C129.604247,601.719282 134.75666,602.996414 138.331393,602.774939 C139.336239,602.712684 140.350173,602.641362 141.37291,602.561115 C153.922411,601.576438 167.411303,599.295537 181.125114,596.109397 C187.734396,594.573857 193.96054,592.92838 199.610019,591.284583 C201.143392,590.838427 202.546425,590.417709 203.807821,590.029005 L203.807821,590.029005 L204.799,589.72 L272.352892,501.747208 L332.364,553.016 L399.553038,394.226115 L466.355,573.184 L529.151,611.635 L590.303277,501.508586 L650.941,485.768 L721.892071,282.673591 Z M722.858,319.325 L660.92523,496.607111 L598.963,512.691 L533.931716,629.805977 L455.744264,581.931299 L398.796,429.374 L337.418734,574.43306 L274.322,520.527 L212.659374,600.829696 L210.770195,601.458758 C210.46673,601.559807 209.954117,601.726222 209.245276,601.950364 L209.245276,601.950364 L207.063754,602.628168 C205.891265,602.986457 204.615004,603.367425 203.241938,603.766937 L203.241938,603.766937 L202.060604,604.108351 C196.511765,605.701199 190.463307,607.286091 184.067058,608.772136 C169.766044,612.094702 155.65893,614.480141 142.389809,615.521281 C141.296685,615.607052 140.211762,615.683366 139.135273,615.750061 C133.163949,616.120017 126.389555,614.440844 117.633495,610.906184 L117.633495,610.906184 L117.125651,610.700034 C114.406096,609.590017 111.501843,608.307986 108.037955,606.702758 L108.037955,606.702758 L106.028021,605.764734 C104.112447,604.864996 98.1576488,602.019967 95.2435928,600.630985 L95.2435928,600.630985 L91.5841729,598.901768 C81.5653194,594.2154 74.3208093,591.221141 67.1203288,588.969415 L67.1203288,588.969415 L66.8613804,588.888785 L65.1538882,588.370112 C52.5694633,584.613738 39.349548,582.096867 26.2392155,580.602286 C23.585942,580.299813 19.8395369,579.95635 15,579.571899 L15,579.571899 L15,1024 L1039,1024 L1039,342.692229 L982.341,401.692 L916.468294,552.608508 L848.175,421.927 L782.791722,465.636533 L722.858,319.325 Z" id="Chart-Copy-2" fill="#FFFFFF" fill-rule="nonzero"></path>
                <g id="Line" fill="none">
                    <use fill="black" fill-opacity="1" filter="url(#filter-5)" xlink:href="#path-4"></use>
                    <use fill="#01A6F1" fill-rule="evenodd" xlink:href="#path-4"></use>
                </g>
                <path d="M143.5,0 L143.5,1024 L135,1024 L135,0 L143.5,0 Z M339.5,0 L339.5,1024 L331,1024 L331,0 L339.5,0 Z M536.5,0 L536.5,1024 L528,1024 L528,0 L536.5,0 Z M920.5,0 L920.5,1024 L912,1024 L912,0 L920.5,0 Z" id="Lines" fill="#777778" fill-rule="evenodd"></path>
            </g>
        </g>
    </g>
</svg>