<?xml version="1.0" encoding="UTF-8"?>
<svg width="1024px" height="1024px" viewBox="0 0 1024 1024" version="1.1" xmlns="http://www.w3.org/2000/svg" xmlns:xlink="http://www.w3.org/1999/xlink">
    <!-- Generator: Sketch 63.1 (92452) - https://sketch.com -->
    <title>App Icon / Apple / Stocks /@SVG</title>
    <desc>Created with Sketch.</desc>
    <defs>
        <rect id="path-1" x="0" y="0" width="1024" height="1024"></rect>
        <path d="M726.754183,356.700172 L726.753333,1024 L718.253333,1024 L718.252816,356.70081 C719.651792,356.828102 721.068421,356.893122 722.5,356.893122 C723.933966,356.893122 725.352934,356.827884 726.754183,356.700172 Z M722.5,270.039365 C743.762963,270.039365 761,287.550006 761,309.150476 C761,330.750946 743.762963,348.261587 722.5,348.261587 C701.237037,348.261587 684,330.750946 684,309.150476 C684,287.550006 701.237037,270.039365 722.5,270.039365 Z M726.753333,0 L726.754183,261.594008 C725.352934,261.466295 723.933966,261.401058 722.5,261.401058 C721.068421,261.401058 719.651792,261.466078 718.252816,261.59337 L718.253333,0 L726.753333,0 Z" id="path-3"></path>
        <filter x="-11.0%" y="-0.8%" width="122.1%" height="103.3%" filterUnits="objectBoundingBox" id="filter-4">
            <feOffset dx="0" dy="17" in="SourceAlpha" result="shadowOffsetOuter1"></feOffset>
            <feColorMatrix values="0 0 0 0 0   0 0 0 0 0   0 0 0 0 0  0 0 0 0.5 0" type="matrix" in="shadowOffsetOuter1"></feColorMatrix>
        </filter>
        <linearGradient x1="50%" y1="0%" x2="50%" y2="100%" id="linearGradient-5">
            <stop stop-color="#454545" offset="0%"></stop>
            <stop stop-color="#111112" offset="100%"></stop>
        </linearGradient>
        <path d="M645.92523,177.607111 L707.858,0.325 L767.791722,146.636533 L833.175,102.927 L901.468294,233.608508 L967.341,82.692 L1024,23.6922292 L1024,705 L0,705 L0,260.571899 C4.83953689,260.95635 8.58594205,261.299813 11.2392155,261.602286 C24.349548,263.096867 37.5694633,265.613738 50.1538882,269.370112 L51.8613804,269.888785 L52.1203288,269.969415 C59.3208093,272.221141 66.5653194,275.2154 76.5841729,279.901768 L80.2435928,281.630985 C83.1576488,283.019967 89.1124473,285.864996 91.0280213,286.764734 L93.0379545,287.702758 C96.5018434,289.307986 99.4060958,290.590017 102.125651,291.700034 L102.633495,291.906184 C111.389555,295.440844 118.163949,297.120017 124.135273,296.750061 C125.211762,296.683366 126.296685,296.607052 127.389809,296.521281 C140.65893,295.480141 154.766044,293.094702 169.067058,289.772136 C175.463307,288.286091 181.511765,286.701199 187.060604,285.108351 L188.241938,284.766937 C189.615004,284.367425 190.891265,283.986457 192.063754,283.628168 L194.245276,282.950364 C194.954117,282.726222 195.46673,282.559807 195.770195,282.458758 L197.659374,281.829696 L259.322,201.527 L322.418734,255.43306 L383.796,110.374 L440.744264,262.931299 L518.931716,310.805977 L583.963,193.691 L645.92523,177.607111 Z" id="path-6"></path>
        <path d="M711.754183,37.7001723 L711.753333,705 L703.253333,705 L703.252816,37.7008097 C704.651792,37.8281016 706.068421,37.8931217 707.5,37.8931217 C708.933966,37.8931217 710.352934,37.8278845 711.754183,37.7001723 Z M707.5,-48.9606349 C728.762963,-48.9606349 746,-31.449994 746,-9.84952381 C746,11.7509464 728.762963,29.2615873 707.5,29.2615873 C686.237037,29.2615873 669,11.7509464 669,-9.84952381 C669,-31.449994 686.237037,-48.9606349 707.5,-48.9606349 Z M711.753333,-319 L711.754183,-57.4059924 C710.352934,-57.5337046 708.933966,-57.5989418 707.5,-57.5989418 C706.068421,-57.5989418 704.651792,-57.5339217 703.252816,-57.4066298 L703.253333,-319 L711.753333,-319 Z" id="path-8"></path>
        <filter x="-11.0%" y="-0.8%" width="122.1%" height="103.3%" filterUnits="objectBoundingBox" id="filter-9">
            <feOffset dx="0" dy="17" in="SourceAlpha" result="shadowOffsetOuter1"></feOffset>
            <feColorMatrix values="0 0 0 0 0   0 0 0 0 0   0 0 0 0 0  0 0 0 0.5 0" type="matrix" in="shadowOffsetOuter1"></feColorMatrix>
        </filter>
    </defs>
    <g id="App-Icon-/-Apple-/-Stocks-/" stroke="none" stroke-width="1" fill="none" fill-rule="evenodd">
        <rect id="Origin-Color" fill="#1E1E1F" x="0" y="0" width="1024" height="1024"></rect>
        <g id="Template"></g>
        <mask id="mask-2" fill="white">
            <use xlink:href="#path-1"></use>
        </mask>
        <use id="Mask" fill="#1E1E1F" opacity="0" xlink:href="#path-1"></use>
        <g id="Stocks-Icon" mask="url(#mask-2)">
            <g transform="translate(-15.000000, 0.000000)">
                <path d="M143.5,0 L143.5,1024 L135,1024 L135,0 L143.5,0 Z M339.5,0 L339.5,1024 L331,1024 L331,0 L339.5,0 Z M536.5,0 L536.5,1024 L528,1024 L528,0 L536.5,0 Z M920.5,0 L920.5,1024 L912,1024 L912,0 L920.5,0 Z" id="Lines" fill="#777778" fill-rule="evenodd"></path>
                <path d="M788.791,445.988 L721.892071,282.673591 L650.941,485.768 L590.303277,501.508586 L529.151,611.635 L466.355,573.184 L399.553038,394.226115 L332.364,553.016 L272.352892,501.747208 L204.799,589.72 L203.807821,590.029005 C202.546425,590.417709 201.143392,590.838427 199.610019,591.284583 C193.96054,592.92838 187.734396,594.573857 181.125114,596.109397 C167.411303,599.295537 153.922411,601.576438 141.37291,602.561115 C140.350173,602.641362 139.336239,602.712684 138.331393,602.774939 C134.75666,602.996414 129.604247,601.719282 122.499809,598.851351 L121.601858,598.484946 C119.181494,597.486986 116.542129,596.316912 113.386346,594.853177 L111.005783,593.739229 C108.15684,592.392587 100.807687,588.87819 99.3887292,588.206858 L97.0415074,587.102542 C86.5578618,582.199674 78.8619788,579.02042 71.000378,576.561949 L70.4219254,576.382614 C56.5694924,572.125531 42.0697555,569.32277 27.7116811,567.685946 C22.954299,567.143604 18.4914354,566.763614 14.4030931,566.518674 L13.4663142,566.464534 C12.2770179,566.398338 11.1712397,566.346696 10.1542711,566.30783 L8.55535799,566.25493 C8.17109034,566.244349 7.83420775,566.236819 7.5462814,566.231814 L0.455187818,566.163734 L3.61394284,1030.21859 L1051.675,1030.21859 L1051.675,310.877061 L971.358582,394.357549 L915.415,522.524 L852.990539,403.072206 L788.791,445.988 Z" id="Path-White" fill="#FFFFFF" fill-rule="nonzero"></path>
                <g id="Line" fill="none">
                    <use fill="black" fill-opacity="1" filter="url(#filter-4)" xlink:href="#path-3"></use>
                    <use fill="#01A6F1" fill-rule="evenodd" xlink:href="#path-3"></use>
                </g>
                <g id="Group" stroke-width="1" fill="none" fill-rule="evenodd" transform="translate(15.000000, 319.000000)">
                    <mask id="mask-7" fill="white">
                        <use xlink:href="#path-6"></use>
                    </mask>
                    <use id="Path-Gradient" fill="url(#linearGradient-5)" fill-rule="nonzero" xlink:href="#path-6"></use>
                    <path d="M128.5,-319 L128.5,705 L120,705 L120,-319 L128.5,-319 Z M324.5,-319 L324.5,705 L316,705 L316,-319 L324.5,-319 Z M521.5,-319 L521.5,705 L513,705 L513,-319 L521.5,-319 Z M905.5,-319 L905.5,705 L897,705 L897,-319 L905.5,-319 Z" id="Lines" fill="#777778" mask="url(#mask-7)"></path>
                    <g id="Line-Copy" mask="url(#mask-7)">
                        <use fill="black" fill-opacity="1" filter="url(#filter-9)" xlink:href="#path-8"></use>
                        <use fill="#01A6F1" fill-rule="evenodd" xlink:href="#path-8"></use>
                    </g>
                </g>
            </g>
        </g>
    </g>
</svg>