<?xml version="1.0" encoding="UTF-8"?>
<svg width="1024px" height="1024px" viewBox="0 0 1024 1024" version="1.1" xmlns="http://www.w3.org/2000/svg" xmlns:xlink="http://www.w3.org/1999/xlink">
    <!-- Generator: Sketch 63.1 (92452) - https://sketch.com -->
    <title>App Icon / Apple / Stocks /@SVG</title>
    <desc>Created with Sketch.</desc>
    <defs>
        <linearGradient x1="50%" y1="0%" x2="50%" y2="100%" id="linearGradient-1">
            <stop stop-color="#454545" offset="0%"></stop>
            <stop stop-color="#111112" offset="100%"></stop>
        </linearGradient>
        <path d="M645.92523,177.607111 L707.858,0.325 L767.791722,146.636533 L833.175,102.927 L901.468294,233.608508 L967.341,82.692 L1024,23.6922292 L1024,705 L0,705 L0,260.571899 C4.83953689,260.95635 8.58594205,261.299813 11.2392155,261.602286 C24.349548,263.096867 37.5694633,265.613738 50.1538882,269.370112 L51.8613804,269.888785 L52.1203288,269.969415 C59.3208093,272.221141 66.5653194,275.2154 76.5841729,279.901768 L80.2435928,281.630985 C83.1576488,283.019967 89.1124473,285.864996 91.0280213,286.764734 L93.0379545,287.702758 C96.5018434,289.307986 99.4060958,290.590017 102.125651,291.700034 L102.633495,291.906184 C111.389555,295.440844 118.163949,297.120017 124.135273,296.750061 C125.211762,296.683366 126.296685,296.607052 127.389809,296.521281 C140.65893,295.480141 154.766044,293.094702 169.067058,289.772136 C175.463307,288.286091 181.511765,286.701199 187.060604,285.108351 L188.241938,284.766937 C189.615004,284.367425 190.891265,283.986457 192.063754,283.628168 L194.245276,282.950364 C194.954117,282.726222 195.46673,282.559807 195.770195,282.458758 L197.659374,281.829696 L259.322,201.527 L322.418734,255.43306 L383.796,110.374 L440.744264,262.931299 L518.931716,310.805977 L583.963,193.691 L645.92523,177.607111 Z" id="path-2"></path>
        <path d="M711.754183,37.7001723 L711.753333,705 L703.253333,705 L703.252816,37.7008097 C704.651792,37.8281016 706.068421,37.8931217 707.5,37.8931217 C708.933966,37.8931217 710.352934,37.8278845 711.754183,37.7001723 Z M707.5,-48.9606349 C728.762963,-48.9606349 746,-31.449994 746,-9.84952381 C746,11.7509464 728.762963,29.2615873 707.5,29.2615873 C686.237037,29.2615873 669,11.7509464 669,-9.84952381 C669,-31.449994 686.237037,-48.9606349 707.5,-48.9606349 Z M711.753333,-319 L711.754183,-57.4059924 C710.352934,-57.5337046 708.933966,-57.5989418 707.5,-57.5989418 C706.068421,-57.5989418 704.651792,-57.5339217 703.252816,-57.4066298 L703.253333,-319 L711.753333,-319 Z" id="path-4"></path>
        <filter x="-11.0%" y="-0.8%" width="122.1%" height="103.3%" filterUnits="objectBoundingBox" id="filter-5">
            <feOffset dx="0" dy="17" in="SourceAlpha" result="shadowOffsetOuter1"></feOffset>
            <feColorMatrix values="0 0 0 0 0   0 0 0 0 0   0 0 0 0 0  0 0 0 0.5 0" type="matrix" in="shadowOffsetOuter1"></feColorMatrix>
        </filter>
        <path d="M1024,323.799779 L956.358582,394.357549 L900.415,522.524 L837.990539,403.072206 L773.791,445.988 L706.892071,282.673591 L635.941,485.768 L575.303277,501.508586 L514.151,611.635 L451.355,573.184 L384.553038,394.226115 L317.364,553.016 L257.352892,501.747208 L189.799,589.72 L188.807821,590.029005 C187.546425,590.417709 186.143392,590.838427 184.610019,591.284583 C178.96054,592.92838 172.734396,594.573857 166.125114,596.109397 C152.411303,599.295537 138.922411,601.576438 126.37291,602.561115 C125.350173,602.641362 124.336239,602.712684 123.331393,602.774939 C119.75666,602.996414 114.604247,601.719282 107.499809,598.851351 L106.601858,598.484946 C104.181494,597.486986 101.542129,596.316912 98.3863464,594.853177 L96.0057827,593.739229 C93.1568399,592.392587 85.807687,588.87819 84.3887292,588.206858 L82.0415074,587.102542 C71.5578618,582.199674 63.8619788,579.02042 56.000378,576.561949 L55.4219254,576.382614 C41.5694924,572.125531 27.0697555,569.32277 12.7116811,567.685946 C8.19083456,567.170569 3.92027374,566.801801 9.09494702e-13,566.556214 L0,0 L1024,0 L1024,323.799779 Z" id="path-6"></path>
        <path d="M711.754183,356.700172 L711.753333,1024 L703.253333,1024 L703.252816,356.70081 C704.651792,356.828102 706.068421,356.893122 707.5,356.893122 C708.933966,356.893122 710.352934,356.827884 711.754183,356.700172 Z M707.5,270.039365 C728.762963,270.039365 746,287.550006 746,309.150476 C746,330.750946 728.762963,348.261587 707.5,348.261587 C686.237037,348.261587 669,330.750946 669,309.150476 C669,287.550006 686.237037,270.039365 707.5,270.039365 Z M711.753333,0 L711.754183,261.594008 C710.352934,261.466295 708.933966,261.401058 707.5,261.401058 C706.068421,261.401058 704.651792,261.466078 703.252816,261.59337 L703.253333,0 L711.753333,0 Z" id="path-8"></path>
        <filter x="-11.0%" y="-0.8%" width="122.1%" height="103.3%" filterUnits="objectBoundingBox" id="filter-9">
            <feOffset dx="0" dy="17" in="SourceAlpha" result="shadowOffsetOuter1"></feOffset>
            <feColorMatrix values="0 0 0 0 0   0 0 0 0 0   0 0 0 0 0  0 0 0 0.5 0" type="matrix" in="shadowOffsetOuter1"></feColorMatrix>
        </filter>
        <ellipse id="path-10" cx="707.5" cy="309.150476" rx="38.5" ry="39.1111111"></ellipse>
        <filter x="-11.0%" y="-10.9%" width="122.1%" height="143.5%" filterUnits="objectBoundingBox" id="filter-11">
            <feOffset dx="0" dy="17" in="SourceAlpha" result="shadowOffsetOuter1"></feOffset>
            <feColorMatrix values="0 0 0 0 0   0 0 0 0 0   0 0 0 0 0  0 0 0 0.5 0" type="matrix" in="shadowOffsetOuter1"></feColorMatrix>
        </filter>
    </defs>
    <g id="App-Icon-/-Apple-/-Stocks-/" stroke="none" stroke-width="1" fill="none" fill-rule="evenodd">
        <rect id="Origin-Color" fill="#141416" x="0" y="0" width="1024" height="1024"></rect>
        <path d="M645.92523,496.607111 L707.858,319.325 L767.791722,465.636533 L833.175,421.927 L901.468294,552.608508 L967.341,401.692 L1024,342.692229 L1024,1024 L0,1024 L0,579.571899 C4.83953689,579.95635 8.58594205,580.299813 11.2392155,580.602286 C24.349548,582.096867 37.5694633,584.613738 50.1538882,588.370112 L51.8613804,588.888785 L52.1203288,588.969415 C59.3208093,591.221141 66.5653194,594.2154 76.5841729,598.901768 L80.2435928,600.630985 C83.1576488,602.019967 89.1124473,604.864996 91.0280213,605.764734 L93.0379545,606.702758 C96.5018434,608.307986 99.4060958,609.590017 102.125651,610.700034 L102.633495,610.906184 C111.389555,614.440844 118.163949,616.120017 124.135273,615.750061 C125.211762,615.683366 126.296685,615.607052 127.389809,615.521281 C140.65893,614.480141 154.766044,612.094702 169.067058,608.772136 C175.463307,607.286091 181.511765,605.701199 187.060604,604.108351 L188.241938,603.766937 C189.615004,603.367425 190.891265,602.986457 192.063754,602.628168 L194.245276,601.950364 C194.954117,601.726222 195.46673,601.559807 195.770195,601.458758 L197.659374,600.829696 L259.322,520.527 L322.418734,574.43306 L383.796,429.374 L440.744264,581.931299 L518.931716,629.805977 L583.963,512.691 L645.92523,496.607111 Z" id="Path-Gradient" fill="url(#linearGradient-1)" fill-rule="nonzero"></path>
        <g id="Group" transform="translate(-0.000000, 0.000000)">
            <g id="Bottom" transform="translate(0.000000, 319.000000)">
                <mask id="mask-3" fill="white">
                    <use xlink:href="#path-2"></use>
                </mask>
                <path stroke="#FFFFFF" stroke-width="18" d="M192.205657,274.154577 C192.014159,274.216054 191.796422,274.285454 191.55309,274.362428 L189.413641,275.02716 C188.284353,275.372145 187.056027,275.738727 185.735282,276.123053 L184.569632,276.459933 C179.160611,278.012505 173.264869,279.557149 167.030327,281.005624 C153.186357,284.222005 139.53132,286.540955 126.685802,287.548858 C125.642211,287.630742 124.606451,287.703612 123.578741,287.767284 C118.674,288.07116 113.157739,286.448528 106.010435,283.56374 L105.518865,283.364197 C102.918889,282.302799 100.142986,281.075788 96.8330567,279.542039 L94.844359,278.613925 C93.3664035,277.919607 89.5118649,276.080602 86.4999948,274.643726 C85.5970778,274.212971 84.7693673,273.818094 84.1023917,273.500186 L80.4134652,271.757026 C69.9156454,266.846177 62.3255215,263.728693 54.511681,261.287785 L52.7491745,260.7524 C39.6553519,256.842387 25.9008143,254.215418 12.2586148,252.660205 C7.96236839,252.170432 0.876568072,251.572259 -9,250.877621 L-9,714 L1033,714 L1033,1.32691082 L959.735775,77.617923 L900.739038,212.781365 L836.507942,89.8730097 L771.945457,133.033832 L707.189344,-25.0502268 L639.013376,170.102995 L577.967536,185.949011 L515.622385,298.226527 L448.090643,256.876408 L384.319302,86.0409384 L318.919698,240.606395 L257.958694,188.524974 L192.205657,274.154577 Z"></path>
                <path d="M128.5,-319 L128.5,705 L120,705 L120,-319 L128.5,-319 Z M324.5,-319 L324.5,705 L316,705 L316,-319 L324.5,-319 Z M521.5,-319 L521.5,705 L513,705 L513,-319 L521.5,-319 Z M905.5,-319 L905.5,705 L897,705 L897,-319 L905.5,-319 Z" id="Lines" fill="#777778" mask="url(#mask-3)"></path>
                <g id="Line-Copy" mask="url(#mask-3)">
                    <use fill="black" fill-opacity="1" filter="url(#filter-5)" xlink:href="#path-4"></use>
                    <use fill="#01A6F1" fill-rule="evenodd" xlink:href="#path-4"></use>
                </g>
            </g>
            <g id="Top">
                <mask id="mask-7" fill="white">
                    <use xlink:href="#path-6"></use>
                </mask>
                <use id="Combined-Shape" fill="#141416" xlink:href="#path-6"></use>
                <path d="M128.5,0 L128.5,1024 L120,1024 L120,0 L128.5,0 Z M324.5,0 L324.5,1024 L316,1024 L316,0 L324.5,0 Z M521.5,0 L521.5,1024 L513,1024 L513,0 L521.5,0 Z M905.5,0 L905.5,1024 L897,1024 L897,0 L905.5,0 Z" id="Lines" fill="#777778" mask="url(#mask-7)"></path>
                <g id="Line" mask="url(#mask-7)">
                    <use fill="black" fill-opacity="1" filter="url(#filter-9)" xlink:href="#path-8"></use>
                    <use fill="#01A6F1" fill-rule="evenodd" xlink:href="#path-8"></use>
                </g>
            </g>
            <g id="Path">
                <use fill="black" fill-opacity="1" filter="url(#filter-11)" xlink:href="#path-10"></use>
                <use fill="#01A6F1" fill-rule="evenodd" xlink:href="#path-10"></use>
            </g>
        </g>
    </g>
</svg>