<svg xmlns="http://www.w3.org/2000/svg" xmlns:xlink="http://www.w3.org/1999/xlink" viewBox="0 0 1024 1024"><defs><linearGradient x1="50%" y1="0%" x2="50%" y2="100%" id="b"><stop stop-color="#5CEF80" offset="0%"/><stop stop-color="#0ACD47" offset="100%"/></linearGradient><linearGradient x1="50%" y1="0%" x2="50%" y2="100%" id="a"><stop stop-color="#82EA8D" offset="0%"/><stop stop-color="#4BD054" offset="100%"/></linearGradient><linearGradient x1="50%" y1="0%" x2="50%" y2="100%" id="e"><stop stop-color="#43E56B" offset="0%"/><stop stop-color="#19CF46" offset="100%"/></linearGradient><linearGradient x1="50%" y1="12.089%" x2="50%" y2="91.182%" id="g"><stop stop-color="#00ACFF" stop-opacity="0" offset="0%"/><stop stop-color="#005EE5" offset="100%"/></linearGradient><circle id="d" cx="445" cy="445" r="290"/><circle id="f" cx="445" cy="445" r="445"/><filter x="-3.4%" y="-2.8%" width="106.7%" height="106.7%" filterUnits="objectBoundingBox" id="c"><feOffset dy="3" in="SourceAlpha" result="shadowOffsetOuter1"/><feGaussianBlur stdDeviation="6" in="shadowOffsetOuter1" result="shadowBlurOuter1"/><feComposite in="shadowBlurOuter1" in2="SourceAlpha" operator="out" result="shadowBlurOuter1"/><feColorMatrix values="0 0 0 0 0 0 0 0 0 0 0 0 0 0 0 0 0 0 0.0541940969 0" in="shadowBlurOuter1"/></filter></defs><path fill="#DBDBD9" d="M0 0h1024v1024H0z"/><g transform="translate(67 67)"><circle stroke="url(#a)" stroke-width="3" fill="url(#b)" cx="445" cy="445" r="443.5"/><use filter="url(#c)" xlink:href="#d"/><circle stroke-opacity=".25" stroke="#FFF" stroke-width="18" stroke-linejoin="square" fill="url(#e)" cx="445" cy="445" r="281"/><mask id="h" fill="#fff"><use xlink:href="#f"/></mask><path stroke="#37F251" stroke-width="5" fill="url(#g)" mask="url(#h)" d="M155-67h580L445.5 445z"/><path d="M445 320c69.036 0 125 55.964 125 125s-55.964 125-125 125-125-55.964-125-125 55.964-125 125-125Z" fill="#FFF"/><path d="M445 358c-48.049 0-87 38.951-87 87s38.951 87 87 87 87-38.951 87-87-38.951-87-87-87Z" fill="#0061DB"/></g></svg>