<?xml version="1.0" encoding="UTF-8"?>
<svg width="1024px" height="1024px" viewBox="0 0 1024 1024" version="1.1" xmlns="http://www.w3.org/2000/svg" xmlns:xlink="http://www.w3.org/1999/xlink">
    <!-- Generator: Sketch 63.1 (92452) - https://sketch.com -->
    <title>App Icon / Apple / Notes /@SVG</title>
    <desc>Created with Sketch.</desc>
    <defs>
        <linearGradient x1="50%" y1="0%" x2="50%" y2="100%" id="linearGradient-1">
            <stop stop-color="#FFDB4C" offset="0%"></stop>
            <stop stop-color="#FFCD02" offset="100%"></stop>
        </linearGradient>
        <rect id="path-2" x="0" y="0" width="1024" height="299"></rect>
        <filter x="-0.8%" y="-2.8%" width="101.7%" height="105.7%" filterUnits="objectBoundingBox" id="filter-3">
            <feOffset dx="0" dy="17" in="SourceAlpha" result="shadowOffsetInner1"></feOffset>
            <feComposite in="shadowOffsetInner1" in2="SourceAlpha" operator="arithmetic" k2="-1" k3="1" result="shadowInnerInner1"></feComposite>
            <feColorMatrix values="0 0 0 0 1   0 0 0 0 0.878431373   0 0 0 0 0.4  0 0 0 1 0" type="matrix" in="shadowInnerInner1"></feColorMatrix>
        </filter>
        <path d="M17.0666667,76.5333333 C21.7794968,76.5333333 25.6,72.7128301 25.6,68 C25.6,63.2871699 21.7794968,59.4666667 17.0666667,59.4666667 C12.3538366,59.4666667 8.53333333,63.2871699 8.53333333,68 C8.53333333,72.7128301 12.3538366,76.5333333 17.0666667,76.5333333 Z M51.2,76.5333333 C55.9128301,76.5333333 59.7333333,72.7128301 59.7333333,68 C59.7333333,63.2871699 55.9128301,59.4666667 51.2,59.4666667 C46.4871699,59.4666667 42.6666667,63.2871699 42.6666667,68 C42.6666667,72.7128301 46.4871699,76.5333333 51.2,76.5333333 Z M85.3333333,76.5333333 C90.0461634,76.5333333 93.8666667,72.7128301 93.8666667,68 C93.8666667,63.2871699 90.0461634,59.4666667 85.3333333,59.4666667 C80.6205032,59.4666667 76.8,63.2871699 76.8,68 C76.8,72.7128301 80.6205032,76.5333333 85.3333333,76.5333333 Z M119.466667,76.5333333 C124.179497,76.5333333 128,72.7128301 128,68 C128,63.2871699 124.179497,59.4666667 119.466667,59.4666667 C114.753837,59.4666667 110.933333,63.2871699 110.933333,68 C110.933333,72.7128301 114.753837,76.5333333 119.466667,76.5333333 Z M153.6,76.5333333 C158.31283,76.5333333 162.133333,72.7128301 162.133333,68 C162.133333,63.2871699 158.31283,59.4666667 153.6,59.4666667 C148.88717,59.4666667 145.066667,63.2871699 145.066667,68 C145.066667,72.7128301 148.88717,76.5333333 153.6,76.5333333 Z M187.733333,76.5333333 C192.446163,76.5333333 196.266667,72.7128301 196.266667,68 C196.266667,63.2871699 192.446163,59.4666667 187.733333,59.4666667 C183.020503,59.4666667 179.2,63.2871699 179.2,68 C179.2,72.7128301 183.020503,76.5333333 187.733333,76.5333333 Z M221.866667,76.5333333 C226.579497,76.5333333 230.4,72.7128301 230.4,68 C230.4,63.2871699 226.579497,59.4666667 221.866667,59.4666667 C217.153837,59.4666667 213.333333,63.2871699 213.333333,68 C213.333333,72.7128301 217.153837,76.5333333 221.866667,76.5333333 Z M256,76.5333333 C260.71283,76.5333333 264.533333,72.7128301 264.533333,68 C264.533333,63.2871699 260.71283,59.4666667 256,59.4666667 C251.28717,59.4666667 247.466667,63.2871699 247.466667,68 C247.466667,72.7128301 251.28717,76.5333333 256,76.5333333 Z M290.133333,76.5333333 C294.846163,76.5333333 298.666667,72.7128301 298.666667,68 C298.666667,63.2871699 294.846163,59.4666667 290.133333,59.4666667 C285.420503,59.4666667 281.6,63.2871699 281.6,68 C281.6,72.7128301 285.420503,76.5333333 290.133333,76.5333333 Z M324.266667,76.5333333 C328.979497,76.5333333 332.8,72.7128301 332.8,68 C332.8,63.2871699 328.979497,59.4666667 324.266667,59.4666667 C319.553837,59.4666667 315.733333,63.2871699 315.733333,68 C315.733333,72.7128301 319.553837,76.5333333 324.266667,76.5333333 Z M358.4,76.5333333 C363.11283,76.5333333 366.933333,72.7128301 366.933333,68 C366.933333,63.2871699 363.11283,59.4666667 358.4,59.4666667 C353.68717,59.4666667 349.866667,63.2871699 349.866667,68 C349.866667,72.7128301 353.68717,76.5333333 358.4,76.5333333 Z M392.533333,76.5333333 C397.246163,76.5333333 401.066667,72.7128301 401.066667,68 C401.066667,63.2871699 397.246163,59.4666667 392.533333,59.4666667 C387.820503,59.4666667 384,63.2871699 384,68 C384,72.7128301 387.820503,76.5333333 392.533333,76.5333333 Z M426.666667,76.5333333 C431.379497,76.5333333 435.2,72.7128301 435.2,68 C435.2,63.2871699 431.379497,59.4666667 426.666667,59.4666667 C421.953837,59.4666667 418.133333,63.2871699 418.133333,68 C418.133333,72.7128301 421.953837,76.5333333 426.666667,76.5333333 Z M460.8,76.5333333 C465.51283,76.5333333 469.333333,72.7128301 469.333333,68 C469.333333,63.2871699 465.51283,59.4666667 460.8,59.4666667 C456.08717,59.4666667 452.266667,63.2871699 452.266667,68 C452.266667,72.7128301 456.08717,76.5333333 460.8,76.5333333 Z M494.933333,76.5333333 C499.646163,76.5333333 503.466667,72.7128301 503.466667,68 C503.466667,63.2871699 499.646163,59.4666667 494.933333,59.4666667 C490.220503,59.4666667 486.4,63.2871699 486.4,68 C486.4,72.7128301 490.220503,76.5333333 494.933333,76.5333333 Z M529.066667,76.5333333 C533.779497,76.5333333 537.6,72.7128301 537.6,68 C537.6,63.2871699 533.779497,59.4666667 529.066667,59.4666667 C524.353837,59.4666667 520.533333,63.2871699 520.533333,68 C520.533333,72.7128301 524.353837,76.5333333 529.066667,76.5333333 Z M563.2,76.5333333 C567.91283,76.5333333 571.733333,72.7128301 571.733333,68 C571.733333,63.2871699 567.91283,59.4666667 563.2,59.4666667 C558.48717,59.4666667 554.666667,63.2871699 554.666667,68 C554.666667,72.7128301 558.48717,76.5333333 563.2,76.5333333 Z M597.333333,76.5333333 C602.046163,76.5333333 605.866667,72.7128301 605.866667,68 C605.866667,63.2871699 602.046163,59.4666667 597.333333,59.4666667 C592.620503,59.4666667 588.8,63.2871699 588.8,68 C588.8,72.7128301 592.620503,76.5333333 597.333333,76.5333333 Z M631.466667,76.5333333 C636.179497,76.5333333 640,72.7128301 640,68 C640,63.2871699 636.179497,59.4666667 631.466667,59.4666667 C626.753837,59.4666667 622.933333,63.2871699 622.933333,68 C622.933333,72.7128301 626.753837,76.5333333 631.466667,76.5333333 Z M665.6,76.5333333 C670.31283,76.5333333 674.133333,72.7128301 674.133333,68 C674.133333,63.2871699 670.31283,59.4666667 665.6,59.4666667 C660.88717,59.4666667 657.066667,63.2871699 657.066667,68 C657.066667,72.7128301 660.88717,76.5333333 665.6,76.5333333 Z M699.733333,76.5333333 C704.446163,76.5333333 708.266667,72.7128301 708.266667,68 C708.266667,63.2871699 704.446163,59.4666667 699.733333,59.4666667 C695.020503,59.4666667 691.2,63.2871699 691.2,68 C691.2,72.7128301 695.020503,76.5333333 699.733333,76.5333333 Z M733.866667,76.5333333 C738.579497,76.5333333 742.4,72.7128301 742.4,68 C742.4,63.2871699 738.579497,59.4666667 733.866667,59.4666667 C729.153837,59.4666667 725.333333,63.2871699 725.333333,68 C725.333333,72.7128301 729.153837,76.5333333 733.866667,76.5333333 Z M768,76.5333333 C772.71283,76.5333333 776.533333,72.7128301 776.533333,68 C776.533333,63.2871699 772.71283,59.4666667 768,59.4666667 C763.28717,59.4666667 759.466667,63.2871699 759.466667,68 C759.466667,72.7128301 763.28717,76.5333333 768,76.5333333 Z M802.133333,76.5333333 C806.846163,76.5333333 810.666667,72.7128301 810.666667,68 C810.666667,63.2871699 806.846163,59.4666667 802.133333,59.4666667 C797.420503,59.4666667 793.6,63.2871699 793.6,68 C793.6,72.7128301 797.420503,76.5333333 802.133333,76.5333333 Z M836.266667,76.5333333 C840.979497,76.5333333 844.8,72.7128301 844.8,68 C844.8,63.2871699 840.979497,59.4666667 836.266667,59.4666667 C831.553837,59.4666667 827.733333,63.2871699 827.733333,68 C827.733333,72.7128301 831.553837,76.5333333 836.266667,76.5333333 Z M870.4,76.5333333 C875.11283,76.5333333 878.933333,72.7128301 878.933333,68 C878.933333,63.2871699 875.11283,59.4666667 870.4,59.4666667 C865.68717,59.4666667 861.866667,63.2871699 861.866667,68 C861.866667,72.7128301 865.68717,76.5333333 870.4,76.5333333 Z M904.533333,76.5333333 C909.246163,76.5333333 913.066667,72.7128301 913.066667,68 C913.066667,63.2871699 909.246163,59.4666667 904.533333,59.4666667 C899.820503,59.4666667 896,63.2871699 896,68 C896,72.7128301 899.820503,76.5333333 904.533333,76.5333333 Z M938.666667,76.5333333 C943.379497,76.5333333 947.2,72.7128301 947.2,68 C947.2,63.2871699 943.379497,59.4666667 938.666667,59.4666667 C933.953837,59.4666667 930.133333,63.2871699 930.133333,68 C930.133333,72.7128301 933.953837,76.5333333 938.666667,76.5333333 Z M972.8,76.5333333 C977.51283,76.5333333 981.333333,72.7128301 981.333333,68 C981.333333,63.2871699 977.51283,59.4666667 972.8,59.4666667 C968.08717,59.4666667 964.266667,63.2871699 964.266667,68 C964.266667,72.7128301 968.08717,76.5333333 972.8,76.5333333 Z M1006.93333,76.5333333 C1011.64616,76.5333333 1015.46667,72.7128301 1015.46667,68 C1015.46667,63.2871699 1011.64616,59.4666667 1006.93333,59.4666667 C1002.2205,59.4666667 998.4,63.2871699 998.4,68 C998.4,72.7128301 1002.2205,76.5333333 1006.93333,76.5333333 Z" id="path-4"></path>
        <filter x="-0.8%" y="-49.8%" width="101.7%" height="299.2%" filterUnits="objectBoundingBox" id="filter-5">
            <feOffset dx="0" dy="17" in="SourceAlpha" result="shadowOffsetOuter1"></feOffset>
            <feColorMatrix values="0 0 0 0 1   0 0 0 0 1   0 0 0 0 1  0 0 0 0.1 0" type="matrix" in="shadowOffsetOuter1"></feColorMatrix>
        </filter>
        <linearGradient x1="50%" y1="0%" x2="50%" y2="100%" id="linearGradient-6">
            <stop stop-color="#FFDB4C" offset="0%"></stop>
            <stop stop-color="#FFCD02" offset="100%"></stop>
        </linearGradient>
        <rect id="path-7" x="0" y="1.13686838e-13" width="1024" height="316"></rect>
        <filter x="-6.6%" y="-10.8%" width="113.3%" height="143.0%" filterUnits="objectBoundingBox" id="filter-8">
            <feOffset dx="0" dy="34" in="SourceAlpha" result="shadowOffsetOuter1"></feOffset>
            <feGaussianBlur stdDeviation="17" in="shadowOffsetOuter1" result="shadowBlurOuter1"></feGaussianBlur>
            <feColorMatrix values="0 0 0 0 0   0 0 0 0 0   0 0 0 0 0  0 0 0 0.1 0" type="matrix" in="shadowBlurOuter1" result="shadowMatrixOuter1"></feColorMatrix>
            <feOffset dx="0" dy="17" in="SourceAlpha" result="shadowOffsetOuter2"></feOffset>
            <feColorMatrix values="0 0 0 0 0   0 0 0 0 0   0 0 0 0 0  0 0 0 0.3 0" type="matrix" in="shadowOffsetOuter2" result="shadowMatrixOuter2"></feColorMatrix>
            <feMerge>
                <feMergeNode in="shadowMatrixOuter1"></feMergeNode>
                <feMergeNode in="shadowMatrixOuter2"></feMergeNode>
            </feMerge>
        </filter>
        <filter x="-4.2%" y="-2.7%" width="108.3%" height="126.9%" filterUnits="objectBoundingBox" id="filter-9">
            <feOffset dx="0" dy="17" in="SourceAlpha" result="shadowOffsetInner1"></feOffset>
            <feComposite in="shadowOffsetInner1" in2="SourceAlpha" operator="arithmetic" k2="-1" k3="1" result="shadowInnerInner1"></feComposite>
            <feColorMatrix values="0 0 0 0 1   0 0 0 0 0.878431373   0 0 0 0 0.4  0 0 0 1 0" type="matrix" in="shadowInnerInner1" result="shadowMatrixInner1"></feColorMatrix>
            <feOffset dx="0" dy="-17" in="SourceAlpha" result="shadowOffsetInner2"></feOffset>
            <feComposite in="shadowOffsetInner2" in2="SourceAlpha" operator="arithmetic" k2="-1" k3="1" result="shadowInnerInner2"></feComposite>
            <feColorMatrix values="0 0 0 0 0.874509804   0 0 0 0 0.698039216   0 0 0 0 0.00392156863  0 0 0 1 0" type="matrix" in="shadowInnerInner2" result="shadowMatrixInner2"></feColorMatrix>
            <feMerge>
                <feMergeNode in="shadowMatrixInner1"></feMergeNode>
                <feMergeNode in="shadowMatrixInner2"></feMergeNode>
            </feMerge>
        </filter>
    </defs>
    <g id="App-Icon-/-Apple-/-Notes-/" stroke="none" stroke-width="1" fill="none" fill-rule="evenodd">
        <rect id="Bottom" fill="#FFFFFF" x="0" y="299" width="1024" height="725"></rect>
        <g id="Top">
            <use fill="url(#linearGradient-1)" fill-rule="evenodd" xlink:href="#path-2"></use>
            <use fill="black" fill-opacity="1" filter="url(#filter-3)" xlink:href="#path-2"></use>
        </g>
        <g id="Bottom" transform="translate(0.000000, 316.000000)">
            <path d="M0,0 L1024,0 L1024,429.818456 C1024,526.548239 1013.92842,561.624796 995.016102,596.987759 C976.103782,632.350722 948.350722,660.103782 912.987759,679.016102 C877.624796,697.928421 842.548239,708 745.818456,708 L278.181544,708 C181.451761,708 146.375204,697.928421 111.012241,679.016102 C75.6492782,660.103782 47.8962179,632.350722 28.9838984,596.987759 C10.0715788,561.624796 4.35340372e-15,526.548239 -7.49257823e-15,429.818456 L0,0 L0,0 Z" id="Color:" opacity="0"></path>
            <path d="M1024,477 L1024,485.5 L0,485.5 L0,477 L1024,477 Z M1024,247 L1024,255.5 L0,255.5 L0,247 L1024,247 Z" id="Shape" fill-opacity="0.29" fill="#000000"></path>
            <g id="Dots-Line">
                <use fill="black" fill-opacity="1" filter="url(#filter-5)" xlink:href="#path-4"></use>
                <use fill="#AAAAAA" fill-rule="evenodd" xlink:href="#path-4"></use>
            </g>
        </g>
        <g id="Top">
            <g>
                <use fill="black" fill-opacity="1" filter="url(#filter-8)" xlink:href="#path-7"></use>
                <use fill="url(#linearGradient-6)" fill-rule="evenodd" xlink:href="#path-7"></use>
                <use fill="black" fill-opacity="1" filter="url(#filter-9)" xlink:href="#path-7"></use>
            </g>
        </g>
    </g>
</svg>