<?xml version="1.0" encoding="UTF-8"?>
<svg width="1024px" height="1024px" viewBox="0 0 1024 1024" version="1.1" xmlns="http://www.w3.org/2000/svg" xmlns:xlink="http://www.w3.org/1999/xlink">
    <!-- Generator: Sketch 63.1 (92452) - https://sketch.com -->
    <title>App Icon / Apple / Music /@SVG</title>
    <desc>Created with Sketch.</desc>
    <g id="App-Icon-/-Apple-/-Music-/" stroke="none" stroke-width="1" fill="none" fill-rule="evenodd">
        <rect id="Origin-Color" fill="#FFFFFF" x="0" y="0" width="1024" height="1024"></rect>
        <path d="M204.8,765.038806 C204.8,809.089697 239.93365,844.8 294.48366,844.8 L299.837908,844.8 C365.598377,844.8 400.732026,797.75855 400.732026,742.376511 L400.732026,392.82415 C400.732026,386.52882 405.662533,380.411229 411.719586,379.165277 L695.103943,319.117032 C701.172205,317.868774 706.091503,321.983119 706.091503,328.202461 L706.091503,562.291789 C705.477009,581.85901 702.033025,592.819873 695.495487,601.488995 C689.054713,610.029803 678.599192,615.871307 666.158167,616.910876 L633.47451,616.910876 C590.134957,616.910876 555.001307,652.621178 555.001307,696.672069 C555.001307,740.72296 590.134957,776.433263 644.684967,776.433263 L650.039216,776.433263 C715.799684,776.433263 750.933333,729.391812 750.933333,674.009774 L750.933333,246.52774 L750.933333,180.915892 C750.933333,168.374777 741.157199,160.14031 728.948707,162.553146 L377.874823,233.624437 C365.733049,236.024088 355.890196,248.108181 355.890196,260.870677 L355.890196,314.894477 L355.890196,630.658526 C355.275702,650.225748 351.831718,661.18661 345.29418,669.855732 C338.853406,678.39654 328.397885,684.238044 315.95686,685.277613 L283.273203,685.277613 C239.93365,685.277613 204.8,720.987916 204.8,765.038806 Z" id="Music-Icon" fill=""></path>
    </g>
</svg>