<?xml version="1.0" encoding="UTF-8"?>
<svg width="1024px" height="1024px" viewBox="0 0 1024 1024" version="1.1" xmlns="http://www.w3.org/2000/svg" xmlns:xlink="http://www.w3.org/1999/xlink">
    <!-- Generator: Sketch 63.1 (92452) - https://sketch.com -->
    <title>App Icon / Apple / Clips /@SVG</title>
    <desc>Created with Sketch.</desc>
    <defs>
        <linearGradient x1="50%" y1="0%" x2="50%" y2="100%" id="linearGradient-1">
            <stop stop-color="#9988FA" offset="0%"></stop>
            <stop stop-color="#46D2FD" offset="100%"></stop>
        </linearGradient>
    </defs>
    <g id="App-Icon-/-Apple-/-Clips-/" stroke="none" stroke-width="1" fill="none" fill-rule="evenodd">
        <rect id="Origin-Color" fill="#FFFFFF" x="0" y="0" width="1024" height="1024"></rect>
        <g id="Group" transform="translate(66.000000, 66.000000)">
            <circle id="Oval" fill="url(#linearGradient-1)" cx="446" cy="446" r="446"></circle>
            <path d="M518,291 C542.300529,291 562,310.699471 562,335 L562,557 C562,581.300529 542.300529,601 518,601 L242,601 C217.699471,601 198,581.300529 198,557 L198,335 C198,310.699471 217.699471,291 242,291 L518,291 Z M691,327 L691,569 L574,491 L574,399 L691,327 Z M719,327 L719,569 L703,569 L703,327 L719,327 Z M190,363 L190,404 L182,404 C177.581722,404 174,400.418278 174,396 L174,371 C174,366.581722 177.581722,363 182,363 L190,363 Z" id="Combined-Shape" fill="#FFFFFF"></path>
        </g>
    </g>
</svg>