<?xml version="1.0" encoding="UTF-8"?>
<svg width="1024px" height="1024px" viewBox="0 0 1024 1024" version="1.1" xmlns="http://www.w3.org/2000/svg" xmlns:xlink="http://www.w3.org/1999/xlink">
    <!-- Generator: Sketch 63.1 (92452) - https://sketch.com -->
    <title>App Icon / Apple / Contacts /@SVG</title>
    <desc>Created with Sketch.</desc>
    <defs>
        <rect id="path-1" x="0" y="0" width="1024" height="1024"></rect>
        <rect id="path-3" x="896" y="511" width="128" height="256"></rect>
        <filter x="-52.7%" y="-20.5%" width="205.5%" height="152.7%" filterUnits="objectBoundingBox" id="filter-4">
            <feOffset dx="0" dy="15" in="SourceAlpha" result="shadowOffsetOuter1"></feOffset>
            <feGaussianBlur stdDeviation="20" in="shadowOffsetOuter1" result="shadowBlurOuter1"></feGaussianBlur>
            <feColorMatrix values="0 0 0 0 0   0 0 0 0 0   0 0 0 0 0  0 0 0 0.25 0" type="matrix" in="shadowBlurOuter1"></feColorMatrix>
        </filter>
        <rect id="path-5" x="896" y="255" width="128" height="256"></rect>
        <filter x="-52.7%" y="-20.5%" width="205.5%" height="152.7%" filterUnits="objectBoundingBox" id="filter-6">
            <feOffset dx="0" dy="15" in="SourceAlpha" result="shadowOffsetOuter1"></feOffset>
            <feGaussianBlur stdDeviation="20" in="shadowOffsetOuter1" result="shadowBlurOuter1"></feGaussianBlur>
            <feColorMatrix values="0 0 0 0 0   0 0 0 0 0   0 0 0 0 0  0 0 0 0.25 0" type="matrix" in="shadowBlurOuter1"></feColorMatrix>
        </filter>
        <rect id="path-7" x="896" y="0" width="128" height="256"></rect>
        <filter x="-52.7%" y="-20.5%" width="205.5%" height="152.7%" filterUnits="objectBoundingBox" id="filter-8">
            <feOffset dx="0" dy="15" in="SourceAlpha" result="shadowOffsetOuter1"></feOffset>
            <feGaussianBlur stdDeviation="20" in="shadowOffsetOuter1" result="shadowBlurOuter1"></feGaussianBlur>
            <feColorMatrix values="0 0 0 0 0   0 0 0 0 0   0 0 0 0 0  0 0 0 0.25 0" type="matrix" in="shadowBlurOuter1"></feColorMatrix>
        </filter>
        <rect id="path-9" x="0" y="0" width="896" height="1024"></rect>
        <filter x="-5.9%" y="-6.6%" width="115.1%" height="113.2%" filterUnits="objectBoundingBox" id="filter-10">
            <feOffset dx="15" dy="0" in="SourceAlpha" result="shadowOffsetOuter1"></feOffset>
            <feGaussianBlur stdDeviation="20" in="shadowOffsetOuter1" result="shadowBlurOuter1"></feGaussianBlur>
            <feColorMatrix values="0 0 0 0 0   0 0 0 0 0   0 0 0 0 0  0 0 0 0.25 0" type="matrix" in="shadowBlurOuter1"></feColorMatrix>
        </filter>
    </defs>
    <g id="App-Icon-/-Apple-/-Contacts-/" stroke="none" stroke-width="1" fill="none" fill-rule="evenodd">
        <mask id="mask-2" fill="white">
            <use xlink:href="#path-1"></use>
        </mask>
        <use id="Origin-Color" fill="#FFFFFF" xlink:href="#path-1"></use>
        <g id="Group" mask="url(#mask-2)">
            <rect id="Rectangle-Copy-3" fill="#4CD964" x="896" y="767" width="128" height="256"></rect>
            <g id="Rectangle-Copy-2">
                <use fill="black" fill-opacity="1" filter="url(#filter-4)" xlink:href="#path-3"></use>
                <use fill="#FF9500" fill-rule="evenodd" xlink:href="#path-3"></use>
            </g>
            <g id="Rectangle-Copy">
                <use fill="black" fill-opacity="1" filter="url(#filter-6)" xlink:href="#path-5"></use>
                <use fill="#5AC8FA" fill-rule="evenodd" xlink:href="#path-5"></use>
            </g>
            <g id="Rectangle">
                <use fill="black" fill-opacity="1" filter="url(#filter-8)" xlink:href="#path-7"></use>
                <use fill="#D0CDC7" fill-rule="evenodd" xlink:href="#path-7"></use>
            </g>
            <g id="Rectangle">
                <use fill="black" fill-opacity="1" filter="url(#filter-10)" xlink:href="#path-9"></use>
                <use fill="#DFDDD6" fill-rule="evenodd" xlink:href="#path-9"></use>
            </g>
            <path d="M448,835 C446.227955,835 444.459232,834.985774 442.69394,834.95743 C442.670655,834.957056 442.647343,834.95668 442.624032,834.9563 L442.69394,834.95743 C440.93586,834.929202 439.181184,834.886971 437.430017,834.830844 C437.369927,834.828918 437.309975,834.82698 437.250026,834.825026 C435.577819,834.770514 433.908686,834.703324 432.242851,834.623553 C432.117059,834.61753 431.990819,834.611412 431.864597,834.605221 C430.237543,834.525422 428.614061,834.433648 426.993819,834.329964 C426.845038,834.320444 426.695801,834.310791 426.546591,834.301037 C424.943031,834.196211 423.343265,834.079768 421.746765,833.951751 C421.573993,833.937898 421.400735,833.923866 421.227516,833.909697 C419.68608,833.783615 418.148263,833.646798 416.613573,833.499274 C416.369117,833.475776 416.124526,833.451984 415.880015,833.427921 C414.342586,833.276619 412.808408,833.11458 411.277461,832.941873 C411.087671,832.920463 410.897383,832.898826 410.707146,832.877025 C409.161335,832.69987 407.619299,832.511898 406.080647,832.313131 C405.881995,832.287469 405.683017,832.261577 405.484095,832.235504 C403.973429,832.037501 402.466251,831.829121 400.962421,831.610412 C400.71753,831.574797 400.472526,831.538877 400.22761,831.502684 C398.73634,831.282305 397.248447,831.051776 395.763937,830.811161 C395.549659,830.77643 395.335651,830.741521 395.121714,830.706403 C393.632737,830.461987 392.146922,830.207373 390.664598,829.94268 C390.425907,829.900058 390.187196,829.857154 389.948576,829.813989 C388.472981,829.547062 387.001051,829.270179 385.53267,828.983378 C385.311361,828.940153 385.090293,828.896733 384.869305,828.853089 C383.370995,828.557181 381.876122,828.250884 380.38504,827.934332 C380.209248,827.897011 380.03382,827.859615 379.858444,827.822077 C378.341534,827.497391 376.828286,827.162025 375.319059,826.816118 C375.160679,826.779818 375.002562,826.743453 374.844489,826.706971 C373.313058,826.353537 371.785668,825.989219 370.262517,825.614129 C370.142889,825.584669 370.023112,825.5551 369.903362,825.525464 C368.358015,825.143022 366.81718,824.749525 365.280808,824.345028 C365.163261,824.31408 365.045807,824.283085 364.928379,824.252026 C363.3803,823.842571 361.836657,823.421914 360.297647,822.990177 C360.214794,822.966933 360.132698,822.943868 360.050615,822.92077 C358.490411,822.481747 356.934268,822.031122 355.382996,821.569191 C355.297471,821.543724 355.211349,821.518039 355.125242,821.49232 C353.559907,821.024773 352.000071,820.545878 350.445298,820.055575 L350.435891,820.052608 C350.420171,820.04765 350.404451,820.042691 350.388732,820.037731 C348.824621,819.544163 347.266162,819.039224 345.712925,818.522846 C345.658273,818.504677 345.603027,818.486294 345.547788,818.467896 C344.049528,817.968891 342.55674,817.459454 341.068904,816.939469 C340.929836,816.890867 340.791004,816.842239 340.652214,816.79352 C339.209924,816.287232 337.771927,815.770892 336.338679,815.244714 C336.171694,815.18341 336.00488,815.122011 335.838131,815.06048 C334.400177,814.529866 332.966895,813.989295 331.538494,813.438896 C331.399902,813.385493 331.261057,813.331882 331.122258,813.278178 C329.690116,812.724052 328.26331,812.160209 326.841506,811.58657 C326.6909,811.525807 326.540367,811.464941 326.389892,811.403965 C324.986258,810.835186 323.587425,810.256817 322.193565,809.668975 C322.018464,809.595128 321.843571,809.521187 321.668758,809.447097 C320.288063,808.861928 318.912147,808.267405 317.541209,807.663658 C317.371548,807.588941 317.201626,807.513934 317.031781,807.438785 C315.661697,806.832584 314.296821,806.217262 312.937012,805.592802 C312.758923,805.511019 312.580614,805.428938 312.402394,805.3467 C311.057935,804.726315 309.718548,804.097036 308.384209,803.458894 C308.199261,803.370443 308.014279,803.281759 307.829393,803.192905 C306.49257,802.550439 305.160752,801.899028 303.8341,801.238788 C303.65907,801.151681 303.483703,801.064206 303.308427,800.976577 C301.988141,800.316504 300.673226,799.647799 299.363522,798.970421 C299.1714,798.871056 298.979654,798.771641 298.788019,798.67204 C297.483893,797.994227 296.1847,797.307669 294.890776,796.612575 C294.718613,796.520089 294.546857,796.427621 294.375194,796.335003 C293.047729,795.618791 291.725493,794.893398 290.408909,794.159088 C290.292772,794.094314 290.176669,794.029465 290.060609,793.964546 C288.720477,793.214934 287.3862,792.456068 286.057882,791.688044 C285.92781,791.612837 285.79799,791.537655 285.668228,791.462387 C284.372787,790.710965 283.082931,789.950767 281.798843,789.18193 C281.609502,789.068563 281.420589,788.955191 281.231801,788.841631 C279.968012,788.08144 278.709585,787.312715 277.456849,786.535685 C277.333418,786.459125 277.209895,786.382393 277.086427,786.30558 C275.778223,785.491705 274.476321,784.668815 273.180732,783.836949 C273.09686,783.783097 273.012695,783.729001 272.928557,783.674868 C271.600624,782.820498 270.279671,781.956914 268.965456,781.083994 C268.91324,781.049312 268.861118,781.01467 268.809006,780.980013 C266.121611,779.192766 263.462384,777.366432 260.832179,775.501852 C260.770349,775.458021 260.708843,775.414386 260.647352,775.37073 C259.341296,774.443487 258.042062,773.506554 256.7501,772.560281 C256.703671,772.526275 256.657117,772.492158 256.610572,772.458029 C255.315122,771.508141 254.027127,770.548959 252.746551,769.580483 C252.700228,769.545449 252.653987,769.510459 252.607756,769.475456 C251.402611,768.563014 250.203959,767.64227 249.011971,766.713373 C248.854899,766.59097 248.697843,766.468347 248.540903,766.345582 C247.358308,765.42051 246.182381,764.487463 245.013125,763.546463 C244.901326,763.456488 244.78982,763.366628 244.678374,763.276695 C243.489744,762.317516 242.30781,761.349923 241.132882,760.374184 C241.028593,760.287576 240.924042,760.200639 240.819546,760.113638 C239.66096,759.149017 238.50951,758.176722 237.364974,757.196586 C237.237262,757.087218 237.10971,756.977816 236.982245,756.868317 C235.849963,755.895633 234.724366,754.915166 233.605647,753.927091 C233.474793,753.811519 233.343538,753.695403 233.212377,753.579183 C232.102126,752.595395 230.999189,751.604566 229.903127,750.606319 C229.762958,750.478659 229.622637,750.350637 229.48243,750.222493 C228.413269,749.245321 227.35087,748.261255 226.295116,747.270194 C226.123868,747.109439 225.95284,746.948543 225.781986,746.787463 C224.728723,745.79445 223.68192,744.794273 222.641846,743.787187 C222.498188,743.648085 222.354776,743.508966 222.211493,743.369716 C221.16673,742.354364 220.128584,741.331818 219.09734,740.302361 C218.942011,740.147302 218.786232,739.991478 218.63061,739.835495 C217.595966,738.798454 216.568083,737.754206 215.547268,736.703056 C215.43181,736.584167 215.316551,736.465301 215.201382,736.346348 C214.870481,736.004574 214.540229,735.661972 214.210725,735.318645 C158.33697,677.098942 124,598.059386 124,511 C124,332.059741 269.059741,187 448,187 C626.940259,187 772,332.059741 772,511 C772,598.058391 737.663815,677.097136 681.795022,735.312657 C681.789253,735.307834 681.789651,735.309505 681.79005,735.311175 L681.291627,735.836028 C680.88724,736.255528 680.481731,736.673939 680.075106,737.091258 L681.79005,735.311175 C680.479073,736.677297 679.156241,738.03195 677.82172,739.374969 C677.404796,739.800773 676.983536,740.222367 676.561122,740.642803 C675.760961,741.433147 674.959761,742.222444 674.15449,743.007581 C673.784965,743.373738 673.411467,743.736131 673.037101,744.097631 C672.232613,744.868736 671.427039,745.638738 670.617516,746.404609 C670.198208,746.806845 669.775068,747.205002 669.350859,747.60203 C668.549031,748.347084 667.74618,749.090999 666.93957,749.83088 C666.515304,750.22526 666.087665,750.6154 665.658979,751.004408 C664.818907,751.76165 663.976961,752.517767 663.131053,753.269519 C662.749194,753.613771 662.36404,753.954402 661.978071,754.294129 C661.099308,755.062837 660.21891,755.829455 659.334352,756.591375 C658.972745,756.907442 658.60828,757.219953 658.243114,757.531667 C657.317529,758.317288 656.389859,759.100302 655.457754,759.878177 C655.113664,760.169638 654.766685,760.457963 654.419095,760.745577 C653.473351,761.523941 652.525036,762.299711 651.572265,763.070187 C651.231638,763.349668 650.888692,763.62583 650.545172,763.901306 C649.601845,764.653859 648.655994,765.403808 647.705879,766.148564 L647.29811,766.471431 C647.056975,766.659812 646.815567,766.84786 646.573886,767.035572 C645.603686,767.785463 644.630932,768.532272 643.653841,769.273663 L643.34799,769.508956 C643.139858,769.666482 642.931529,769.823762 642.723005,769.980797 C641.758188,770.703959 640.790776,771.424148 639.819229,772.139045 C639.451529,772.412883 639.081734,772.683769 638.711343,772.953888 C637.749836,773.651922 636.785646,774.347072 635.817501,775.037029 C635.448284,775.303198 635.077059,775.566563 634.705256,775.829164 C633.726345,776.517608 632.74498,777.202691 631.759667,777.882457 C631.409999,778.126517 631.058601,778.36791 630.706704,778.608628 C629.689764,779.301532 628.669803,779.99081 627.645728,780.674409 C627.307345,780.902906 626.967186,781.129031 626.626577,781.354529 C625.529644,782.07821 624.429329,782.797139 623.324403,783.50953 C623.126009,783.639857 622.92628,783.768312 622.726401,783.896554 C621.569554,784.636433 620.408787,785.370859 619.243063,786.098081 C618.962824,786.275133 618.681392,786.450091 618.399672,786.624629 C617.265309,787.325262 616.126851,788.020948 614.983795,788.709774 C614.676062,788.897267 614.366745,789.082953 614.057092,789.268137 C612.893882,789.961801 611.727051,790.649755 610.555563,791.330575 C610.302663,791.479423 610.048418,791.626709 609.793954,791.773659 C608.594941,792.464261 607.392161,793.148648 606.184603,793.825525 C605.932408,793.968601 605.679202,794.110076 605.425786,794.251221 C604.238123,794.911062 603.046608,795.564939 601.850567,796.211512 C601.54582,796.377817 601.239678,796.54267 600.93324,796.707043 C599.733895,797.34887 598.531097,797.984347 597.323848,798.612446 C597.064508,798.748789 596.804405,798.883657 596.544095,799.018183 C595.305815,799.656751 594.06345,800.28868 592.816499,800.9128 C592.555231,801.044849 592.293206,801.175544 592.03098,801.305895 C590.792728,801.920185 589.55068,802.527715 588.304203,803.1275 C588.02801,803.261555 587.750701,803.394498 587.473174,803.527057 C586.213113,804.127806 584.949497,804.721357 583.681455,805.306952 C583.436804,805.420972 583.191529,805.533863 582.946088,805.646457 C581.655678,806.237428 580.361295,806.820935 579.062424,807.396153 C578.819829,807.504516 578.576934,807.61172 578.333883,807.718634 C577.03442,808.289361 575.730466,808.852726 574.42211,809.407738 C574.173869,809.513869 573.925014,809.619061 573.676,809.72395 C572.353455,810.280241 571.026912,810.828627 569.695968,811.368423 C569.467071,811.461989 569.237597,811.554746 569.007993,811.647247 C567.660281,812.189504 566.308417,812.723553 564.952137,813.248734 C564.753283,813.326379 564.554463,813.403136 564.355549,813.479702 C562.964611,814.014489 561.568976,814.540621 560.168792,815.057357 C559.982207,815.126781 559.795439,815.195508 559.608591,815.264067 C558.19403,815.782567 556.775015,816.291982 555.351456,816.791737 C555.19706,816.846431 555.042268,816.900638 554.887422,816.95473 C553.439376,817.460105 551.98686,817.955906 550.52974,818.441636 L550.409059,818.482265 C550.308077,818.515882 550.207072,818.54945 550.106046,818.58297 C548.61297,819.077962 547.11477,819.562904 545.611837,820.037185 C545.595549,820.042691 545.579829,820.04765 545.564109,820.052608 L545.554742,820.055197 C543.999966,820.545519 542.440128,821.024432 540.875325,821.491837 C540.788651,821.518039 540.702529,821.543724 540.616392,821.569373 C539.065763,822.030818 537.509619,822.481459 535.948699,822.920698 C535.867302,822.943868 535.785206,822.966933 535.703097,822.989968 C534.16337,823.421659 532.619725,823.84233 531.071537,824.251827 C530.954193,824.283085 530.836739,824.31408 530.719259,824.34501 C529.219652,824.739621 527.715838,825.12396 526.207855,825.497735 C526.024862,825.543275 525.841725,825.588497 525.658526,825.633562 C524.156712,826.002825 522.650888,826.361771 521.141029,826.710164 C520.989406,826.745299 520.837297,826.78028 520.685148,826.815154 C519.174272,827.16132 517.659755,827.496987 516.141292,827.822013 C515.96618,827.859615 515.790752,827.897011 515.615272,827.934266 C514.123889,828.250773 512.629016,828.557077 511.130429,828.853047 C510.909707,828.896733 510.688639,828.940153 510.46749,828.983347 C508.998958,829.270092 507.527027,829.546981 506.05162,829.81388 C505.812804,829.857154 505.574093,829.900058 505.335292,829.942699 C503.853085,830.207307 502.367269,830.461925 500.878034,830.706389 C500.664349,830.741521 500.450341,830.77643 500.236264,830.811128 C498.751558,831.051727 497.263665,831.28226 495.772463,831.502633 C495.527474,831.538877 495.28247,831.574797 495.037376,831.610442 C493.533753,831.829086 492.026574,832.037469 490.516122,832.235447 C490.316983,832.261577 490.118005,832.287469 489.91897,832.313181 C488.380703,832.511873 486.838667,832.699848 485.293326,832.876951 C485.102617,832.898826 484.912329,832.920463 484.721991,832.941935 C483.191593,833.114564 481.657415,833.276605 480.120082,833.4279 C479.875474,833.451984 479.630883,833.475776 479.386213,833.499295 C477.851738,833.646788 476.31392,833.783607 474.77305,833.909644 C474.599265,833.923866 474.426007,833.937898 474.252711,833.951793 C472.656735,834.079762 471.056969,834.196206 469.454023,834.300993 C469.304199,834.310791 469.154962,834.320444 469.005697,834.329995 C467.385939,834.433645 465.762457,834.52542 464.135822,834.605199 C464.009181,834.611412 463.882941,834.61753 463.756681,834.623576 C462.091314,834.703323 460.422181,834.770513 458.749844,834.82503 C458.690025,834.82698 458.630073,834.828918 458.570116,834.83084 C456.84204,834.886227 455.110679,834.928079 453.376004,834.9563 L453.375968,834.9563 C451.587489,834.985396 449.79545,835 448,835 Z M448,215 C284.523714,215 152,347.523714 152,511 C152,586.262432 180.089278,654.964262 226.356301,707.193957 C259.463818,655.139745 346.205546,618 448,618 C549.796407,618 636.53951,655.141171 669.649258,707.190939 C715.911083,654.963379 744,586.261948 744,511 C744,347.523714 611.476286,215 448,215 Z M448,325 C507.646753,325 556,378.72583 556,445 C556,511.27417 507.646753,565 448,565 C388.353247,565 340,511.27417 340,445 C340,378.72583 388.353247,325 448,325 Z" id="Combined-Shape" fill="#B8B1AB" fill-rule="nonzero"></path>
        </g>
    </g>
</svg>