<?xml version="1.0" encoding="UTF-8"?>
<svg width="1024px" height="1024px" viewBox="0 0 1024 1024" version="1.1" xmlns="http://www.w3.org/2000/svg" xmlns:xlink="http://www.w3.org/1999/xlink">
    <!-- Generator: Sketch 63.1 (92452) - https://sketch.com -->
    <title>App Icon / Apple / AppleTV /@SVG</title>
    <desc>Created with Sketch.</desc>
    <defs>
        <linearGradient x1="50%" y1="0%" x2="50%" y2="100%" id="linearGradient-1">
            <stop stop-color="#3D3D3D" offset="0%"></stop>
            <stop stop-color="#000000" offset="100%"></stop>
        </linearGradient>
    </defs>
    <g id="App-Icon-/-Apple-/-AppleTV-/" stroke="none" stroke-width="1" fill="none" fill-rule="evenodd">
        <rect id="Origin-Color" fill="url(#linearGradient-1)" x="0" y="0" width="1024" height="1024"></rect>
        <g id="Template"></g>
        <path d="M370.985514,392.461728 C383.885547,392.475112 419.285636,397.36999 440.58538,430.202069 C438.942829,431.232673 399.842107,452.982419 399.842107,501.206627 C401.684969,556.203371 449.185402,575.490378 450,575.490378 C449.185402,576.520981 442.828864,601.764072 423.999623,628.225148 C409.056417,651.018883 392.47066,674 367.284881,674 C343.327677,674 334.727655,658.808638 307.084727,658.808638 C277.398626,658.808638 268.998915,674 246.270285,674 C221.084506,674 203.270175,649.787513 187.51237,627.207929 C167.040579,597.655043 149.640224,551.27789 149.025936,506.747793 C148.61196,483.150991 153.125636,459.955723 164.58343,440.253798 C180.75521,412.748734 209.626713,394.077413 241.155676,393.461728 C265.313191,392.645276 286.813246,410.085226 301.556141,410.085226 C315.684749,410.085226 341.099102,392.461728 370.985514,392.461728 Z M565.813473,351.102539 L565.813473,412.136719 L614.83691,412.136719 L614.83691,454.051758 L565.813473,454.051758 L565.813473,596.219727 C565.813473,618.525391 575.61816,628.575195 597.188473,628.575195 C602.581051,628.575195 611.160152,628.084961 614.591793,627.349609 L614.591793,627.349609 L614.591793,669.264648 C608.70898,670.735352 596.943355,671.71582 585.17773,671.71582 C532.96777,671.71582 512.623043,651.861328 512.623043,602.102539 L512.623043,602.102539 L512.623043,454.051758 L475.120113,454.051758 L475.120113,412.136719 L512.623043,412.136719 L512.623043,351.102539 L565.813473,351.102539 Z M697.810059,412.136719 L762.520996,618.280273 L763.501465,618.280273 L828.212402,412.136719 L883.608887,412.136719 L791.199707,670 L734.33252,670 L641.433105,412.136719 L697.810059,412.136719 Z M373.828376,304 C375.056951,325.54898 367.914943,347.107872 354,362.5 C341.513943,379.123499 318.857504,391.462741 299,389 C294.699989,367.45102 307.084727,345.652438 318.141898,331.906598 C332.270506,315.283099 354.585159,304 373.828376,304 Z" id="Combined-Shape" fill="#FFFFFF" fill-rule="nonzero"></path>
    </g>
</svg>