<?xml version="1.0" encoding="UTF-8"?>
<svg width="1024px" height="1024px" viewBox="0 0 1024 1024" version="1.1" xmlns="http://www.w3.org/2000/svg" xmlns:xlink="http://www.w3.org/1999/xlink">
    <!-- Generator: Sketch 63.1 (92452) - https://sketch.com -->
    <title>App Icon / Apple / AppleTV /@SVG</title>
    <desc>Created with Sketch.</desc>
    <defs>
        <linearGradient x1="50%" y1="0%" x2="50%" y2="100%" id="linearGradient-1">
            <stop stop-color="#3D3D3D" offset="0%"></stop>
            <stop stop-color="#000000" offset="100%"></stop>
        </linearGradient>
    </defs>
    <g id="App-Icon-/-Apple-/-AppleTV-/" stroke="none" stroke-width="1" fill="none" fill-rule="evenodd">
        <rect id="Origin-Color" fill="url(#linearGradient-1)" x="0" y="0" width="1024" height="1024"></rect>
        <g id="Combined-Shape-2" transform="translate(149.000000, 304.000000)" fill="#FFFFFF" fill-rule="nonzero">
            <path d="M291.58538,126.202069 C289.942829,127.232673 250.842107,148.982419 250.842107,197.206627 C252.684969,252.203371 300.185402,271.490378 301,271.490378 C300.185402,272.520981 293.828864,297.764072 274.999623,324.225148 C260.056417,347.018883 243.47066,370 218.284881,370 C194.327677,370 185.727655,354.808638 158.084727,354.808638 C128.398626,354.808638 119.998915,370 97.270285,370 C72.0845062,370 54.2701748,345.787513 38.5123704,323.207929 C18.0405788,293.655043 0.640223597,247.27789 0.0259363079,202.747793 C-0.388039909,179.150991 4.12563626,155.955723 15.5834296,136.253798 C31.7552102,108.748734 60.6267128,90.0774128 92.1556757,89.4617277 C116.313191,88.6452756 137.813246,106.085226 152.556141,106.085226 C166.684749,106.085226 192.099102,88.4617277 221.985514,88.4617277 C234.885547,88.4751121 270.285636,93.3699899 291.58538,126.202069 Z M150,85 C145.699989,63.4510201 158.084727,41.6524381 169.141898,27.9065982 C183.270506,11.2830994 205.585159,-5.68434189e-14 224.828376,-5.68434189e-14 C226.056951,21.5489799 218.914943,43.1078715 205,58.5 C192.513943,75.1234988 169.857504,87.4627406 150,85 Z M436.17773,367.71582 C447.943355,367.71582 459.70898,366.735352 465.591793,365.264648 L465.591793,323.349609 C462.160152,324.084961 453.581051,324.575195 448.188473,324.575195 C426.61816,324.575195 416.813473,314.525391 416.813473,292.219727 L416.813473,150.051758 L465.83691,150.051758 L465.83691,108.136719 L416.813473,108.136719 L416.813473,47.1025391 L363.623043,47.1025391 L363.623043,108.136719 L326.120113,108.136719 L326.120113,150.051758 L363.623043,150.051758 L363.623043,298.102539 C363.623043,347.861328 383.96777,367.71582 436.17773,367.71582 Z M642.199707,366 L734.608887,108.136719 L679.212402,108.136719 L614.501465,314.280273 L613.520996,314.280273 L548.810059,108.136719 L492.433105,108.136719 L585.33252,366 L642.199707,366 Z" id="Combined-Shape"></path>
        </g>
    </g>
</svg>