<?xml version="1.0" encoding="UTF-8"?>
<svg width="1024px" height="1024px" viewBox="0 0 1024 1024" version="1.1" xmlns="http://www.w3.org/2000/svg" xmlns:xlink="http://www.w3.org/1999/xlink">
    <!-- Generator: Sketch 63.1 (92452) - https://sketch.com -->
    <title>App Icon / Apple / Measure /@SVG</title>
    <desc>Created with Sketch.</desc>
    <g id="App-Icon-/-Apple-/-Measure-/" stroke="none" stroke-width="1" fill="none" fill-rule="evenodd">
        <rect id="Origin-Color" fill="#171717" x="0" y="0" width="1024" height="1024"></rect>
        <g id="Template"></g>
        <rect id="Rectangle" fill="#303030" x="0" y="181" width="1024" height="662"></rect>
        <path d="M61,220 C63.209139,220 65,221.790861 65,224 L65,384 C65,386.209139 63.209139,388 61,388 C58.790861,388 57,386.209139 57,384 L57,224 C57,221.790861 58.790861,220 61,220 Z M658,220 C660.209139,220 662,221.790861 662,224 L662,358 C662,360.209139 660.209139,362 658,362 C655.790861,362 654,360.209139 654,358 L654,224 C654,221.790861 655.790861,220 658,220 Z M211,220 C213.209139,220 215,221.790861 215,224 L215,304 C215,306.209139 213.209139,308 211,308 C208.790861,308 207,306.209139 207,304 L207,224 C207,221.790861 208.790861,220 211,220 Z M360,220 C362.209139,220 364,221.790861 364,224 L364,304 C364,306.209139 362.209139,308 360,308 C357.790861,308 356,306.209139 356,304 L356,224 C356,221.790861 357.790861,220 360,220 Z M508,220 C510.209139,220 512,221.790861 512,224 L512,304 C512,306.209139 510.209139,308 508,308 C505.790861,308 504,306.209139 504,304 L504,224 C504,221.790861 505.790861,220 508,220 Z M806,220 C808.209139,220 810,221.790861 810,224 L810,304 C810,306.209139 808.209139,308 806,308 C803.790861,308 802,306.209139 802,304 L802,224 C802,221.790861 803.790861,220 806,220 Z M955,220 C957.209139,220 959,221.790861 959,224 L959,304 C959,306.209139 957.209139,308 955,308 C952.790861,308 951,306.209139 951,304 L951,224 C951,221.790861 952.790861,220 955,220 Z M136,220 C138.209139,220 140,221.790861 140,224 L140,278 C140,280.209139 138.209139,282 136,282 C133.790861,282 132,280.209139 132,278 L132,224 C132,221.790861 133.790861,220 136,220 Z M285,220 C287.209139,220 289,221.790861 289,224 L289,278 C289,280.209139 287.209139,282 285,282 C282.790861,282 281,280.209139 281,278 L281,224 C281,221.790861 282.790861,220 285,220 Z M434,220 C436.209139,220 438,221.790861 438,224 L438,278 C438,280.209139 436.209139,282 434,282 C431.790861,282 430,280.209139 430,278 L430,224 C430,221.790861 431.790861,220 434,220 Z M583,220 C585.209139,220 587,221.790861 587,224 L587,278 C587,280.209139 585.209139,282 583,282 C580.790861,282 579,280.209139 579,278 L579,224 C579,221.790861 580.790861,220 583,220 Z M732,220 C734.209139,220 736,221.790861 736,224 L736,278 C736,280.209139 734.209139,282 732,282 C729.790861,282 728,280.209139 728,278 L728,224 C728,221.790861 729.790861,220 732,220 Z M881,220 C883.209139,220 885,221.790861 885,224 L885,278 C885,280.209139 883.209139,282 881,282 C878.790861,282 877,280.209139 877,278 L877,224 C877,221.790861 878.790861,220 881,220 Z" id="Stripes" fill="#FFFFFF"></path>
        <path d="M64,480 C81.673112,480 96,494.326888 96,512 C96,529.673112 81.673112,544 64,544 C46.326888,544 32,529.673112 32,512 C32,494.326888 46.326888,480 64,480 Z M960,480 C977.673112,480 992,494.326888 992,512 C992,529.673112 977.673112,544 960,544 C942.326888,544 928,529.673112 928,512 C928,494.326888 942.326888,480 960,480 Z M140,501 L140,523 L119,523 L119,501 L140,501 Z M182.5,501 L182.5,523 L161.5,523 L161.5,501 L182.5,501 Z M225,501 L225,523 L204,523 L204,501 L225,501 Z M267.5,501 L267.5,523 L246.5,523 L246.5,501 L267.5,501 Z M310,501 L310,523 L289,523 L289,501 L310,501 Z M352.5,501 L352.5,523 L331.5,523 L331.5,501 L352.5,501 Z M395,501 L395,523 L374,523 L374,501 L395,501 Z M437.5,501 L437.5,523 L416.5,523 L416.5,501 L437.5,501 Z M480,501 L480,523 L459,523 L459,501 L480,501 Z M522.5,501 L522.5,523 L501.5,523 L501.5,501 L522.5,501 Z M565,501 L565,523 L544,523 L544,501 L565,501 Z M607.5,501 L607.5,523 L586.5,523 L586.5,501 L607.5,501 Z M650,501 L650,523 L629,523 L629,501 L650,501 Z M692.5,501 L692.5,523 L671.5,523 L671.5,501 L692.5,501 Z M735,501 L735,523 L714,523 L714,501 L735,501 Z M777.5,501 L777.5,523 L756.5,523 L756.5,501 L777.5,501 Z M820,501 L820,523 L799,523 L799,501 L820,501 Z M862.5,501 L862.5,523 L841.5,523 L841.5,501 L862.5,501 Z M905,501 L905,523 L884,523 L884,501 L905,501 Z" id="Combined-Shape" fill="#FFCC00"></path>
        <path d="M43,689 C45.209139,689 47,690.790861 47,693 L47,800 C47,802.209139 45.209139,804 43,804 C40.790861,804 39,802.209139 39,800 L39,693 C39,690.790861 40.790861,689 43,689 Z M90,742 C92.209139,742 94,743.790861 94,746 L94,800 C94,802.209139 92.209139,804 90,804 C87.790861,804 86,802.209139 86,800 L86,746 C86,743.790861 87.790861,742 90,742 Z M137,742 C139.209139,742 141,743.790861 141,746 L141,800 C141,802.209139 139.209139,804 137,804 C134.790861,804 133,802.209139 133,800 L133,746 C133,743.790861 134.790861,742 137,742 Z M184,742 C186.209139,742 188,743.790861 188,746 L188,800 C188,802.209139 186.209139,804 184,804 C181.790861,804 180,802.209139 180,800 L180,746 C180,743.790861 181.790861,742 184,742 Z M231,742 C233.209139,742 235,743.790861 235,746 L235,800 C235,802.209139 233.209139,804 231,804 C228.790861,804 227,802.209139 227,800 L227,746 C227,743.790861 228.790861,742 231,742 Z M278,636 C280.209139,636 282,637.790861 282,640 L282,800 C282,802.209139 280.209139,804 278,804 C275.790861,804 274,802.209139 274,800 L274,640 C274,637.790861 275.790861,636 278,636 Z M325,742 C327.209139,742 329,743.790861 329,746 L329,800 C329,802.209139 327.209139,804 325,804 C322.790861,804 321,802.209139 321,800 L321,746 C321,743.790861 322.790861,742 325,742 Z M372,742 C374.209139,742 376,743.790861 376,746 L376,800 C376,802.209139 374.209139,804 372,804 C369.790861,804 368,802.209139 368,800 L368,746 C368,743.790861 369.790861,742 372,742 Z M419,742 C421.209139,742 423,743.790861 423,746 L423,800 C423,802.209139 421.209139,804 419,804 C416.790861,804 415,802.209139 415,800 L415,746 C415,743.790861 416.790861,742 419,742 Z M466,742 C468.209139,742 470,743.790861 470,746 L470,800 C470,802.209139 468.209139,804 466,804 C463.790861,804 462,802.209139 462,800 L462,746 C462,743.790861 463.790861,742 466,742 Z M512,689 C514.209139,689 516,690.790861 516,693 L516,800 C516,802.209139 514.209139,804 512,804 C509.790861,804 508,802.209139 508,800 L508,693 C508,690.790861 509.790861,689 512,689 Z M558,742 C560.209139,742 562,743.790861 562,746 L562,800 C562,802.209139 560.209139,804 558,804 C555.790861,804 554,802.209139 554,800 L554,746 C554,743.790861 555.790861,742 558,742 Z M605,742 C607.209139,742 609,743.790861 609,746 L609,800 C609,802.209139 607.209139,804 605,804 C602.790861,804 601,802.209139 601,800 L601,746 C601,743.790861 602.790861,742 605,742 Z M652,742 C654.209139,742 656,743.790861 656,746 L656,800 C656,802.209139 654.209139,804 652,804 C649.790861,804 648,802.209139 648,800 L648,746 C648,743.790861 649.790861,742 652,742 Z M699,742 C701.209139,742 703,743.790861 703,746 L703,800 C703,802.209139 701.209139,804 699,804 C696.790861,804 695,802.209139 695,800 L695,746 C695,743.790861 696.790861,742 699,742 Z M746,636 C748.209139,636 750,637.790861 750,640 L750,800 C750,802.209139 748.209139,804 746,804 C743.790861,804 742,802.209139 742,800 L742,640 C742,637.790861 743.790861,636 746,636 Z M793,742 C795.209139,742 797,743.790861 797,746 L797,800 C797,802.209139 795.209139,804 793,804 C790.790861,804 789,802.209139 789,800 L789,746 C789,743.790861 790.790861,742 793,742 Z M840,742 C842.209139,742 844,743.790861 844,746 L844,800 C844,802.209139 842.209139,804 840,804 C837.790861,804 836,802.209139 836,800 L836,746 C836,743.790861 837.790861,742 840,742 Z M887,742 C889.209139,742 891,743.790861 891,746 L891,800 C891,802.209139 889.209139,804 887,804 C884.790861,804 883,802.209139 883,800 L883,746 C883,743.790861 884.790861,742 887,742 Z M934,742 C936.209139,742 938,743.790861 938,746 L938,800 C938,802.209139 936.209139,804 934,804 C931.790861,804 930,802.209139 930,800 L930,746 C930,743.790861 931.790861,742 934,742 Z M981,689 C983.209139,689 985,690.790861 985,693 L985,800 C985,802.209139 983.209139,804 981,804 C978.790861,804 977,802.209139 977,800 L977,693 C977,690.790861 978.790861,689 981,689 Z" id="Stripes" fill="#FFFFFF"></path>
    </g>
</svg>