<?xml version="1.0" encoding="UTF-8"?>
<svg width="1024px" height="1024px" viewBox="0 0 1024 1024" version="1.1" xmlns="http://www.w3.org/2000/svg" xmlns:xlink="http://www.w3.org/1999/xlink">
    <!-- Generator: Sketch 63.1 (92452) - https://sketch.com -->
    <title>App Icon / Apple / Measure /@SVG</title>
    <desc>Created with Sketch.</desc>
    <g id="App-Icon-/-Apple-/-Measure-/" stroke="none" stroke-width="1" fill="none" fill-rule="evenodd">
        <rect id="Origin-Color" fill="#171717" x="0" y="0" width="1024" height="1024"></rect>
        <g id="Group-Copy" transform="translate(0.000000, 181.000000)">
            <rect id="Rectangle" fill="#303030" x="0" y="0" width="1024" height="662"></rect>
            <path d="M61,39 C63.209139,39 65,40.790861 65,43 L65,203 C65,205.209139 63.209139,207 61,207 C58.790861,207 57,205.209139 57,203 L57,43 C57,40.790861 58.790861,39 61,39 Z M658,39 C660.209139,39 662,40.790861 662,43 L662,177 C662,179.209139 660.209139,181 658,181 C655.790861,181 654,179.209139 654,177 L654,43 C654,40.790861 655.790861,39 658,39 Z M211,39 C213.209139,39 215,40.790861 215,43 L215,123 C215,125.209139 213.209139,127 211,127 C208.790861,127 207,125.209139 207,123 L207,43 C207,40.790861 208.790861,39 211,39 Z M360,39 C362.209139,39 364,40.790861 364,43 L364,123 C364,125.209139 362.209139,127 360,127 C357.790861,127 356,125.209139 356,123 L356,43 C356,40.790861 357.790861,39 360,39 Z M508,39 C510.209139,39 512,40.790861 512,43 L512,123 C512,125.209139 510.209139,127 508,127 C505.790861,127 504,125.209139 504,123 L504,43 C504,40.790861 505.790861,39 508,39 Z M806,39 C808.209139,39 810,40.790861 810,43 L810,123 C810,125.209139 808.209139,127 806,127 C803.790861,127 802,125.209139 802,123 L802,43 C802,40.790861 803.790861,39 806,39 Z M955,39 C957.209139,39 959,40.790861 959,43 L959,123 C959,125.209139 957.209139,127 955,127 C952.790861,127 951,125.209139 951,123 L951,43 C951,40.790861 952.790861,39 955,39 Z M136,39 C138.209139,39 140,40.790861 140,43 L140,97 C140,99.209139 138.209139,101 136,101 C133.790861,101 132,99.209139 132,97 L132,43 C132,40.790861 133.790861,39 136,39 Z M285,39 C287.209139,39 289,40.790861 289,43 L289,97 C289,99.209139 287.209139,101 285,101 C282.790861,101 281,99.209139 281,97 L281,43 C281,40.790861 282.790861,39 285,39 Z M434,39 C436.209139,39 438,40.790861 438,43 L438,97 C438,99.209139 436.209139,101 434,101 C431.790861,101 430,99.209139 430,97 L430,43 C430,40.790861 431.790861,39 434,39 Z M583,39 C585.209139,39 587,40.790861 587,43 L587,97 C587,99.209139 585.209139,101 583,101 C580.790861,101 579,99.209139 579,97 L579,43 C579,40.790861 580.790861,39 583,39 Z M732,39 C734.209139,39 736,40.790861 736,43 L736,97 C736,99.209139 734.209139,101 732,101 C729.790861,101 728,99.209139 728,97 L728,43 C728,40.790861 729.790861,39 732,39 Z M881,39 C883.209139,39 885,40.790861 885,43 L885,97 C885,99.209139 883.209139,101 881,101 C878.790861,101 877,99.209139 877,97 L877,43 C877,40.790861 878.790861,39 881,39 Z" id="Stripes" fill="#FFFFFF"></path>
            <path d="M64,299 C81.673112,299 96,313.326888 96,331 C96,348.673112 81.673112,363 64,363 C46.326888,363 32,348.673112 32,331 C32,313.326888 46.326888,299 64,299 Z M960,299 C977.673112,299 992,313.326888 992,331 C992,348.673112 977.673112,363 960,363 C942.326888,363 928,348.673112 928,331 C928,313.326888 942.326888,299 960,299 Z M140,320 L140,342 L119,342 L119,320 L140,320 Z M182.5,320 L182.5,342 L161.5,342 L161.5,320 L182.5,320 Z M225,320 L225,342 L204,342 L204,320 L225,320 Z M267.5,320 L267.5,342 L246.5,342 L246.5,320 L267.5,320 Z M310,320 L310,342 L289,342 L289,320 L310,320 Z M352.5,320 L352.5,342 L331.5,342 L331.5,320 L352.5,320 Z M395,320 L395,342 L374,342 L374,320 L395,320 Z M437.5,320 L437.5,342 L416.5,342 L416.5,320 L437.5,320 Z M480,320 L480,342 L459,342 L459,320 L480,320 Z M522.5,320 L522.5,342 L501.5,342 L501.5,320 L522.5,320 Z M565,320 L565,342 L544,342 L544,320 L565,320 Z M607.5,320 L607.5,342 L586.5,342 L586.5,320 L607.5,320 Z M650,320 L650,342 L629,342 L629,320 L650,320 Z M692.5,320 L692.5,342 L671.5,342 L671.5,320 L692.5,320 Z M735,320 L735,342 L714,342 L714,320 L735,320 Z M777.5,320 L777.5,342 L756.5,342 L756.5,320 L777.5,320 Z M820,320 L820,342 L799,342 L799,320 L820,320 Z M862.5,320 L862.5,342 L841.5,342 L841.5,320 L862.5,320 Z M905,320 L905,342 L884,342 L884,320 L905,320 Z" id="Combined-Shape" fill="#FFCC00"></path>
            <path d="M43,508 C45.209139,508 47,509.790861 47,512 L47,619 C47,621.209139 45.209139,623 43,623 C40.790861,623 39,621.209139 39,619 L39,512 C39,509.790861 40.790861,508 43,508 Z M90,561 C92.209139,561 94,562.790861 94,565 L94,619 C94,621.209139 92.209139,623 90,623 C87.790861,623 86,621.209139 86,619 L86,565 C86,562.790861 87.790861,561 90,561 Z M137,561 C139.209139,561 141,562.790861 141,565 L141,619 C141,621.209139 139.209139,623 137,623 C134.790861,623 133,621.209139 133,619 L133,565 C133,562.790861 134.790861,561 137,561 Z M184,561 C186.209139,561 188,562.790861 188,565 L188,619 C188,621.209139 186.209139,623 184,623 C181.790861,623 180,621.209139 180,619 L180,565 C180,562.790861 181.790861,561 184,561 Z M231,561 C233.209139,561 235,562.790861 235,565 L235,619 C235,621.209139 233.209139,623 231,623 C228.790861,623 227,621.209139 227,619 L227,565 C227,562.790861 228.790861,561 231,561 Z M278,455 C280.209139,455 282,456.790861 282,459 L282,619 C282,621.209139 280.209139,623 278,623 C275.790861,623 274,621.209139 274,619 L274,459 C274,456.790861 275.790861,455 278,455 Z M325,561 C327.209139,561 329,562.790861 329,565 L329,619 C329,621.209139 327.209139,623 325,623 C322.790861,623 321,621.209139 321,619 L321,565 C321,562.790861 322.790861,561 325,561 Z M372,561 C374.209139,561 376,562.790861 376,565 L376,619 C376,621.209139 374.209139,623 372,623 C369.790861,623 368,621.209139 368,619 L368,565 C368,562.790861 369.790861,561 372,561 Z M419,561 C421.209139,561 423,562.790861 423,565 L423,619 C423,621.209139 421.209139,623 419,623 C416.790861,623 415,621.209139 415,619 L415,565 C415,562.790861 416.790861,561 419,561 Z M466,561 C468.209139,561 470,562.790861 470,565 L470,619 C470,621.209139 468.209139,623 466,623 C463.790861,623 462,621.209139 462,619 L462,565 C462,562.790861 463.790861,561 466,561 Z M512,508 C514.209139,508 516,509.790861 516,512 L516,619 C516,621.209139 514.209139,623 512,623 C509.790861,623 508,621.209139 508,619 L508,512 C508,509.790861 509.790861,508 512,508 Z M558,561 C560.209139,561 562,562.790861 562,565 L562,619 C562,621.209139 560.209139,623 558,623 C555.790861,623 554,621.209139 554,619 L554,565 C554,562.790861 555.790861,561 558,561 Z M605,561 C607.209139,561 609,562.790861 609,565 L609,619 C609,621.209139 607.209139,623 605,623 C602.790861,623 601,621.209139 601,619 L601,565 C601,562.790861 602.790861,561 605,561 Z M652,561 C654.209139,561 656,562.790861 656,565 L656,619 C656,621.209139 654.209139,623 652,623 C649.790861,623 648,621.209139 648,619 L648,565 C648,562.790861 649.790861,561 652,561 Z M699,561 C701.209139,561 703,562.790861 703,565 L703,619 C703,621.209139 701.209139,623 699,623 C696.790861,623 695,621.209139 695,619 L695,565 C695,562.790861 696.790861,561 699,561 Z M746,455 C748.209139,455 750,456.790861 750,459 L750,619 C750,621.209139 748.209139,623 746,623 C743.790861,623 742,621.209139 742,619 L742,459 C742,456.790861 743.790861,455 746,455 Z M793,561 C795.209139,561 797,562.790861 797,565 L797,619 C797,621.209139 795.209139,623 793,623 C790.790861,623 789,621.209139 789,619 L789,565 C789,562.790861 790.790861,561 793,561 Z M840,561 C842.209139,561 844,562.790861 844,565 L844,619 C844,621.209139 842.209139,623 840,623 C837.790861,623 836,621.209139 836,619 L836,565 C836,562.790861 837.790861,561 840,561 Z M887,561 C889.209139,561 891,562.790861 891,565 L891,619 C891,621.209139 889.209139,623 887,623 C884.790861,623 883,621.209139 883,619 L883,565 C883,562.790861 884.790861,561 887,561 Z M934,561 C936.209139,561 938,562.790861 938,565 L938,619 C938,621.209139 936.209139,623 934,623 C931.790861,623 930,621.209139 930,619 L930,565 C930,562.790861 931.790861,561 934,561 Z M981,508 C983.209139,508 985,509.790861 985,512 L985,619 C985,621.209139 983.209139,623 981,623 C978.790861,623 977,621.209139 977,619 L977,512 C977,509.790861 978.790861,508 981,508 Z" id="Stripes" fill="#FFFFFF"></path>
        </g>
    </g>
</svg>