<?xml version="1.0" encoding="UTF-8"?>
<svg width="1024px" height="1024px" viewBox="0 0 1024 1024" version="1.1" xmlns="http://www.w3.org/2000/svg" xmlns:xlink="http://www.w3.org/1999/xlink">
    <!-- Generator: Sketch 63.1 (92452) - https://sketch.com -->
    <title>App Icon / Apple / VoiceMemos /@SVG</title>
    <desc>Created with Sketch.</desc>
    <g id="App-Icon-/-Apple-/-VoiceMemos-/" stroke="none" stroke-width="1" fill="none" fill-rule="evenodd">
        <rect id="Origin-Color" fill="#171717" x="0" y="0" width="1024" height="1024"></rect>
        <g id="Group" transform="translate(18.000000, 96.000000)">
            <path d="M508,0 C525.673112,0 540,14.326888 540,32 C540,46.5480685 530.29185,58.8286771 517.000542,62.7168337 L517.000542,769.283166 C530.29185,773.171323 540,785.451931 540,800 C540,817.673112 525.673112,832 508,832 C490.326888,832 476,817.673112 476,800 C476,785.451567 485.708636,773.170708 499.000457,769.282874 L499.000457,62.7171258 C485.708636,58.8292923 476,46.5484329 476,32 C476,14.326888 490.326888,0 508,0 Z" id="Combined-Shape" fill="#00AFFF"></path>
            <path d="M535.5,292 C540.19442,292 544,295.80558 544,300.5 L544,531.5 C544,536.19442 540.19442,540 535.5,540 C530.80558,540 527,536.19442 527,531.5 L527,300.5 C527,295.80558 530.80558,292 535.5,292 Z M618.5,347 C623.19442,347 627,350.80558 627,355.5 L627,476.5 C627,481.19442 623.19442,485 618.5,485 C613.80558,485 610,481.19442 610,476.5 L610,355.5 C610,350.80558 613.80558,347 618.5,347 Z M591.5,355 C596.19442,355 600,358.80558 600,363.5 L600,468.5 C600,473.19442 596.19442,477 591.5,477 C586.80558,477 583,473.19442 583,468.5 L583,363.5 C583,358.80558 586.80558,355 591.5,355 Z M563.5,361 C568.19442,361 572,364.80558 572,369.5 L572,462.5 C572,467.19442 568.19442,471 563.5,471 C558.80558,471 555,467.19442 555,462.5 L555,369.5 C555,364.80558 558.80558,361 563.5,361 Z M646.5,373 C651.19442,373 655,376.80558 655,381.5 L655,450.5 C655,455.19442 651.19442,459 646.5,459 C641.80558,459 638,455.19442 638,450.5 L638,381.5 C638,376.80558 641.80558,373 646.5,373 Z M701.5,379 C706.19442,379 710,382.80558 710,387.5 L710,444.5 C710,449.19442 706.19442,453 701.5,453 C696.80558,453 693,449.19442 693,444.5 L693,387.5 C693,382.80558 696.80558,379 701.5,379 Z M674.5,388 C679.19442,388 683,391.80558 683,396.5 L683,435.5 C683,440.19442 679.19442,444 674.5,444 C669.80558,444 666,440.19442 666,435.5 L666,396.5 C666,391.80558 669.80558,388 674.5,388 Z M729.5,390 C734.19442,390 738,393.80558 738,398.5 L738,433.5 C738,438.19442 734.19442,442 729.5,442 C724.80558,442 721,438.19442 721,433.5 L721,398.5 C721,393.80558 724.80558,390 729.5,390 Z M840.5,390 C845.19442,390 849,393.80558 849,398.5 L849,433.5 C849,438.19442 845.19442,442 840.5,442 C835.80558,442 832,438.19442 832,433.5 L832,398.5 C832,393.80558 835.80558,390 840.5,390 Z M785.5,395 C790.19442,395 794,398.80558 794,403.5 L794,428.5 C794,433.19442 790.19442,437 785.5,437 C780.80558,437 777,433.19442 777,428.5 L777,403.5 C777,398.80558 780.80558,395 785.5,395 Z M757.5,397 C762.19442,397 766,400.80558 766,405.5 L766,426.5 C766,431.19442 762.19442,435 757.5,435 C752.80558,435 749,431.19442 749,426.5 L749,405.5 C749,400.80558 752.80558,397 757.5,397 Z M923.5,398 C928.19442,398 932,401.80558 932,406.5 L932,425.5 C932,430.19442 928.19442,434 923.5,434 C918.80558,434 915,430.19442 915,425.5 L915,406.5 C915,401.80558 918.80558,398 923.5,398 Z M813.5,401 C818.19442,401 822,404.80558 822,409.5 L822,422.5 C822,427.19442 818.19442,431 813.5,431 C808.80558,431 805,427.19442 805,422.5 L805,409.5 C805,404.80558 808.80558,401 813.5,401 Z M868.5,401 C873.19442,401 877,404.80558 877,409.5 L877,422.5 C877,427.19442 873.19442,431 868.5,431 C863.80558,431 860,427.19442 860,422.5 L860,409.5 C860,404.80558 863.80558,401 868.5,401 Z M896.5,404 C901.19442,404 905,407.80558 905,412.5 L905,419.5 C905,424.19442 901.19442,428 896.5,428 C891.80558,428 888,424.19442 888,419.5 L888,412.5 C888,407.80558 891.80558,404 896.5,404 Z M951.5,406 C956.19442,406 960,409.80558 960,414.5 L960,417.5 C960,422.19442 956.19442,426 951.5,426 C946.80558,426 943,422.19442 943,417.5 L943,414.5 C943,409.80558 946.80558,406 951.5,406 Z M979.5,406 C984.19442,406 988,409.80558 988,414.5 L988,417.5 C988,422.19442 984.19442,426 979.5,426 C974.80558,426 971,422.19442 971,417.5 L971,414.5 C971,409.80558 974.80558,406 979.5,406 Z" id="Combined-Shape" fill="#FFFFFF"></path>
            <path d="M313.5,80 C318.19442,80 322,83.8055796 322,88.5 L322,743.5 C322,748.19442 318.19442,752 313.5,752 C308.80558,752 305,748.19442 305,743.5 L305,88.5 C305,83.8055796 308.80558,80 313.5,80 Z M369.5,146 C374.19442,146 378,149.80558 378,154.5 L378,677.5 C378,682.19442 374.19442,686 369.5,686 C364.80558,686 361,682.19442 361,677.5 L361,154.5 C361,149.80558 364.80558,146 369.5,146 Z M341.5,157 C346.19442,157 350,160.80558 350,165.5 L350,666.5 C350,671.19442 346.19442,675 341.5,675 C336.80558,675 333,671.19442 333,666.5 L333,165.5 C333,160.80558 336.80558,157 341.5,157 Z M257.5,223 C262.19442,223 266,226.80558 266,231.5 L266,600.5 C266,605.19442 262.19442,609 257.5,609 C252.80558,609 249,605.19442 249,600.5 L249,231.5 C249,226.80558 252.80558,223 257.5,223 Z M396.5,249 C401.19442,249 405,252.80558 405,257.5 L405,574.5 C405,579.19442 401.19442,583 396.5,583 C391.80558,583 388,579.19442 388,574.5 L388,257.5 C388,252.80558 391.80558,249 396.5,249 Z M285.5,251 C290.19442,251 294,254.80558 294,259.5 L294,572.5 C294,577.19442 290.19442,581 285.5,581 C280.80558,581 277,577.19442 277,572.5 L277,259.5 C277,254.80558 280.80558,251 285.5,251 Z M202.5,286 C207.19442,286 211,289.80558 211,294.5 L211,537.5 C211,542.19442 207.19442,546 202.5,546 C197.80558,546 194,542.19442 194,537.5 L194,294.5 C194,289.80558 197.80558,286 202.5,286 Z M480.5,308 C485.19442,308 489,311.80558 489,316.5 L489,515.5 C489,520.19442 485.19442,524 480.5,524 C475.80558,524 472,520.19442 472,515.5 L472,316.5 C472,311.80558 475.80558,308 480.5,308 Z M424.5,312 C429.19442,312 433,315.80558 433,320.5 L433,511.5 C433,516.19442 429.19442,520 424.5,520 C419.80558,520 416,516.19442 416,511.5 L416,320.5 C416,315.80558 419.80558,312 424.5,312 Z M230.5,323 C235.19442,323 239,326.80558 239,331.5 L239,500.5 C239,505.19442 235.19442,509 230.5,509 C225.80558,509 222,505.19442 222,500.5 L222,331.5 C222,326.80558 225.80558,323 230.5,323 Z M452.5,355 C457.19442,355 461,358.80558 461,363.5 L461,468.5 C461,473.19442 457.19442,477 452.5,477 C447.80558,477 444,473.19442 444,468.5 L444,363.5 C444,358.80558 447.80558,355 452.5,355 Z M174.5,372 C179.19442,372 183,375.80558 183,380.5 L183,451.5 C183,456.19442 179.19442,460 174.5,460 C169.80558,460 166,456.19442 166,451.5 L166,380.5 C166,375.80558 169.80558,372 174.5,372 Z M146.5,391 C151.19442,391 155,394.80558 155,399.5 L155,432.5 C155,437.109067 151.331547,440.861321 146.75516,440.996243 L146.5,441 L146.5,441 C141.80558,441 138,437.19442 138,432.5 L138,399.5 C138,394.80558 141.80558,391 146.5,391 Z M36.5,398 C41.1944204,398 45,401.80558 45,406.5 L45,425.5 C45,430.19442 41.1944204,434 36.5,434 C31.8055796,434 28,430.19442 28,425.5 L28,406.5 C28,401.80558 31.8055796,398 36.5,398 Z M91.5,402 C96.1944204,402 100,405.80558 100,410.5 L100,421.5 C100,426.19442 96.1944204,430 91.5,430 C86.8055796,430 83,426.19442 83,421.5 L83,410.5 C83,405.80558 86.8055796,402 91.5,402 Z M63.5,404 C68.1944204,404 72,407.80558 72,412.5 L72,419.5 C72,424.19442 68.1944204,428 63.5,428 C58.8055796,428 55,424.19442 55,419.5 L55,412.5 C55,407.80558 58.8055796,404 63.5,404 Z M119.5,406 C124.19442,406 128,409.80558 128,414.5 L128,417.5 C128,422.19442 124.19442,426 119.5,426 C114.80558,426 111,422.19442 111,417.5 L111,414.5 C111,409.80558 114.80558,406 119.5,406 Z M8.5,406 C13.1944204,406 17,409.80558 17,414.5 L17,417.5 C17,422.19442 13.1944204,426 8.5,426 C3.80557963,426 5.74900688e-16,422.19442 0,417.5 L0,414.5 C-5.74900688e-16,409.80558 3.80557963,406 8.5,406 Z" id="Combined-Shape" fill="#FF3B30"></path>
        </g>
    </g>
</svg>