<?xml version="1.0" encoding="UTF-8"?>
<svg width="1024px" height="1024px" viewBox="0 0 1024 1024" version="1.1" xmlns="http://www.w3.org/2000/svg" xmlns:xlink="http://www.w3.org/1999/xlink">
    <!-- Generator: Sketch 64 (93537) - https://sketch.com -->
    <title>App Icon / Apple / Maps /@SVG</title>
    <desc>Created with Sketch.</desc>
    <defs>
        <rect id="path-1" x="0" y="0" width="1024" height="1024"></rect>
        <filter x="-18.1%" y="-18.1%" width="136.3%" height="136.3%" filterUnits="objectBoundingBox" id="filter-3">
            <feOffset dx="0" dy="10" in="SourceAlpha" result="shadowOffsetOuter1"></feOffset>
            <feGaussianBlur stdDeviation="12" in="shadowOffsetOuter1" result="shadowBlurOuter1"></feGaussianBlur>
            <feColorMatrix values="0 0 0 0 0   0 0 0 0 0   0 0 0 0 0  0 0 0 0.2 0" type="matrix" in="shadowBlurOuter1" result="shadowMatrixOuter1"></feColorMatrix>
            <feMerge>
                <feMergeNode in="shadowMatrixOuter1"></feMergeNode>
                <feMergeNode in="SourceGraphic"></feMergeNode>
            </feMerge>
        </filter>
    </defs>
    <g id="App-Icon-/-Apple-/-Maps-/" stroke="none" stroke-width="1" fill="none" fill-rule="evenodd">
        <mask id="mask-2" fill="white">
            <use xlink:href="#path-1"></use>
        </mask>
        <use id="Origin-Color" fill="#E9E7E1" xlink:href="#path-1"></use>
        <g id="Group-3" mask="url(#mask-2)" fill="#FFD2DA">
            <rect id="left-rose" x="0" y="342" width="149" height="682"></rect>
        </g>
        <g id="diagonal" mask="url(#mask-2)" fill="#FFDB57" stroke="#FFB740" stroke-width="16">
            <g transform="translate(-189.000000, 101.000000)" id="Rectangle">
                <rect transform="translate(701.000000, 536.000000) rotate(-55.000000) translate(-701.000000, -536.000000) " x="586" y="-252" width="230" height="1576"></rect>
            </g>
        </g>
        <g id="Right" mask="url(#mask-2)">
            <g transform="translate(363.000000, -554.000000)">
                <polygon id="Rectangle" stroke="none" fill="#ADE293" fill-rule="evenodd" points="0 554 661 554 661 1400 0 937"></polygon>
                <path d="M661,-8 C816.192015,-8 956.692015,54.9039927 1058.39401,156.605989 C1160.09601,258.307985 1223,398.807985 1223,554 C1223,709.192015 1160.09601,849.692015 1058.39401,951.394011 C956.692015,1053.09601 816.192015,1116 661,1116 C505.807985,1116 365.307985,1053.09601 263.605989,951.394011 C161.903993,849.692015 99,709.192015 99,554 C99,398.807985 161.903993,258.307985 263.605989,156.605989 C365.307985,54.9039927 505.807985,-8 661,-8 Z M661,223 C569.596874,223 486.846874,260.048437 426.947655,319.947655 C367.048437,379.846874 330,462.596874 330,554 C330,645.403126 367.048437,728.153126 426.947655,788.052345 C486.846874,847.951563 569.596874,885 661,885 C752.403126,885 835.153126,847.951563 895.052345,788.052345 C954.951563,728.153126 992,645.403126 992,554 C992,462.596874 954.951563,379.846874 895.052345,319.947655 C835.153126,260.048437 752.403126,223 661,223 L661,223 Z" id="Oval" stroke-opacity="0.1" stroke="#000000" stroke-width="16" fill="#FFFFFF" fill-rule="nonzero"></path>
            </g>
        </g>
        <g id="Vertical" mask="url(#mask-2)">
            <g transform="translate(149.000000, 0.000000)">
                <rect id="Bottom" stroke-opacity="0.6" stroke="#000000" stroke-width="16" fill="#FFFFFF" x="-8" y="504" width="230" height="528"></rect>
                <rect id="Top" stroke-opacity="0.1" stroke="#000000" stroke-width="16" fill="#FFFFFF" x="-8" y="-8" width="230" height="528"></rect>
                <rect id="Rectangle" stroke="none" fill="#3EAAED" x="43" y="0" width="128" height="533"></rect>
            </g>
        </g>
        <g id="Group" filter="url(#filter-3)" mask="url(#mask-2)">
            <g transform="translate(74.000000, 426.000000)">
                <circle id="Oval" fill="#0B90E1" cx="182" cy="182" r="182"></circle>
                <path d="M187.667571,63.3100097 L263.414171,281.291893 C264.501855,284.422006 262.846139,287.841206 259.716026,288.92889 C257.543384,289.683862 255.130361,289.130361 253.50396,287.50396 L182,216 L182,216 L110.49604,287.50396 C108.152895,289.847105 104.353905,289.847105 102.010759,287.50396 C100.384358,285.877559 99.8308564,283.464536 100.585829,281.291893 L176.332429,63.3100097 C177.420113,60.1798967 180.839313,58.5241809 183.969426,59.611865 C185.702804,60.214197 187.065239,61.5766321 187.667571,63.3100097 Z" id="Rectangle" fill="#FFFFFF"></path>
            </g>
        </g>
        <g id="Group-2" mask="url(#mask-2)">
            <g transform="translate(568.000000, 644.717386)">
                <path d="M199.997426,0 C223.938718,17.172618 253.288701,27.2826143 285,27.2826143 C313.338636,27.2826143 339.791522,19.208762 362.183853,5.23586363 C385.978148,38.1377962 400,78.5727157 400,122.282614 C400,232.739564 310.45695,322.282614 200,322.282614 C89.54305,322.282614 0,232.739564 0,122.282614 C0,78.5727157 14.0218523,38.1377962 37.8128164,5.23059616 C60.2084782,19.208762 86.6613645,27.2826143 115,27.2826143 C146.710857,27.2826143 176.060463,17.1729001 199.997426,0 Z" id="Path" fill="#0B90E1" fill-rule="nonzero"></path>
                <path d="M199.998,19.2146143 L200.726172,19.6628136 C225.562721,34.8216611 254.164735,43.0954625 283.983001,43.2794768 L285,43.2826143 L286.011373,43.2795132 C310.569647,43.12888 334.32407,37.4935719 355.860872,27.0009881 L356.853299,26.5132683 L357.074,26.4016143 L357.468533,27.0474074 C374.697358,55.4510776 384,88.1494274 384,122.282614 C384,223.903008 301.620394,306.282614 200,306.282614 C99.39581,306.282614 17.6495162,225.542362 16.0246507,125.325391 L16,122.282614 L16.0036848,121.106227 C16.2126614,87.7544489 25.3054799,55.8050811 41.9946637,27.9312205 L42.5298748,27.0430161 L42.923,26.3986143 L43.1428515,26.5093564 C65.2371453,37.463997 89.7024723,43.2826143 115,43.2826143 C144.846224,43.2826143 173.504746,35.1787602 198.423388,20.1762026 L199.271434,19.662081 L199.998,19.2146143 Z M369.34199,107.2139 L30.6558386,107.2139 C30.2810243,111.490151 30.065988,115.794953 30.0131277,120.121017 L30.0131277,120.121017 L30.0036161,121.150078 L30,122.282614 L30.0227751,125.093875 C31.5240095,217.685642 107.050477,292.282614 200,292.282614 C293.888407,292.282614 370,216.171022 370,122.282614 C370,117.227499 369.779375,112.200786 369.34199,107.2139 L369.34199,107.2139 Z" id="Combined-Shape" fill="#FFFFFF" fill-rule="nonzero"></path>
                <text id="280" fill="none" font-family="SFProDisplay-Bold, SF Pro Display" font-size="123" font-weight="bold" letter-spacing="-0.4">
                    <tspan x="86.2154785" y="221.282614" fill="#FFFFFF">280</tspan>
                </text>
                <path d="M199.999,35.4256143 L200.583499,35.7478873 C226.060915,49.6942887 254.573424,57.1049919 283.938253,57.2794606 L285,57.2826143 L286.054301,57.2794473 L287.208586,57.2686532 C308.732812,56.9980325 329.780127,52.8527966 349.509144,45.0778639 L350.603839,44.6421905 L351.166,44.4136143 L351.46049,44.9828946 C358.917213,59.5489636 364.200536,75.0969314 367.171834,91.2140813 L32.8263163,91.2140813 C35.722828,75.5091962 40.8186092,60.3338108 47.9876511,46.0706963 L48.5579331,44.9465633 L48.834,44.4086143 L50.260307,44.9812164 C70.7747219,53.099001 92.6615848,57.2826143 115,57.2826143 C144.386048,57.2826143 172.945618,50.0374217 198.460539,36.2683156 L199.381435,35.7677973 L199.999,35.4256143 Z" id="Path" fill="#E83F3C" fill-rule="nonzero"></path>
            </g>
        </g>
    </g>
</svg>