<?xml version="1.0" encoding="UTF-8"?>
<svg width="1024px" height="1024px" viewBox="0 0 1024 1024" version="1.1" xmlns="http://www.w3.org/2000/svg" xmlns:xlink="http://www.w3.org/1999/xlink">
    <!-- Generator: Sketch 63.1 (92452) - https://sketch.com -->
    <title>App Icon / Apple / Phone /@SVG</title>
    <desc>Created with Sketch.</desc>
    <defs>
        <linearGradient x1="50%" y1="0%" x2="50%" y2="100%" id="linearGradient-1">
            <stop stop-color="#67FF81" offset="0%"></stop>
            <stop stop-color="#01B41F" offset="100%"></stop>
        </linearGradient>
    </defs>
    <g id="App-Icon-/-Apple-/-Phone-/" stroke="none" stroke-width="1" fill="none" fill-rule="evenodd">
        <rect id="Origin-Color" fill="url(#linearGradient-1)" x="0" y="0" width="1024" height="1024"></rect>
        <path d="M235.208333,446.779167 C197.264583,378.020833 182.8,322.589834 182.8,285.15 C182.8,247.710166 192.003056,236.971962 201.341632,228.296918 C210.680208,219.621875 252.790625,193.671875 259.965625,188.832292 C267.140625,183.992708 294.525,174.5875 311.698155,199.27951 C328.87131,223.971519 361.210417,273.547917 383.50625,306.482292 C418.492708,353.13125 390.619792,373.609375 381.616667,385.883333 C365.049683,408.469098 355.510417,414.039706 355.510417,441.772917 C355.510417,469.506127 433.054201,548.297169 451.595833,567.710417 C469.996421,586.97599 547.262176,654.677552 571.204167,658.297917 C595.314583,661.94375 627.591625,636.430123 634.454167,629.960417 C669.364583,603.170833 689.070833,623.48125 705.151258,632.309752 C721.231683,641.138253 793.886212,686.389512 816.401051,701.642778 C837.591488,716.896044 836.267086,740.469273 836.267086,740.469273 C836.267086,740.469273 821.191667,784.458353 787.264201,818.122263 C778.922405,826.399257 764.749362,836.148849 728.9905,836.148849 C693.231637,836.148849 655.025,829.620833 564.225,779.708333 C489.928962,738.868014 419.104098,674.914834 382.020833,637.475 C343.613167,600.035166 278.55078,525.320544 235.208333,446.779167 Z" id="Phone-Icon" fill="#FFFFFF"></path>
    </g>
</svg>