<?xml version="1.0" encoding="UTF-8"?>
<svg width="1024px" height="1024px" viewBox="0 0 1024 1024" version="1.1" xmlns="http://www.w3.org/2000/svg" xmlns:xlink="http://www.w3.org/1999/xlink">
    <!-- Generator: Sketch 64 (93537) - https://sketch.com -->
    <title>App Icon / Apple / Beddit /@SVG</title>
    <desc>Created with Sketch.</desc>
    <g id="App-Icon-/-Apple-/-Beddit-/" stroke="none" stroke-width="1" fill="none" fill-rule="evenodd">
        <rect id="Origin-Color" fill="#FF7028" x="0" y="0" width="1024" height="1024"></rect>
        <path d="M311,182 C330.329966,182 346,197.670034 346,217 L346.000066,439.771971 C395.829257,370.590657 457.829235,336 532,336 C652.5,336 768,424.5 768,582 C768,723 664,825 530,825 C361.7,825 274.7483,705.91785 273.026096,589.526074 L273,586 L273,217 C273,197.670034 288.670034,182 308,182 L311,182 Z M519.5,399 C428.5,399 343.5,470.5 343.5,580.5 C343.5,686.5 417.5,762 519.5,762 C624.5,762 693,687.5 693,580.5 C693,473.5 620.5,399 519.5,399 Z" id="Combined-Shape" fill="#FFFFFF"></path>
    </g>
</svg>