<?xml version="1.0" encoding="UTF-8"?>
<svg width="1024px" height="1024px" viewBox="0 0 1024 1024" version="1.1" xmlns="http://www.w3.org/2000/svg" xmlns:xlink="http://www.w3.org/1999/xlink">
    <!-- Generator: Sketch 63.1 (92452) - https://sketch.com -->
    <title>App Icon / Apple / AppleStore /@SVG</title>
    <desc>Created with Sketch.</desc>
    <defs>
        <linearGradient x1="50%" y1="0%" x2="50%" y2="100%" id="linearGradient-1">
            <stop stop-color="#00E7F6" offset="0%"></stop>
            <stop stop-color="#00A2D8" offset="100%"></stop>
        </linearGradient>
    </defs>
    <g id="App-Icon-/-Apple-/-AppleStore-/" stroke="none" stroke-width="1" fill="none" fill-rule="evenodd">
        <rect id="Origin-Color" fill="#FFFFFF" x="0" y="0" width="1024" height="1024"></rect>
        <path d="M773,240 C801.166522,240 824,262.833478 824,291 L824,797 C824,825.166522 801.166522,848 773,848 L251,848 C222.833478,848 200,825.166522 200,797 L200,291 C200,262.833478 222.833478,240 251,240 L773,240 Z M512,111 C589.152112,111 653.306273,166.650847 666.510573,240.00063 L638.976888,239.999223 C626.170581,181.660656 574.184037,138 512,138 C449.815963,138 397.829419,181.660656 385.023112,239.999223 L357.489427,240.00063 C370.693727,166.650847 434.847888,111 512,111 Z" id="Combined-Shape" fill="url(#linearGradient-1)"></path>
        <path d="M619.618437,474.915135 C618.33059,475.722906 587.673546,492.770004 587.673546,530.567356 C589.118448,573.672913 626.361312,588.789755 627,588.789755 C626.361312,589.597526 621.377448,609.382651 606.614322,630.122414 C594.898054,647.987773 581.893939,666 562.14695,666 C543.363228,666 536.620354,654.093257 514.946829,654.093257 C491.671348,654.093257 485.085528,666 467.265074,666 C447.518085,666 433.550702,647.022645 421.195746,629.325134 C405.144773,606.16206 391.501969,569.812401 391.020335,534.910433 C390.695756,516.415642 394.234718,498.235566 403.218237,482.793518 C415.897773,461.235494 438.534566,446.601215 463.254948,446.118651 C482.195725,445.47873 499.052911,459.14788 510.612124,459.14788 C521.689703,459.14788 542.399961,446.118651 565.832496,446.118651 C575.946808,446.129142 602.918306,449.181884 619.618437,474.915135 Z M509.010168,442.425988 C505.638731,425.536247 514.946829,408.646506 523.616239,397.872739 C534.693818,384.84351 552.189693,376 567.277398,376 C568.240666,392.889741 562.13648,409.454276 551.226425,421.518377 C541.436693,434.547605 524.579507,444.356244 509.010168,442.425988 Z" id="Shape" fill="#FFFFFF" fill-rule="nonzero"></path>
    </g>
</svg>