<?xml version="1.0" encoding="UTF-8"?>
<svg width="1024px" height="1024px" viewBox="0 0 1024 1024" version="1.1" xmlns="http://www.w3.org/2000/svg" xmlns:xlink="http://www.w3.org/1999/xlink">
    <!-- Generator: Sketch 63.1 (92452) - https://sketch.com -->
    <title>App Icon / Apple / Podcasts /@SVG</title>
    <desc>Created with Sketch.</desc>
    <defs>
        <linearGradient x1="50%" y1="0%" x2="50%" y2="100%" id="linearGradient-1">
            <stop stop-color="#F452FF" offset="0%"></stop>
            <stop stop-color="#832BC1" offset="100%"></stop>
        </linearGradient>
    </defs>
    <g id="App-Icon-/-Apple-/-Podcasts-/" stroke="none" stroke-width="1" fill="none" fill-rule="evenodd">
        <rect id="Origin-Color" fill="url(#linearGradient-1)" x="0" y="0" width="1024" height="1024"></rect>
        <g id="Template"></g>
        <path d="M586.058831,588.492546 C570.70747,572.295559 543.745016,561.91225 511.916149,561.91225 C480.083216,561.91225 453.120762,572.295559 437.769401,588.492546 C429.760349,596.944738 425.524089,605.608337 424.190602,617.951222 C421.604939,641.852347 423.056326,662.431952 425.857461,695.334114 C428.524435,726.687317 433.590059,768.497008 440.200576,811.079146 C444.904369,841.383448 448.725947,857.73899 452.206023,869.45172 C457.848949,888.43358 478.936742,905.033052 511.916149,905.033052 C544.89149,905.033052 565.979283,888.429515 571.622209,869.45172 C575.102285,857.73899 578.923863,841.383448 583.627657,811.079146 C590.238174,768.497008 595.303798,726.687317 597.970771,695.334114 C600.771907,662.427887 602.223293,641.848282 599.63763,617.951222 C598.304143,605.612403 594.067883,596.944738 586.058831,588.492546 Z M428.272373,444.276756 C428.272373,490.513787 465.756363,527.997777 511.993394,527.997777 C558.234489,527.997777 595.718479,490.513787 595.718479,444.276756 C595.718479,398.035661 558.234489,360.55167 511.993394,360.55167 C465.756363,360.55167 428.272373,398.035661 428.272373,444.276756 Z M510.956689,113.871367 C315.149594,114.42984 154.704294,273.281461 152.281251,469.076359 C150.313544,627.68405 251.560973,763.358205 392.939037,813.087508 C396.370327,814.294964 399.854467,811.445042 399.313755,807.847067 C397.459883,795.532641 395.711714,783.157233 394.105838,770.989165 C393.536667,766.687857 390.796514,762.980113 386.824512,761.244141 C275.07994,712.425513 197.050632,600.3557 198.302809,470.539942 C199.945274,300.178867 339.058851,161.292959 509.419927,159.914751 C683.582253,158.508085 825.716502,299.776381 825.716502,473.617533 C825.716502,602.132328 748.028697,712.827998 637.154144,761.256337 C633.182142,762.99231 630.458251,766.71225 629.893145,771.009493 C628.287269,783.173495 626.539101,795.544838 624.689294,807.847067 C624.144516,811.445042 627.628657,814.294964 631.059946,813.091573 C771.088262,763.837935 871.746192,630.273779 871.746192,473.621598 C871.738061,274.903599 709.796653,113.303694 510.956689,113.871367 Z M504.45594,278.912191 C615.456524,274.614948 707.125614,363.66585 707.125614,473.727301 C707.125614,529.701225 683.411502,580.235498 645.508764,615.824961 C642.292947,618.841568 640.565106,623.126614 640.813102,627.52956 C641.569286,640.91728 641.292832,653.926908 640.402485,668.619657 C640.16262,672.534741 644.55337,675.035029 647.79358,672.827458 C711.353743,629.391563 753.159369,556.3547 753.159369,473.727301 C753.159369,337.679119 639.83738,227.59734 502.630527,232.915025 C375.119913,237.858684 272.819518,342.988673 271.185183,470.588729 C270.111889,554.508959 312.173642,628.854916 376.550972,672.835589 C379.783051,675.04316 384.161604,672.538807 383.921739,668.627788 C383.027327,653.926908 382.754938,640.91728 383.507057,627.52956 C383.755053,623.13068 382.031277,618.845634 378.823591,615.833092 C339.737791,579.13781 315.735027,526.550456 317.263659,468.494992 C319.955025,366.328758 402.326297,282.867931 504.45594,278.912191 Z" id="Shape" fill="#FFFFFF" fill-rule="nonzero"></path>
    </g>
</svg>