<?xml version="1.0" encoding="UTF-8"?>
<svg width="1024px" height="1024px" viewBox="0 0 1024 1024" version="1.1" xmlns="http://www.w3.org/2000/svg" xmlns:xlink="http://www.w3.org/1999/xlink">
    <!-- Generator: Sketch 63.1 (92452) - https://sketch.com -->
    <title>App Icon / Apple / Home /@SVG</title>
    <desc>Created with Sketch.</desc>
    <g id="App-Icon-/-Apple-/-Home-/" stroke="none" stroke-width="1" fill="none" fill-rule="evenodd">
        <rect id="Origin-Color" fill="#FFFFFF" x="0" y="0" width="1024" height="1024"></rect>
        <g id="Color" transform="translate(130.494252, 125.285273)">
            <path d="M367.268359,4.93631346 C375.618956,-1.64543782 387.392539,-1.64543782 395.743136,4.93631346 L395.743136,4.93631346 L596.505,163.172 L596.505748,107.714727 C596.505748,100.535025 602.326046,94.7147265 609.505748,94.7147265 L666.505748,94.7147265 C673.685449,94.7147265 679.505748,100.535025 679.505748,107.714727 L679.505,228.59 L758.058175,290.504817 C761.090972,292.895199 762.899141,296.505631 763.005942,300.353339 L763.010955,300.714727 C763.010955,307.894428 757.190657,313.714727 750.010955,313.714727 L750.010955,313.714727 L682.505748,313.714727 L682.505748,668.714727 C682.505748,685.835554 668.626575,699.714727 651.505748,699.714727 L651.505748,699.714727 L111.505748,699.714727 C94.3849204,699.714727 80.5057477,685.835554 80.5057477,668.714727 L80.5057477,668.714727 L80.5057477,313.714727 L13.0005403,313.714727 C9.01828781,313.714727 5.255712,311.889518 2.79063048,308.761946 C-1.65372615,303.123169 -0.685456741,294.949173 4.95332073,290.504817 L4.95332073,290.504817 Z" id="Combined-Shape" fill="#FE9403"></path>
            <path d="M626.505748,620.714727 L626.505748,273.733065 C626.505748,265.507292 622.755928,257.730176 616.319884,252.607611 L394.58341,76.1234779 C386.929205,70.031356 376.08229,70.031356 368.428086,76.1234779 L146.691611,252.607611 C140.255567,257.730176 136.505748,265.507292 136.505748,273.733065 L136.505748,620.714727 C136.505748,633.417276 146.803198,643.714727 159.505748,643.714727 L603.505748,643.714727 C616.208297,643.714727 626.505748,633.417276 626.505748,620.714727 Z" id="Path-Copy-4" fill="#FFAB1F"></path>
            <path d="M570.505748,568.714727 L570.505748,298.824126 C570.505748,291.805774 567.301275,285.171494 561.803878,280.808481 L393.317247,147.088932 C386.399829,141.598918 376.611667,141.598918 369.694248,147.088932 L201.207617,280.808481 C195.71022,285.171494 192.505748,291.805774 192.505748,298.824126 L192.505748,568.714727 C192.505748,579.208137 201.012337,587.714727 211.505748,587.714727 L551.505748,587.714727 C561.999158,587.714727 570.505748,579.208137 570.505748,568.714727 Z" id="Path-Copy-3" fill="#FFBE41"></path>
            <path d="M514.505748,514.714727 L514.505748,324.891367 C514.505748,318.464387 511.562704,312.391271 506.518278,308.408829 L393.278989,219.009391 C386.376116,213.559754 376.635379,213.559754 369.732506,219.009391 L256.493218,308.408829 C251.448791,312.391271 248.505748,318.464387 248.505748,324.891367 L248.505748,514.714727 C248.505748,524.103567 256.116907,531.714727 265.505748,531.714727 L497.505748,531.714727 C506.894588,531.714727 514.505748,524.103567 514.505748,514.714727 Z" id="Path-Copy-2" fill="#FFD260"></path>
            <path d="M459.505748,463.714727 L459.505748,349.073464 C459.505748,344.746645 457.505102,340.662944 454.086181,338.011088 L389.473293,287.894681 C384.784193,284.257623 378.227302,284.257623 373.538203,287.894681 L308.925315,338.011088 C305.506393,340.662944 303.505748,344.746645 303.505748,349.073464 L303.505748,463.714727 C303.505748,470.894428 309.326046,476.714727 316.505748,476.714727 L446.505748,476.714727 C453.685449,476.714727 459.505748,470.894428 459.505748,463.714727 Z" id="Path" fill="#FFE780"></path>
        </g>
    </g>
</svg>